<svg width="317" height="362" viewBox="0 0 317 362" fill="none" xmlns="http://www.w3.org/2000/svg">
<g filter="url(#filter0_i_703_6400)">
<g clip-path="url(#clip0_703_6400)">
<path d="M0 24C0 10.7452 10.7452 0 24 0H293C306.255 0 317 10.7452 317 24V360H0V24Z" fill="url(#paint0_linear_703_6400)"/>
<path style="mix-blend-mode:screen" opacity="0.5" d="M163.825 128.607C258.266 128.607 334.825 91.4469 334.825 45.6073C334.825 -0.232334 258.266 -37.3927 163.825 -37.3927C69.3845 -37.3927 -7.1748 -0.232334 -7.1748 45.6073C-7.1748 91.4469 69.3845 128.607 163.825 128.607Z" fill="url(#paint1_radial_703_6400)"/>
</g>
</g>
<g style="mix-blend-mode:hard-light" opacity="0.8" filter="url(#filter1_i_703_6400)">
<ellipse cx="158.5" cy="345.71" rx="158.5" ry="15.5" fill="#534E49"/>
</g>
<defs>
<filter id="filter0_i_703_6400" x="0" y="0" width="317" height="364" filterUnits="userSpaceOnUse" color-interpolation-filters="sRGB">
<feFlood flood-opacity="0" result="BackgroundImageFix"/>
<feBlend mode="normal" in="SourceGraphic" in2="BackgroundImageFix" result="shape"/>
<feColorMatrix in="SourceAlpha" type="matrix" values="0 0 0 0 0 0 0 0 0 0 0 0 0 0 0 0 0 0 127 0" result="hardAlpha"/>
<feOffset dy="4"/>
<feGaussianBlur stdDeviation="7.15"/>
<feComposite in2="hardAlpha" operator="arithmetic" k2="-1" k3="1"/>
<feColorMatrix type="matrix" values="0 0 0 0 1 0 0 0 0 1 0 0 0 0 1 0 0 0 0.35 0"/>
<feBlend mode="normal" in2="shape" result="effect1_innerShadow_703_6400"/>
</filter>
<filter id="filter1_i_703_6400" x="0" y="330.21" width="317" height="40" filterUnits="userSpaceOnUse" color-interpolation-filters="sRGB">
<feFlood flood-opacity="0" result="BackgroundImageFix"/>
<feBlend mode="normal" in="SourceGraphic" in2="BackgroundImageFix" result="shape"/>
<feColorMatrix in="SourceAlpha" type="matrix" values="0 0 0 0 0 0 0 0 0 0 0 0 0 0 0 0 0 0 127 0" result="hardAlpha"/>
<feOffset dy="9"/>
<feGaussianBlur stdDeviation="4.9"/>
<feComposite in2="hardAlpha" operator="arithmetic" k2="-1" k3="1"/>
<feColorMatrix type="matrix" values="0 0 0 0 0 0 0 0 0 0 0 0 0 0 0 0 0 0 1 0"/>
<feBlend mode="normal" in2="shape" result="effect1_innerShadow_703_6400"/>
</filter>
<linearGradient id="paint0_linear_703_6400" x1="158.5" y1="113.301" x2="158.5" y2="345.885" gradientUnits="userSpaceOnUse">
<stop stop-color="white" stop-opacity="0.19"/>
<stop offset="1" stop-color="white" stop-opacity="0"/>
</linearGradient>
<radialGradient id="paint1_radial_703_6400" cx="0" cy="0" r="1" gradientUnits="userSpaceOnUse" gradientTransform="translate(158.421 45.6073) scale(170.598 83)">
<stop stop-color="#4A00DD"/>
<stop offset="0.99"/>
</radialGradient>
<clipPath id="clip0_703_6400">
<path d="M0 24C0 10.7452 10.7452 0 24 0H293C306.255 0 317 10.7452 317 24V360H0V24Z" fill="white"/>
</clipPath>
</defs>
</svg>
