<svg width="48" height="48" viewBox="0 0 48 48" fill="none" xmlns="http://www.w3.org/2000/svg">
<path d="M0 12C0 5.37258 5.37258 0 12 0H36C42.6274 0 48 5.37258 48 12V36C48 42.6274 42.6274 48 36 48H12C5.37258 48 0 42.6274 0 36V12Z" fill="white" fill-opacity="0.4"/>
<path d="M24 14.75C24.2926 14.75 24.5643 14.8623 24.7715 15.0693V15.0703L32.9307 23.2275L32.9326 23.2295C33.3299 23.6283 33.3542 24.262 33.0059 24.6895L32.9316 24.7715C32.7242 24.9788 32.4527 25.0917 32.1602 25.0918H31.1084V31.8457C31.1082 32.6191 30.4773 33.2499 29.7031 33.25H26.6748V28.707C26.6748 27.7507 25.8978 26.9736 24.9414 26.9736H23.0586C22.1023 26.9737 21.3252 27.7506 21.3252 28.707V33.25H18.2969C17.5228 33.2498 16.8928 32.6191 16.8926 31.8457V25.0918H15.833L15.8125 25.0898L15.792 25.0889C15.5171 25.077 15.2625 24.9657 15.0684 24.7715C14.6444 24.3475 14.6436 23.6557 15.0664 23.2305L15.0684 23.2285C15.0708 23.226 15.0738 23.2241 15.0752 23.2227L15.0771 23.2197L23.2285 15.0693C23.4357 14.8623 23.7073 14.75 24 14.75Z" stroke="white" stroke-width="1.5"/>
</svg>
