<svg width="58" height="58" viewBox="0 0 58 58" fill="none" xmlns="http://www.w3.org/2000/svg">
<g filter="url(#filter0_d_303_35331)">
<rect x="2" y="2" width="54" height="54" rx="12" fill="#4C0188"/>
</g>
<path d="M4.42188 14C4.42188 8.47715 8.89903 4 14.4219 4H44.4219C49.9447 4 54.4219 8.47715 54.4219 14V44C54.4219 49.5229 49.9447 54 44.4219 54H14.4219C8.89903 54 4.42188 49.5229 4.42188 44V14Z" fill="url(#paint0_linear_303_35331)"/>
<g filter="url(#filter1_i_303_35331)">
<rect x="6.42188" y="7" width="46" height="44" rx="10" fill="url(#paint1_radial_303_35331)"/>
</g>
<rect x="6.92188" y="7.5" width="45" height="43" rx="9.5" stroke="url(#paint2_linear_303_35331)"/>
<g clip-path="url(#clip0_303_35331)">
<path d="M30.9219 29H24.9219" stroke="white" stroke-width="2.25" stroke-linecap="round" stroke-linejoin="round"/>
<path d="M21.9676 37.7489C21.9149 37.8929 21.9076 38.0496 21.9467 38.1979C21.9857 38.3462 22.0694 38.479 22.1863 38.5783C22.3031 38.6776 22.4477 38.7387 22.6003 38.7533C22.753 38.7679 22.9065 38.7354 23.0401 38.6601L38.7901 29.6517C38.9073 29.5868 39.005 29.4917 39.0731 29.3763C39.1411 29.2609 39.177 29.1294 39.177 28.9954C39.177 28.8615 39.1411 28.7299 39.0731 28.6145C39.005 28.4991 38.9073 28.404 38.7901 28.3392L23.0401 19.3532C22.9069 19.2787 22.7541 19.2466 22.6022 19.2613C22.4503 19.2759 22.3064 19.3365 22.1898 19.435C22.0733 19.5336 21.9895 19.6653 21.9498 19.8127C21.9101 19.9601 21.9163 20.116 21.9676 20.2598L24.9217 29.0039L21.9676 37.7489Z" stroke="white" stroke-width="2.25" stroke-linecap="round" stroke-linejoin="round"/>
</g>
<path d="M47.65 21.4561C46.9622 23.0856 45.8221 21.7277 44.247 20.3411C42.2821 18.6553 41.2583 18.0643 41.9461 16.4348C42.6339 14.8053 44.4683 14.6084 46.0434 15.995C47.6184 17.3816 48.3378 19.8266 47.65 21.4561Z" fill="#D9D9D9" fill-opacity="0.28" style="mix-blend-mode:overlay"/>
<path d="M39.9534 16.5496C39.9002 17.3076 39.1691 17.6451 38.2169 17.5056C37.0362 17.3476 36.4519 16.8023 36.5051 16.0443C36.5584 15.2863 37.3735 14.785 38.3257 14.9245C39.2779 15.064 40.0067 15.7916 39.9534 16.5496Z" fill="#D9D9D9" fill-opacity="0.28" style="mix-blend-mode:overlay"/>
<defs>
<filter id="filter0_d_303_35331" x="0" y="0" width="58" height="58" filterUnits="userSpaceOnUse" color-interpolation-filters="sRGB">
<feFlood flood-opacity="0" result="BackgroundImageFix"/>
<feColorMatrix in="SourceAlpha" type="matrix" values="0 0 0 0 0 0 0 0 0 0 0 0 0 0 0 0 0 0 127 0" result="hardAlpha"/>
<feMorphology radius="2" operator="dilate" in="SourceAlpha" result="effect1_dropShadow_303_35331"/>
<feOffset/>
<feComposite in2="hardAlpha" operator="out"/>
<feColorMatrix type="matrix" values="0 0 0 0 0.630036 0 0 0 0 0.207219 0 0 0 0 1 0 0 0 0.25 0"/>
<feBlend mode="normal" in2="BackgroundImageFix" result="effect1_dropShadow_303_35331"/>
<feBlend mode="normal" in="SourceGraphic" in2="effect1_dropShadow_303_35331" result="shape"/>
</filter>
<filter id="filter1_i_303_35331" x="6.42188" y="7" width="46" height="45" filterUnits="userSpaceOnUse" color-interpolation-filters="sRGB">
<feFlood flood-opacity="0" result="BackgroundImageFix"/>
<feBlend mode="normal" in="SourceGraphic" in2="BackgroundImageFix" result="shape"/>
<feColorMatrix in="SourceAlpha" type="matrix" values="0 0 0 0 0 0 0 0 0 0 0 0 0 0 0 0 0 0 127 0" result="hardAlpha"/>
<feOffset dy="1"/>
<feGaussianBlur stdDeviation="1.5"/>
<feComposite in2="hardAlpha" operator="arithmetic" k2="-1" k3="1"/>
<feColorMatrix type="matrix" values="0 0 0 0 1 0 0 0 0 1 0 0 0 0 1 0 0 0 0.25 0"/>
<feBlend mode="normal" in2="shape" result="effect1_innerShadow_303_35331"/>
</filter>
<linearGradient id="paint0_linear_303_35331" x1="29.4219" y1="4" x2="27.9219" y2="70.5" gradientUnits="userSpaceOnUse">
<stop stop-color="#D99EEE"/>
<stop offset="0.208327" stop-color="#B052F8"/>
<stop offset="0.942715" stop-color="#4C0088"/>
</linearGradient>
<radialGradient id="paint1_radial_303_35331" cx="0" cy="0" r="1" gradientUnits="userSpaceOnUse" gradientTransform="translate(29.4219 29) rotate(84.3916) scale(76.222 55.8957)">
<stop stop-color="#C012FF"/>
<stop offset="1" stop-color="#7F00E2"/>
</radialGradient>
<linearGradient id="paint2_linear_303_35331" x1="6.42187" y1="-9.6497" x2="64.6071" y2="-6.0629" gradientUnits="userSpaceOnUse">
<stop stop-color="white"/>
<stop offset="0.25" stop-color="white" stop-opacity="0"/>
<stop offset="0.634615" stop-color="white" stop-opacity="0"/>
<stop offset="1" stop-color="white"/>
</linearGradient>
<clipPath id="clip0_303_35331">
<rect width="24" height="24" fill="white" transform="translate(17.4219 17)"/>
</clipPath>
</defs>
</svg>
