<svg width="48" height="48" viewBox="0 0 48 48" fill="none" xmlns="http://www.w3.org/2000/svg">
<rect width="48" height="48" rx="12" fill="white" fill-opacity="0.4"/>
<path fill-rule="evenodd" clip-rule="evenodd" d="M23.905 17.1653C23.297 17.6313 22.525 18.4183 21.418 19.5483C20.83 20.1483 20.302 20.5863 19.659 20.8513C19.019 21.1163 18.338 21.1803 17.506 21.1803C16.788 21.1803 16.308 21.1803 15.942 21.2193C15.589 21.2553 15.427 21.3193 15.319 21.3933C15.029 21.5913 14.874 21.8913 14.801 22.3533C14.741 22.7293 14.747 23.1163 14.754 23.5523C14.7586 23.8519 14.7586 24.1516 14.754 24.4513C14.747 24.8863 14.742 25.2733 14.801 25.6493C14.874 26.1113 15.029 26.4113 15.319 26.6093C15.427 26.6823 15.589 26.7473 15.942 26.7833C16.308 26.8213 16.788 26.8233 17.506 26.8233C18.338 26.8233 19.019 26.8863 19.659 27.1513C20.302 27.4163 20.829 27.8543 21.419 28.4543C22.525 29.5843 23.297 30.3713 23.905 30.8373C24.538 31.3243 24.728 31.2563 24.782 31.2333C24.844 31.2073 25.03 31.1043 25.142 30.2993C25.248 29.5283 25.25 28.4123 25.25 26.8153V21.1883C25.25 19.5903 25.248 18.4743 25.141 17.7033C25.03 16.8983 24.844 16.7953 24.782 16.7693C24.728 16.7463 24.538 16.6793 23.905 17.1653ZM22.991 15.9753C23.678 15.4483 24.495 15.0193 25.367 15.3883C26.23 15.7533 26.507 16.6323 26.627 17.4983C26.75 18.3843 26.75 19.6053 26.75 21.1233V26.8793C26.75 28.3973 26.75 29.6183 26.627 30.5053C26.507 31.3703 26.23 32.2493 25.367 32.6153C24.495 32.9833 23.678 32.5553 22.991 32.0273C22.289 31.4873 21.442 30.6233 20.392 29.5513L20.346 29.5043C19.806 28.9543 19.449 28.6873 19.086 28.5373C18.722 28.3873 18.279 28.3223 17.506 28.3223H17.466C16.798 28.3223 16.239 28.3223 15.786 28.2753C15.312 28.2263 14.871 28.1193 14.474 27.8483C13.718 27.3323 13.429 26.5783 13.319 25.8833C13.238 25.3663 13.247 24.7983 13.255 24.3403L13.258 24.0013L13.255 23.6623C13.247 23.2043 13.238 22.6363 13.319 22.1193C13.429 21.4253 13.719 20.6693 14.474 20.1543C14.871 19.8843 15.312 19.7763 15.787 19.7273C16.239 19.6803 16.798 19.6803 17.467 19.6803H17.506C18.279 19.6803 18.722 19.6163 19.086 19.4653C19.449 19.3153 19.806 19.0493 20.346 18.4983L20.392 18.4513C21.442 17.3793 22.288 16.5153 22.991 15.9753ZM28.545 20.4053C28.7031 20.2847 28.9026 20.2318 29.0997 20.2582C29.2968 20.2846 29.4753 20.3883 29.596 20.5463C30.3493 21.5402 30.7548 22.7542 30.75 24.0013C30.75 25.3043 30.32 26.5073 29.596 27.4563C29.4737 27.6096 29.2962 27.7089 29.1015 27.7329C28.9069 27.7569 28.7106 27.7036 28.5547 27.5846C28.3988 27.4656 28.2957 27.2903 28.2676 27.0962C28.2394 26.9021 28.2884 26.7047 28.404 26.5463C28.931 25.8563 29.25 24.9713 29.25 24.0013C29.25 23.0313 28.93 22.1463 28.404 21.4563C28.2834 21.2982 28.2305 21.0987 28.2569 20.9016C28.2834 20.7045 28.387 20.526 28.545 20.4053ZM31.493 18.4483C31.5657 18.3817 31.6508 18.3302 31.7434 18.2965C31.836 18.2629 31.9343 18.2478 32.0328 18.2521C32.1312 18.2565 32.2278 18.2802 32.3171 18.322C32.4064 18.3637 32.4865 18.4226 32.553 18.4953C33.918 19.9853 34.75 21.9013 34.75 24.0013C34.75 26.1013 33.918 28.0173 32.553 29.5073C32.4876 29.5838 32.4075 29.6464 32.3175 29.6913C32.2274 29.7362 32.1292 29.7626 32.0288 29.7688C31.9283 29.7749 31.8276 29.7608 31.7328 29.7273C31.6379 29.6937 31.5507 29.6414 31.4764 29.5735C31.4022 29.5056 31.3424 29.4234 31.3006 29.3318C31.2587 29.2403 31.2358 29.1412 31.233 29.0406C31.2303 28.94 31.2478 28.8399 31.2846 28.7462C31.3213 28.6525 31.3766 28.5672 31.447 28.4953C32.583 27.2533 33.25 25.6903 33.25 24.0013C33.25 22.3123 32.583 20.7493 31.447 19.5083C31.3804 19.4357 31.3288 19.3507 31.295 19.2581C31.2613 19.1655 31.2461 19.0672 31.2504 18.9688C31.2547 18.8703 31.2783 18.7737 31.3199 18.6844C31.3615 18.5951 31.4204 18.5149 31.493 18.4483Z" fill="white"/>
</svg>
