<svg width="40" height="38" viewBox="0 0 40 38" fill="none" xmlns="http://www.w3.org/2000/svg">
<path d="M38.2212 7.92596C38.0271 8.81555 37.7213 9.86915 37.304 11.0867C36.5946 13.1601 30.0321 30.5008 28.9558 32.759C27.8805 35.0163 26.9022 36.5997 26.023 37.5092C25.3951 38.1204 24.345 38.1622 22.8708 37.6324C22.0537 37.3392 21.3821 36.9456 20.8532 36.4496C20.3262 35.9536 20.1359 35.4875 20.2854 35.0511C20.4281 34.6326 20.6814 34.1108 21.0443 33.4866C21.2918 33.0542 21.5451 32.5771 21.8042 32.0533C22.0634 31.5285 22.2943 30.9709 22.4962 30.3795C22.7941 29.5068 28.6763 13.516 28.8005 12.7596C28.8442 12.4912 28.8714 12.2358 28.8801 11.9962C28.8976 11.5609 28.8568 11.1712 28.7578 10.8303C28.6055 10.3005 28.2532 9.93773 27.7029 9.73994C27.4603 9.65247 27.1934 9.71608 26.9023 9.93177C26.8498 9.97053 26.778 9.96556 26.7285 9.92382C24.2062 7.79277 21.5936 6.56225 19.0257 5.96189C10.827 4.04157 3.08531 8.52532 0.225256 10.4695C0.0806517 10.5679 -0.0785101 10.3691 0.0428019 10.2409C16.2744 -6.83732 35.758 5.48877 35.9463 5.60805H35.9473C36.6305 5.85455 37.2002 6.17262 37.6544 6.56523C38.1086 6.95784 38.2968 7.41109 38.2202 7.92496L38.2212 7.92596Z" fill="black"/>
<path d="M33.7549 3.41699C28.2947 1.05556 16.9912 -2.08755 6.23242 5.86523C10.0433 4.16209 15.2393 2.74835 20.6582 4.01758C23.2306 4.61903 25.8358 5.82424 28.3467 7.86426C28.6701 7.72915 29.0369 7.6819 29.4209 7.82031C30.1872 8.09492 30.7276 8.63897 30.9541 9.41992C31.0804 9.85521 31.1261 10.3288 31.1064 10.8271V10.8281C31.0963 11.1061 31.0644 11.3927 31.0166 11.6865V11.6875C30.9981 11.8004 30.948 11.9653 30.9033 12.1074C30.8509 12.2742 30.7797 12.4914 30.6924 12.749C30.5174 13.2655 30.2745 13.9599 29.9873 14.7705C29.4127 16.3925 28.6553 18.4919 27.8936 20.5928C26.3662 24.8051 24.8282 29.0026 24.6816 29.4316C24.5226 29.8976 24.3456 30.3452 24.1514 30.7744L23.9512 31.1982C23.6864 31.7334 23.4255 32.2256 23.1689 32.6729L23.167 32.6768C22.8148 33.2833 22.5896 33.7545 22.4717 34.1025L22.4697 34.1064C22.461 34.1318 22.4528 34.1653 22.4844 34.2432C22.5231 34.3385 22.6205 34.4905 22.8359 34.6934C23.273 35.1039 23.8491 35.4481 24.5869 35.7129C26.0003 36.2198 26.646 36.0439 26.9365 35.7666C27.7233 34.948 28.6535 33.4626 29.7168 31.2314C30.2378 30.1387 32.1333 25.2806 34.0049 20.3838C35.8709 15.5017 37.683 10.6634 38.0322 9.64258C38.4373 8.45791 38.7307 7.44347 38.918 6.59863C38.9429 6.3952 38.8882 6.1964 38.6074 5.95312L38.6084 5.95215C38.2635 5.65408 37.8196 5.39581 37.2627 5.18262H37.1758L36.9844 5.05859C36.9833 5.05795 36.9539 5.03943 36.8955 5.00391C36.8363 4.96789 36.7496 4.91589 36.6367 4.85059C36.5069 4.77553 36.3421 4.6829 36.1455 4.57617C36.0014 4.6935 35.8487 4.79507 35.6885 4.87207C35.3569 5.03136 34.8599 5.14486 34.3926 4.86816L34.3936 4.86719C33.9637 4.61326 33.8064 4.17373 33.7637 3.8291C33.747 3.69461 33.7458 3.55618 33.7549 3.41699Z" fill="#F3F4EE" stroke="black" stroke-width="1.53909"/>
<path d="M32.9147 13.6593C32.9147 13.6593 32.8196 13.7219 32.6672 13.8044C32.5168 13.8889 32.3159 14.0022 32.115 14.1145C31.917 14.2308 31.7103 14.3362 31.5531 14.4117C31.3978 14.4892 31.294 14.5409 31.294 14.5409C31.3367 14.4286 31.3668 14.3043 31.3775 14.1672C31.4046 13.7974 31.3939 13.5102 31.4095 13.2587C31.4095 13.2587 31.7899 13.045 32.1713 12.8303C32.5459 12.6007 32.9196 12.3711 32.9196 12.3711C32.9196 12.6166 32.9564 12.9098 32.9623 13.2796C32.9642 13.4177 32.9448 13.544 32.9137 13.6593H32.9147Z" fill="#F5BC81"/>
<path d="M31.2 14.5719C31.2048 14.5878 31.2145 14.6037 31.2271 14.6157C31.2572 14.6435 31.3009 14.6504 31.3378 14.6316L31.5969 14.5023C31.7386 14.4338 31.9531 14.3254 32.1637 14.2022L32.7139 13.893C32.8692 13.8086 32.9672 13.7439 32.9672 13.7439C32.9876 13.731 33.0022 13.7102 33.009 13.6863C33.0449 13.5531 33.0623 13.4159 33.0604 13.2788C33.0575 13.0859 33.0458 12.913 33.0361 12.7599C33.0264 12.6138 33.0187 12.4876 33.0187 12.3713C33.0187 12.3345 33.0002 12.3007 32.9692 12.2828C32.9381 12.2649 32.9003 12.2649 32.8692 12.2838L32.121 12.743L31.362 13.1694C31.3319 13.1863 31.3135 13.2171 31.3106 13.2509C31.3038 13.3603 31.3019 13.4756 31.2989 13.6018C31.296 13.7648 31.2931 13.9497 31.2776 14.1584C31.2679 14.2777 31.2417 14.393 31.2 14.5033C31.1912 14.5252 31.1912 14.5491 31.198 14.5709L31.2 14.5719ZM32.8285 13.5949C32.7896 13.6187 32.7159 13.6634 32.6198 13.7161L32.0666 14.0272C31.8599 14.1485 31.6503 14.2538 31.5105 14.3214L31.4513 14.3513C31.463 14.2936 31.4707 14.236 31.4756 14.1763C31.4911 13.9606 31.494 13.7728 31.4969 13.6068C31.4989 13.5054 31.4999 13.411 31.5047 13.3215L32.218 12.92L32.8246 12.5482C32.8275 12.6208 32.8323 12.6973 32.8382 12.7748C32.8479 12.9249 32.8595 13.0959 32.8624 13.2828C32.8634 13.3881 32.8517 13.4935 32.8275 13.5958L32.8285 13.5949Z" fill="#BF692D"/>
<path d="M38.7813 9.30906C38.7813 9.30906 38.4416 9.60824 38.0941 9.89749C37.7506 10.1907 37.3963 10.474 37.3963 10.474C37.4099 10.3577 37.409 10.2315 37.3857 10.0973C37.3255 9.73746 37.2449 9.45319 37.209 9.20867C37.209 9.20867 37.2935 9.13711 37.4206 9.03075C37.5477 8.9244 37.7166 8.78226 37.8826 8.63715C38.2184 8.34989 38.5444 8.05469 38.5444 8.05469C38.5881 8.29523 38.6803 8.57652 38.757 8.93434C38.7861 9.06853 38.791 9.19277 38.7822 9.30906H38.7813Z" fill="#F5BC81"/>
<path d="M37.3033 10.5031C37.3111 10.527 37.3266 10.5479 37.3489 10.5608C37.3829 10.5807 37.4266 10.5777 37.4586 10.5528C37.4615 10.5499 37.8177 10.2656 38.1583 9.97435C38.5028 9.68909 38.8435 9.38792 38.8474 9.38494C38.8668 9.36705 38.8794 9.34319 38.8813 9.31635C38.892 9.17819 38.8833 9.046 38.8551 8.91181C38.8173 8.73389 38.7756 8.57486 38.7377 8.42974C38.6989 8.28164 38.6649 8.15342 38.6436 8.03514C38.6368 7.99836 38.6115 7.96954 38.5785 7.9586C38.5455 7.94668 38.5077 7.95463 38.4815 7.97848C38.4815 7.97848 38.1554 8.2727 37.8216 8.55896C37.6556 8.70507 37.4877 8.8472 37.3615 8.95256L37.15 9.13048C37.1228 9.15334 37.1102 9.18813 37.115 9.22392C37.1335 9.34915 37.1636 9.48533 37.1956 9.63044C37.2276 9.77556 37.2626 9.93559 37.2926 10.1145C37.312 10.2298 37.315 10.3471 37.3024 10.4624C37.3014 10.4773 37.3023 10.4912 37.3062 10.5041L37.3033 10.5031ZM38.6863 9.2587C38.5941 9.33922 38.3146 9.58274 38.0331 9.81731C37.8381 9.98429 37.6391 10.1483 37.5032 10.2586C37.5003 10.199 37.4945 10.1384 37.4838 10.0797C37.4537 9.89682 37.4169 9.73382 37.3848 9.58572C37.3577 9.46147 37.3334 9.35213 37.3159 9.24976L37.4829 9.10961C37.61 9.00326 37.7789 8.86013 37.9458 8.71401C38.1535 8.5361 38.3573 8.35519 38.4834 8.24387C38.5019 8.31842 38.5223 8.39793 38.5446 8.48341C38.5815 8.62555 38.6222 8.7816 38.6601 8.95654C38.6814 9.05792 38.6902 9.15831 38.6853 9.26069L38.6863 9.2587Z" fill="#BF692D"/>
<path d="M39.4202 7.86812C39.5833 8.05101 39.6716 8.30049 39.5998 8.58079C39.5998 8.58079 39.397 8.76368 39.1931 8.94756C38.9884 9.12846 38.7826 9.30936 38.7826 9.30936C38.7914 9.19307 38.7865 9.06883 38.7574 8.93464C38.6817 8.57582 38.5895 8.29553 38.5449 8.05399L38.8457 7.78066C39.0757 7.72698 39.2912 7.72201 39.4202 7.86713V7.86812Z" fill="#F5BC81"/>
<path d="M38.6884 9.3382C38.6961 9.36404 38.7136 9.38491 38.7379 9.39784C38.7738 9.41672 38.8165 9.41076 38.8465 9.38491L39.6647 8.65535C39.6792 8.64243 39.6899 8.62454 39.6948 8.60565C39.7695 8.3174 39.6948 8.02518 39.4929 7.79856C39.3114 7.59579 39.0242 7.63555 38.8233 7.68226C38.8077 7.68624 38.7922 7.6932 38.7796 7.70512L38.4787 7.97846C38.4525 8.00232 38.4409 8.0381 38.4467 8.07289C38.47 8.19912 38.504 8.33032 38.5447 8.4824C38.5816 8.62453 38.6224 8.78059 38.6602 8.95552C38.6845 9.06983 38.6922 9.18314 38.6835 9.30043C38.6825 9.31434 38.6835 9.32727 38.6874 9.33919L38.6884 9.3382ZM39.5104 8.52415L38.8805 9.08772C38.8757 9.02808 38.866 8.97043 38.8543 8.9108C38.8165 8.73288 38.7747 8.57384 38.7369 8.42873C38.7039 8.30349 38.6748 8.19216 38.6534 8.08979L38.8922 7.8731C39.1202 7.82341 39.2648 7.84229 39.3473 7.93473C39.4978 8.10271 39.557 8.31243 39.5113 8.52415H39.5104Z" fill="#BF692D"/>
<path d="M35.9672 11.5868C35.9672 11.5868 35.8741 11.6563 35.7353 11.7607C35.5975 11.8661 35.4092 12.0022 35.218 12.1364C35.0278 12.2706 34.8385 12.4058 34.6959 12.5062C34.5522 12.6066 34.4542 12.6692 34.4542 12.6692C34.4785 12.5549 34.4911 12.4296 34.4804 12.2925C34.4513 11.9247 34.396 11.6335 34.3824 11.387C34.3824 11.387 34.4746 11.3214 34.6124 11.224C34.7512 11.1275 34.9336 10.9953 35.1132 10.8582C35.2937 10.723 35.4742 10.5878 35.6101 10.4864C35.744 10.3821 35.8333 10.3125 35.8333 10.3125C35.8585 10.559 35.9294 10.8472 35.973 11.2091C35.9905 11.3442 35.9857 11.4705 35.9672 11.5858V11.5868Z" fill="#F5BC81"/>
<path d="M34.361 12.7004C34.3678 12.7212 34.3805 12.7391 34.3979 12.752C34.4299 12.7759 34.4736 12.7769 34.5076 12.755C34.5076 12.755 34.6075 12.6914 34.7522 12.589L35.2743 12.2183C35.4684 12.0821 35.6586 11.9449 35.7945 11.8406L36.0264 11.6676C36.0478 11.6517 36.0614 11.6289 36.0662 11.602C36.0876 11.4678 36.0895 11.3317 36.073 11.1965C36.0497 11.0096 36.0196 10.8397 35.9934 10.6906C35.9672 10.5445 35.9449 10.4192 35.9332 10.3019C35.9294 10.2652 35.907 10.2343 35.874 10.2194C35.841 10.2045 35.8032 10.2095 35.7751 10.2324L35.0569 10.776C34.8812 10.9092 34.6997 11.0424 34.559 11.1398L34.329 11.3038C34.3009 11.3237 34.2844 11.3575 34.2863 11.3923C34.2931 11.5195 34.3116 11.6587 34.331 11.8068C34.3494 11.9549 34.3707 12.1189 34.3853 12.3008C34.394 12.4171 34.3853 12.5304 34.361 12.6467C34.3572 12.6646 34.3581 12.6825 34.363 12.6994L34.361 12.7004ZM35.875 11.5305L35.6761 11.6786C35.5412 11.7819 35.3539 11.9181 35.1617 12.0523L34.6396 12.422C34.6192 12.436 34.5998 12.4499 34.5813 12.4628C34.5843 12.4042 34.5833 12.3445 34.5794 12.2849C34.5648 12.099 34.5435 11.932 34.5241 11.7809C34.5076 11.6537 34.493 11.5414 34.4853 11.438L34.6687 11.3078C34.8104 11.2094 34.9948 11.0752 35.1724 10.9401L35.7586 10.4987C35.7702 10.5713 35.7838 10.6488 35.7974 10.7273C35.8236 10.8745 35.8527 11.0404 35.875 11.2223C35.8876 11.3247 35.8886 11.4281 35.875 11.5295V11.5305Z" fill="#BF692D"/>
<path d="M37.3964 10.4743C37.3964 10.4743 37.0471 10.7615 36.687 11.0388C36.3328 11.3211 35.9669 11.5905 35.9669 11.5905C35.9853 11.4752 35.9902 11.3489 35.9727 11.2138C35.9281 10.852 35.8582 10.5627 35.833 10.3172C35.833 10.3172 36.1833 10.0478 36.5259 9.77053C36.6977 9.63138 36.8695 9.49223 36.9976 9.38786C37.1247 9.28151 37.2101 9.21094 37.2101 9.21094C37.246 9.45545 37.3266 9.73972 37.3867 10.0995C37.41 10.2337 37.411 10.36 37.3974 10.4762L37.3964 10.4743Z" fill="#F5BC81"/>
<path d="M35.8729 11.6209C35.8797 11.6437 35.8942 11.6636 35.9146 11.6765C35.9486 11.6984 35.9913 11.6964 36.0243 11.6726C36.0282 11.6696 36.396 11.3992 36.7483 11.1189C37.1035 10.8446 37.4548 10.5563 37.4587 10.5543C37.4791 10.5374 37.4926 10.5136 37.4946 10.4868C37.5101 10.3526 37.5062 10.2154 37.4829 10.0812C37.4529 9.89834 37.416 9.73533 37.384 9.58723C37.351 9.44012 37.3238 9.31289 37.3063 9.19561C37.3005 9.15982 37.2772 9.12901 37.2442 9.11609C37.2112 9.10317 37.1733 9.10913 37.1462 9.13199L36.4639 9.6906C36.1398 9.953 35.7982 10.2164 35.7739 10.2353C35.772 10.2363 35.771 10.2373 35.77 10.2383C35.7438 10.2601 35.7302 10.2939 35.7341 10.3277C35.7467 10.452 35.771 10.5871 35.7972 10.7313C35.8234 10.8784 35.8525 11.0444 35.8748 11.2263C35.8894 11.3426 35.8874 11.4598 35.869 11.5742C35.8671 11.5901 35.868 11.606 35.8729 11.6209ZM37.3024 10.4222C37.2073 10.4997 36.92 10.7333 36.6279 10.9579C36.427 11.1179 36.2213 11.274 36.0815 11.3793C36.0815 11.3197 36.0777 11.2601 36.0699 11.2004C36.0466 11.0136 36.0165 10.8436 35.9903 10.6945C35.969 10.5722 35.9496 10.4649 35.9369 10.3645C36.032 10.2969 36.2135 10.1518 36.5872 9.84864L37.1413 9.39638C37.1569 9.47193 37.1743 9.54946 37.1918 9.63096C37.2238 9.77608 37.2588 9.93611 37.2888 10.115C37.3063 10.2164 37.3112 10.3198 37.3024 10.4222Z" fill="#BF692D"/>
<path d="M31.2942 14.541C31.2942 14.541 31.1904 14.5927 31.0351 14.6702C30.8827 14.7527 30.6634 14.8372 30.4489 14.9306C30.2325 15.0201 30.0209 15.1165 29.854 15.1771C29.6861 15.2338 29.5745 15.2716 29.5745 15.2716C29.6337 15.1662 29.6822 15.0459 29.7113 14.9118C29.788 14.5529 29.8016 14.2428 29.8472 14.0003C29.8472 14.0003 29.9462 13.9586 30.0947 13.8949C30.2432 13.8313 30.4431 13.7528 30.6362 13.6504C30.8303 13.554 31.0244 13.4566 31.1709 13.384C31.3175 13.3135 31.4126 13.2578 31.4126 13.2578C31.3961 13.5103 31.4077 13.7965 31.3806 14.1663C31.3699 14.3035 31.3398 14.4277 31.2971 14.54L31.2942 14.541Z" fill="#F5BC81"/>
<path d="M29.4792 15.3009C29.4831 15.3128 29.4889 15.3247 29.4967 15.3347C29.5229 15.3675 29.5656 15.3804 29.6044 15.3665L29.8839 15.272C29.9945 15.2323 30.1216 15.1776 30.2575 15.119C30.3313 15.0872 30.408 15.0554 30.4846 15.0235C30.5487 14.9957 30.6108 14.9699 30.6729 14.944C30.8253 14.8804 30.9679 14.8198 31.0805 14.7592L31.3367 14.6319C31.359 14.621 31.3765 14.6011 31.3862 14.5773C31.4347 14.449 31.4648 14.3139 31.4765 14.1747C31.492 13.959 31.4949 13.7712 31.4978 13.6052C31.4998 13.4829 31.5017 13.3706 31.5085 13.2642C31.5114 13.2275 31.493 13.1917 31.4619 13.1718C31.4309 13.1519 31.392 13.1509 31.361 13.1698C31.359 13.1698 31.2678 13.2245 31.1261 13.2911L30.5894 13.5585C30.4303 13.6429 30.2643 13.7125 30.1314 13.7692L29.8062 13.9063C29.7762 13.9193 29.7538 13.9471 29.747 13.9809C29.7276 14.0823 29.714 14.1966 29.6985 14.3208C29.6781 14.4908 29.6548 14.6836 29.6112 14.8904C29.5859 15.0057 29.5442 15.117 29.486 15.2213C29.4714 15.2462 29.4685 15.276 29.4772 15.3019L29.4792 15.3009ZM31.2154 14.4669L30.9912 14.5783C30.8845 14.6359 30.7457 14.6945 30.5982 14.7562C30.5361 14.783 30.473 14.8089 30.4099 14.8367C30.3342 14.8685 30.2566 14.9013 30.1818 14.9331C30.0498 14.9898 29.9266 15.0424 29.8198 15.0802L29.7577 15.1011C29.7771 15.0454 29.7927 14.9898 29.8053 14.9321C29.8519 14.7164 29.8751 14.5186 29.8965 14.3447C29.9081 14.2463 29.9188 14.1558 29.9324 14.0713L30.2071 13.955C30.3439 13.8984 30.5137 13.8258 30.6797 13.7384L31.2125 13.473C31.2455 13.4571 31.2765 13.4412 31.3047 13.4272C31.3037 13.4829 31.3027 13.5406 31.3018 13.6002C31.2989 13.7632 31.296 13.9481 31.2804 14.1568C31.2717 14.2622 31.2503 14.3665 31.2164 14.4659L31.2154 14.4669Z" fill="#BF692D"/>
<path d="M34.4548 12.6728C34.4548 12.6728 34.0744 12.9253 33.694 13.1778C33.3038 13.4183 32.9137 13.6598 32.9137 13.6598C32.9447 13.5455 32.9632 13.4183 32.9622 13.2801C32.9564 12.9104 32.9195 12.6172 32.9195 12.3717C32.9195 12.3717 33.0127 12.314 33.1524 12.2265C33.2893 12.1351 33.4727 12.0128 33.6561 11.8906C34.0259 11.651 34.382 11.3906 34.382 11.3906C34.3956 11.6371 34.4509 11.9284 34.4801 12.2961C34.4907 12.4333 34.4781 12.5585 34.4539 12.6728H34.4548Z" fill="#F5BC81"/>
<path d="M32.8198 13.6896C32.8256 13.7095 32.8372 13.7264 32.8547 13.7393C32.8867 13.7641 32.9304 13.7671 32.9653 13.7452L33.7447 13.2642L34.5084 12.7572C34.5298 12.7423 34.5453 12.7205 34.5511 12.6946C34.5803 12.5585 34.59 12.4253 34.5793 12.2881C34.5647 12.1022 34.5434 11.9352 34.524 11.7842C34.5046 11.6341 34.4881 11.5039 34.4813 11.3846C34.4793 11.3478 34.458 11.315 34.425 11.2991C34.393 11.2832 34.3541 11.2862 34.325 11.3081C34.3221 11.311 33.9669 11.5695 33.6039 11.805L32.8693 12.2851C32.8392 12.304 32.8217 12.3358 32.8217 12.3716C32.8217 12.4948 32.8304 12.63 32.8402 12.7741C32.8499 12.9242 32.8615 13.0952 32.8644 13.2821C32.8654 13.4003 32.8508 13.5186 32.8188 13.6329C32.814 13.6518 32.814 13.6727 32.8198 13.6906V13.6896ZM34.3668 12.6101L33.6408 13.0922L33.0537 13.455C33.0595 13.3964 33.0624 13.3377 33.0614 13.2781C33.0585 13.0853 33.0469 12.9123 33.0372 12.7592C33.0294 12.636 33.0226 12.5276 33.0197 12.4273L33.3409 12.2215L33.7107 11.975C33.9368 11.8289 34.16 11.6728 34.2988 11.5734C34.3075 11.649 34.3173 11.7285 34.3279 11.81C34.3464 11.9581 34.3677 12.1221 34.3823 12.304C34.39 12.4074 34.3852 12.5078 34.3658 12.6101H34.3668Z" fill="#BF692D"/>
<path d="M28.8917 14.3479C28.8917 14.3479 29.1314 14.2674 29.3711 14.1869C29.4915 14.1501 29.6099 14.1024 29.6982 14.0626C29.7865 14.0248 29.8457 14 29.8457 14C29.8001 14.2415 29.7865 14.5526 29.7098 14.9115C29.6807 15.0456 29.6332 15.1649 29.573 15.2713L29.4197 15.323C28.9528 15.2166 28.7384 14.7316 28.8917 14.3489V14.3479Z" fill="#F5BC81"/>
<path d="M28.7813 14.8518C28.8706 15.1401 29.1016 15.3538 29.3976 15.4214C29.4151 15.4253 29.4335 15.4243 29.45 15.4184L29.6043 15.3667C29.6276 15.3587 29.647 15.3428 29.6587 15.321C29.7276 15.1987 29.7771 15.0685 29.8062 14.9323C29.8528 14.7166 29.8761 14.5188 29.8974 14.3449C29.912 14.2256 29.9246 14.1163 29.943 14.0189C29.9498 13.9821 29.9372 13.9443 29.9091 13.9215C29.8809 13.8976 29.8421 13.8917 29.8091 13.9066L29.6616 13.9692C29.548 14.0199 29.4393 14.0616 29.3442 14.0904L28.8619 14.2525C28.8347 14.2614 28.8124 14.2823 28.8017 14.3101C28.7338 14.4801 28.727 14.6729 28.7823 14.8528L28.7813 14.8518ZM29.4151 15.2166C29.2006 15.159 29.0346 15.0009 28.9696 14.7902C28.9327 14.6699 28.9318 14.5427 28.9677 14.4274L29.4015 14.2813C29.4976 14.2525 29.6053 14.2117 29.7198 14.161C29.713 14.2117 29.7072 14.2634 29.7004 14.3181C29.68 14.488 29.6567 14.6809 29.613 14.8876C29.5907 14.991 29.5548 15.0914 29.5053 15.1858L29.4151 15.2156V15.2166Z" fill="#BF692D"/>
<g style="mix-blend-mode:multiply">
<path d="M28.8914 14.3506C28.8914 14.3506 29.0631 14.2929 29.365 14.1905C29.5164 14.1468 29.6959 14.0643 29.9017 13.9778C30.0055 13.9341 30.1152 13.8874 30.2307 13.8377C30.3471 13.791 30.4684 13.7373 30.5927 13.6717C31.601 13.2025 32.8976 12.4322 34.133 11.5665C35.3723 10.7047 36.5573 9.75947 37.422 9.02692C38.2887 8.29536 38.8399 7.78248 38.8399 7.78248C39.0719 7.72682 39.2883 7.72086 39.4193 7.86697C39.4397 7.88983 39.4591 7.91468 39.4766 7.94052C39.4766 7.94052 38.9011 8.4872 37.9937 9.26249C37.0862 10.0358 35.844 11.0347 34.5377 11.9492C33.2353 12.8676 31.8591 13.6886 30.7702 14.1925C30.5014 14.3247 30.2433 14.4211 30.021 14.5195C29.9084 14.5663 29.8036 14.611 29.7066 14.6517C29.6066 14.6855 29.5144 14.7163 29.4319 14.7442C29.101 14.8555 28.9117 14.9191 28.9117 14.9191C28.8283 14.7412 28.8166 14.5344 28.8894 14.3506H28.8914Z" fill="#F5BC81"/>
</g>
<g style="mix-blend-mode:screen">
<path d="M29.0832 15.147C29.0832 15.147 29.2754 15.0824 29.6102 14.9701C29.78 14.9184 29.9761 14.8339 30.2002 14.7375C30.3128 14.6898 30.4322 14.6391 30.5593 14.5854C30.6865 14.5337 30.8185 14.4751 30.9504 14.4055C32.0393 13.8966 33.4077 13.0776 34.7014 12.1671C35.999 11.2596 37.2286 10.2716 38.1282 9.50627C39.0279 8.74093 39.6005 8.19922 39.6005 8.19922C39.6306 8.31452 39.6344 8.44174 39.6005 8.57394C39.6005 8.57394 39.0434 9.09279 38.1738 9.82732C37.3043 10.5629 36.1154 11.5121 34.8625 12.3888C33.6135 13.2684 32.2888 14.0626 31.2348 14.5695C31.1038 14.6341 30.9786 14.6957 30.8592 14.7544C30.736 14.8071 30.6185 14.8568 30.5089 14.9035C30.2886 14.9969 30.0964 15.0784 29.9382 15.145C29.6092 15.2573 29.4209 15.3219 29.4209 15.3219C29.287 15.2911 29.1735 15.2295 29.0822 15.148L29.0832 15.147Z" fill="#F5BC81"/>
</g>
<path d="M31.7957 12.8678C31.7957 12.8678 31.685 12.8937 31.5142 12.9185C31.3444 12.9453 31.1183 12.9811 30.8921 13.0179C30.667 13.0577 30.438 13.0845 30.2652 13.1014C30.0934 13.1193 29.9789 13.1322 29.9789 13.1322C30.0565 13.0418 30.1255 12.9354 30.1817 12.8102C30.3302 12.4712 30.4156 12.1989 30.5146 11.9673C30.5146 11.9673 30.9436 11.8987 31.3735 11.8301C31.8025 11.7446 32.2295 11.6602 32.2295 11.6602C32.148 11.8908 32.0849 12.18 31.9665 12.5289C31.9218 12.6591 31.8626 12.7714 31.7947 12.8688L31.7957 12.8678Z" fill="#F5BC81"/>
<path d="M29.8801 13.1279C29.8801 13.1448 29.883 13.1627 29.8908 13.1786C29.9092 13.2154 29.949 13.2373 29.9888 13.2323L30.2751 13.2015C30.4313 13.1866 30.6691 13.1597 30.9088 13.117L31.5299 13.0186C31.7037 12.9937 31.8172 12.9669 31.8172 12.9669C31.8405 12.9619 31.8619 12.947 31.8754 12.9271C31.9541 12.8148 32.0152 12.6916 32.0598 12.5614C32.122 12.3795 32.1685 12.2125 32.2093 12.0654C32.2491 11.9252 32.283 11.803 32.3219 11.6946C32.3345 11.6608 32.3277 11.6221 32.3044 11.5942C32.2811 11.5664 32.2452 11.5535 32.2103 11.5604L31.3543 11.7314L30.4993 11.8676C30.4653 11.8726 30.4372 11.8954 30.4246 11.9272C30.3819 12.0276 30.3411 12.135 30.2974 12.2532C30.2402 12.4053 30.1761 12.5783 30.0926 12.7691C30.0441 12.8774 29.981 12.9778 29.9053 13.0663C29.8898 13.0842 29.882 13.1061 29.8811 13.1289L29.8801 13.1279ZM31.7367 12.7771C31.692 12.786 31.6086 12.8019 31.5008 12.8178L30.8778 12.9172C30.6429 12.9589 30.411 12.9848 30.2566 12.9997L30.1907 13.0067C30.2207 12.957 30.2479 12.9053 30.2722 12.8506C30.3586 12.6538 30.4246 12.4779 30.4818 12.3228C30.5167 12.2284 30.5497 12.1399 30.5837 12.0574L31.3883 11.9292L32.0822 11.791C32.0608 11.8606 32.0404 11.9332 32.0191 12.0087C31.9783 12.1538 31.9317 12.3178 31.8725 12.4948C31.8386 12.5942 31.792 12.6886 31.7357 12.7771H31.7367Z" fill="#BF692D"/>
<path d="M38.7595 10.8258C38.7595 10.8258 38.3412 10.9888 37.9171 11.1389C37.4959 11.295 37.0699 11.4371 37.0699 11.4371C37.1213 11.3327 37.1621 11.2135 37.1854 11.0793C37.2485 10.7195 37.2679 10.4243 37.3154 10.1827C37.3154 10.1827 37.4183 10.145 37.5736 10.0893C37.7289 10.0336 37.9346 9.95909 38.1384 9.87957C38.5499 9.7265 38.9546 9.5625 38.9546 9.5625C38.9158 9.80403 38.909 10.1002 38.8614 10.464C38.844 10.6002 38.8071 10.7195 38.7605 10.8248L38.7595 10.8258Z" fill="#F5BC81"/>
<path d="M36.9716 11.4327C36.9707 11.4576 36.9794 11.4834 36.9959 11.5023C37.0211 11.5331 37.0629 11.545 37.1017 11.5331C37.1056 11.5311 37.5345 11.388 37.9518 11.2329C38.3711 11.0848 38.7913 10.9208 38.7952 10.9198C38.8195 10.9099 38.8389 10.891 38.8495 10.8671C38.9058 10.7419 38.9417 10.6137 38.9592 10.4775C38.9825 10.2966 38.9961 10.1326 39.0087 9.98352C39.0213 9.83045 39.033 9.69825 39.0514 9.57897C39.0572 9.5422 39.0436 9.50641 39.0155 9.48355C38.9883 9.46069 38.9505 9.45473 38.9175 9.46765C38.9175 9.46765 38.5128 9.63066 38.1032 9.78373C37.8985 9.86325 37.6937 9.93779 37.5394 9.99246L37.2812 10.0859C37.2482 10.0978 37.224 10.1266 37.2172 10.1614C37.1929 10.2857 37.1754 10.4238 37.158 10.5709C37.1395 10.719 37.1191 10.8811 37.0881 11.06C37.0677 11.1753 37.0318 11.2866 36.9813 11.391C36.9755 11.4039 36.9716 11.4178 36.9716 11.4317V11.4327ZM38.6855 10.7459C38.572 10.7896 38.2284 10.9208 37.8859 11.0431C37.6471 11.1315 37.4055 11.216 37.2414 11.2727C37.2589 11.215 37.2725 11.1564 37.2832 11.0977C37.3152 10.9158 37.3356 10.7499 37.355 10.5988C37.3705 10.4725 37.3841 10.3612 37.4025 10.2588L37.6063 10.1853C37.7616 10.1296 37.9683 10.0541 38.1731 9.97457C38.4274 9.88014 38.6787 9.78075 38.835 9.72012C38.8272 9.79665 38.8204 9.87815 38.8127 9.96662C38.8001 10.1137 38.7865 10.2747 38.7641 10.4517C38.7506 10.554 38.7253 10.6515 38.6865 10.7469L38.6855 10.7459Z" fill="#BF692D"/>
<path d="M39.8391 9.69635C39.9312 9.92496 39.9313 10.1913 39.7701 10.4289C39.7701 10.4289 39.5178 10.5303 39.2655 10.6317C39.0122 10.7301 38.7589 10.8285 38.7589 10.8285C38.8055 10.7221 38.8424 10.6028 38.8598 10.4677C38.9074 10.1039 38.9142 9.80767 38.953 9.56614L39.3266 9.41406C39.5615 9.44388 39.7643 9.51445 39.8381 9.69535L39.8391 9.69635Z" fill="#F5BC81"/>
<path d="M38.661 10.8241C38.6601 10.8509 38.6688 10.8767 38.6872 10.8966C38.7144 10.9264 38.7571 10.9364 38.794 10.9225L39.8062 10.5219C39.8247 10.5149 39.8402 10.502 39.8509 10.4851C40.0178 10.2396 40.045 9.93944 39.9305 9.65616C39.8276 9.40171 39.5442 9.33909 39.3394 9.31325C39.3239 9.31126 39.3064 9.31325 39.2909 9.31921L38.9172 9.47128C38.8852 9.48421 38.8619 9.51402 38.8561 9.54881C38.8357 9.67604 38.8241 9.81122 38.8115 9.96826C38.7988 10.1144 38.7853 10.2764 38.7629 10.4533C38.7474 10.5696 38.7173 10.678 38.6698 10.7853C38.664 10.7972 38.661 10.8101 38.661 10.8231V10.8241ZM39.7043 10.345L38.924 10.6551C38.9386 10.5974 38.9502 10.5398 38.958 10.4802C38.9813 10.2993 38.9949 10.1352 39.0075 9.98516C39.0182 9.85595 39.0279 9.74164 39.0424 9.63727L39.3394 9.51701C39.5704 9.54981 39.7004 9.61839 39.7461 9.73369C39.8315 9.94341 39.8169 10.1611 39.7034 10.345H39.7043Z" fill="#BF692D"/>
<path d="M35.3544 11.9895C35.3544 11.9895 35.2438 12.0223 35.0778 12.072C34.9128 12.1237 34.6906 12.1853 34.4664 12.245C34.2432 12.3056 34.02 12.3653 33.853 12.411C33.6851 12.4557 33.5716 12.4806 33.5716 12.4806C33.6327 12.3812 33.6861 12.2678 33.722 12.1356C33.8171 11.7798 33.8618 11.4856 33.9307 11.25C33.9307 11.25 34.0394 11.2202 34.2005 11.1765C34.3635 11.1347 34.579 11.0731 34.7925 11.0075C35.0069 10.9429 35.2224 10.8793 35.3835 10.8316C35.5436 10.7809 35.6514 10.7461 35.6514 10.7461C35.5931 10.9866 35.563 11.2828 35.4844 11.6377C35.4553 11.7709 35.4087 11.8872 35.3534 11.9895H35.3544Z" fill="#F5BC81"/>
<path d="M33.4736 12.475C33.4736 12.4969 33.4785 12.5188 33.4911 12.5367C33.5134 12.5705 33.5542 12.5864 33.593 12.5784C33.593 12.5784 33.7085 12.5536 33.8783 12.5078L34.4926 12.3418C34.7207 12.2822 34.9449 12.2186 35.107 12.1679L35.3826 12.0864C35.4078 12.0784 35.4282 12.0615 35.4418 12.0387C35.5058 11.9204 35.5544 11.7922 35.5825 11.659C35.6233 11.4751 35.6514 11.3051 35.6757 11.1551C35.6999 11.0089 35.7213 10.8827 35.7485 10.7694C35.7572 10.7336 35.7465 10.6968 35.7203 10.672C35.6941 10.6471 35.6572 10.6382 35.6233 10.6491L34.7673 10.9095C34.5577 10.9742 34.3432 11.0348 34.1782 11.0775L33.9074 11.1511C33.8744 11.16 33.8482 11.1859 33.8376 11.2197C33.8026 11.3409 33.7725 11.4791 33.7415 11.6252C33.7095 11.7713 33.6755 11.9323 33.6279 12.1083C33.5978 12.2206 33.5522 12.3239 33.4901 12.4243C33.4804 12.4402 33.4756 12.4571 33.4746 12.475H33.4736ZM35.2865 11.9035L35.0507 11.9741C34.8896 12.0238 34.6683 12.0864 34.4431 12.146L33.8288 12.312C33.8055 12.319 33.7822 12.3239 33.7609 12.3299C33.7832 12.2752 33.8017 12.2196 33.8182 12.1619C33.8667 11.982 33.9016 11.817 33.9336 11.6679C33.9598 11.5427 33.9841 11.4324 34.0113 11.332L34.2277 11.2733C34.3937 11.2306 34.611 11.169 34.8236 11.1034L35.5214 10.8936C35.5078 10.9662 35.4952 11.0427 35.4826 11.1223C35.4583 11.2694 35.4301 11.4363 35.3913 11.6153C35.369 11.7166 35.335 11.8131 35.2894 11.9045L35.2865 11.9035Z" fill="#BF692D"/>
<path d="M37.0694 11.438C37.0694 11.438 36.6453 11.5861 36.2154 11.7212C35.7883 11.8634 35.3545 11.9876 35.3545 11.9876C35.4098 11.8853 35.4564 11.769 35.4855 11.6358C35.5642 11.2799 35.5942 10.9837 35.6525 10.7442C35.6525 10.7442 36.0708 10.613 36.4861 10.4718C36.6938 10.4003 36.9015 10.3297 37.0568 10.276C37.2121 10.2204 37.3149 10.1836 37.3149 10.1836C37.2674 10.4261 37.248 10.7213 37.1849 11.0801C37.1616 11.2143 37.1208 11.3336 37.0694 11.438Z" fill="#F5BC81"/>
<path d="M35.2557 11.9832C35.2557 12.0071 35.2615 12.0309 35.2761 12.0498C35.3013 12.0816 35.3421 12.0955 35.3799 12.0846C35.3848 12.0836 35.8205 11.9574 36.2446 11.8162C36.6697 11.6821 37.0958 11.534 37.0996 11.533C37.1249 11.524 37.1453 11.5061 37.1559 11.4823C37.2151 11.361 37.2569 11.2318 37.2802 11.0976C37.3122 10.9157 37.3326 10.7497 37.352 10.5986C37.3704 10.4495 37.3869 10.3203 37.4092 10.203C37.416 10.1673 37.4044 10.1305 37.3772 10.1066C37.351 10.0828 37.3132 10.0758 37.2802 10.0877L36.4523 10.375C36.0602 10.5082 35.6517 10.6374 35.6226 10.6463C35.6206 10.6463 35.6187 10.6473 35.6177 10.6483C35.5857 10.6593 35.5614 10.6871 35.5536 10.7199C35.5245 10.8412 35.5022 10.9773 35.4789 11.1205C35.4547 11.2676 35.4265 11.4346 35.3877 11.6135C35.3625 11.7278 35.3227 11.8371 35.2664 11.9385C35.2586 11.9524 35.2547 11.9683 35.2538 11.9832H35.2557ZM36.9987 11.356C36.8842 11.3958 36.5358 11.5151 36.1864 11.6244C35.9438 11.7049 35.6982 11.7795 35.5333 11.8302C35.5527 11.7735 35.5692 11.7168 35.5818 11.6582C35.6225 11.4743 35.6507 11.3043 35.675 11.1543C35.6953 11.032 35.7128 10.9237 35.7342 10.8253C35.8458 10.7954 36.0651 10.7209 36.5164 10.5678L37.188 10.3362C37.1773 10.4128 37.1676 10.4923 37.1569 10.5738C37.1385 10.7219 37.1181 10.8839 37.087 11.0628C37.0696 11.1642 37.0395 11.2636 36.9977 11.356H36.9987Z" fill="#BF692D"/>
<path d="M29.9789 13.1337C29.9789 13.1337 29.8634 13.1456 29.6917 13.1645C29.5209 13.1883 29.286 13.1923 29.054 13.2042C28.8211 13.2122 28.5892 13.2301 28.4125 13.2281C28.2359 13.2221 28.1175 13.2191 28.1175 13.2191C28.2087 13.1406 28.2932 13.0452 28.365 12.9289C28.5562 12.6178 28.6726 12.3315 28.7959 12.1198C28.7959 12.1198 28.9026 12.1149 29.0628 12.1079C29.2239 12.1009 29.4374 12.095 29.6528 12.0662C29.8673 12.0433 30.0828 12.0194 30.2439 12.0025C30.405 11.9876 30.5127 11.9688 30.5127 11.9688C30.4137 12.2003 30.3283 12.4737 30.1798 12.8116C30.1235 12.9369 30.0536 13.0432 29.977 13.1337H29.9789Z" fill="#F5BC81"/>
<path d="M28.0196 13.2158C28.0196 13.2287 28.0205 13.2416 28.0254 13.2535C28.039 13.2933 28.0749 13.3201 28.1166 13.3211L28.4117 13.3301C28.5281 13.3301 28.6669 13.3241 28.8134 13.3172C28.893 13.3132 28.9755 13.3092 29.059 13.3062C29.1279 13.3022 29.1958 13.2993 29.2618 13.2963C29.4258 13.2893 29.5811 13.2824 29.7063 13.2645L29.9897 13.2347C30.0139 13.2317 30.0372 13.2197 30.0537 13.2009C30.1421 13.0975 30.2158 12.9802 30.2721 12.854C30.3585 12.6572 30.4245 12.4812 30.4817 12.3262C30.5244 12.2119 30.5642 12.1065 30.605 12.0091C30.6195 11.9753 30.6147 11.9355 30.5924 11.9057C30.57 11.8759 30.5332 11.862 30.4982 11.869C30.4963 11.869 30.3924 11.8878 30.2372 11.9018L29.6442 11.9654C29.4666 11.9892 29.287 11.9972 29.1434 12.0031L28.7921 12.019C28.7591 12.021 28.729 12.0389 28.7125 12.0687C28.6601 12.1572 28.6096 12.2596 28.5543 12.3709C28.4786 12.524 28.3932 12.6969 28.2826 12.8758C28.2205 12.9752 28.1438 13.0657 28.0545 13.1432C28.0322 13.1621 28.0206 13.1889 28.0196 13.2158ZM29.9295 13.0378L29.682 13.0647C29.5627 13.0816 29.4122 13.0875 29.2531 13.0945C29.1861 13.0975 29.1172 13.1005 29.0493 13.1044C28.9678 13.1074 28.8843 13.1114 28.8028 13.1154C28.6601 13.1223 28.5262 13.1293 28.4136 13.1283L28.3486 13.1263C28.3855 13.0816 28.4194 13.0339 28.4495 12.9842C28.565 12.7973 28.6533 12.6194 28.731 12.4633C28.7746 12.3749 28.8144 12.2934 28.8562 12.2188L29.1521 12.2059C29.2997 12.1999 29.4831 12.192 29.6685 12.1671L30.2575 12.1035C30.2944 12.0996 30.3284 12.0966 30.3594 12.0926C30.34 12.1443 30.3197 12.198 30.2993 12.2536C30.242 12.4057 30.178 12.5786 30.0945 12.7695C30.0508 12.8659 29.9965 12.9563 29.9315 13.0369L29.9295 13.0378Z" fill="#BF692D"/>
<path d="M33.573 12.4766C33.573 12.4766 33.1315 12.582 32.6899 12.6863C32.2425 12.7768 31.7961 12.8672 31.7961 12.8672C31.863 12.7698 31.9232 12.6575 31.9678 12.5273C32.0853 12.1774 32.1484 11.8892 32.2309 11.6586C32.2309 11.6586 32.3376 11.6367 32.4987 11.6029C32.6579 11.5642 32.8714 11.5135 33.0839 11.4628C33.5109 11.3674 33.9321 11.2461 33.9321 11.2461C33.8632 11.4827 33.8186 11.7759 33.7235 12.1317C33.6876 12.2639 33.6352 12.3772 33.573 12.4766Z" fill="#F5BC81"/>
<path d="M31.6968 12.8627C31.6968 12.8836 31.7016 12.9035 31.7123 12.9214C31.7346 12.9562 31.7744 12.9741 31.8142 12.9661L32.7071 12.7852L33.5941 12.5755C33.6193 12.5695 33.6407 12.5536 33.6552 12.5308C33.728 12.4135 33.7814 12.2912 33.8173 12.159C33.8658 11.9791 33.9008 11.8141 33.9328 11.665C33.9648 11.5169 33.992 11.3887 34.025 11.2744C34.0357 11.2386 34.026 11.2008 34.0007 11.175C33.9755 11.1492 33.9386 11.1382 33.9037 11.1482C33.8998 11.1492 33.4796 11.2694 33.0603 11.3639L32.2102 11.5587C32.1762 11.5656 32.149 11.5895 32.1364 11.6233C32.0947 11.7386 32.0588 11.8698 32.02 12.0079C31.9792 12.1531 31.9326 12.3171 31.8734 12.494C31.8356 12.6053 31.7822 12.7117 31.7143 12.8081C31.7036 12.824 31.6968 12.8439 31.6958 12.8627H31.6968ZM33.5097 12.3886L32.6673 12.5884L31.9947 12.7246C32.02 12.6719 32.0413 12.6172 32.0607 12.5616C32.1228 12.3797 32.1694 12.2127 32.2102 12.0656C32.2441 11.9473 32.2733 11.8429 32.3043 11.7475L32.675 11.666L33.105 11.5626C33.366 11.504 33.6281 11.4354 33.7911 11.3907C33.7736 11.4652 33.7571 11.5428 33.7397 11.6233C33.7077 11.7694 33.6737 11.9304 33.6261 12.1063C33.599 12.2057 33.5611 12.2992 33.5087 12.3886H33.5097Z" fill="#BF692D"/>
<path d="M27.7846 12.1143C27.7846 12.1143 28.037 12.1222 28.2893 12.1302C28.4145 12.1381 28.5416 12.1332 28.6387 12.1272C28.7338 12.1222 28.7979 12.1192 28.7979 12.1192C28.6746 12.331 28.5581 12.6172 28.3669 12.9283C28.2951 13.0446 28.2097 13.14 28.1195 13.2186L27.9574 13.2136C27.5537 12.9512 27.5129 12.4194 27.7856 12.1133L27.7846 12.1143Z" fill="#F5BC81"/>
<path d="M27.5128 12.5485C27.5012 12.8506 27.6467 13.1319 27.9029 13.2989C27.9185 13.3088 27.9359 13.3138 27.9534 13.3148L28.1155 13.3198C28.1397 13.3198 28.164 13.3118 28.1824 13.2959C28.2872 13.2055 28.3775 13.0991 28.4503 12.9818C28.5658 12.795 28.6541 12.617 28.7317 12.461C28.7851 12.3536 28.8336 12.2552 28.8831 12.1698C28.9016 12.138 28.9016 12.0982 28.8831 12.0664C28.8647 12.0346 28.8298 12.0157 28.7939 12.0167L28.6337 12.0246C28.5105 12.0326 28.394 12.0336 28.295 12.0276L27.7874 12.0117C27.7593 12.0117 27.7312 12.0227 27.7117 12.0445C27.5914 12.1797 27.5206 12.3596 27.5128 12.5485ZM27.9874 13.112C27.8049 12.9828 27.7011 12.7771 27.7108 12.5564C27.7156 12.4302 27.7574 12.3109 27.8292 12.2145L28.2853 12.2284C28.3853 12.2354 28.4998 12.2344 28.625 12.2264C28.6017 12.2711 28.5784 12.3189 28.5541 12.3676C28.4784 12.5206 28.393 12.6936 28.2824 12.8725C28.2271 12.9619 28.1592 13.0434 28.0825 13.115L27.9874 13.112Z" fill="#BF692D"/>
<g style="mix-blend-mode:multiply">
<path d="M27.7835 12.1156C27.7835 12.1156 27.965 12.1206 28.2814 12.1306C28.4386 12.1425 28.6347 12.1266 28.8569 12.1176C28.9685 12.1127 29.0879 12.1067 29.2131 12.1017C29.3383 12.0978 29.4703 12.0898 29.6081 12.0719C30.7125 11.9825 32.1867 11.7111 33.6366 11.3284C35.0885 10.9507 36.517 10.4756 37.5739 10.089C38.6327 9.70331 39.3208 9.41406 39.3208 9.41406C39.5576 9.44289 39.7634 9.51246 39.8371 9.69635C39.8488 9.72517 39.8585 9.75499 39.8672 9.78481C39.8672 9.78481 39.1442 10.0979 38.0339 10.5104C36.9237 10.9209 35.4233 11.4258 33.8909 11.8304C32.3604 12.2389 30.794 12.5311 29.6022 12.6246C29.3053 12.6544 29.0316 12.6554 28.789 12.6703C28.6677 12.6752 28.5541 12.6802 28.4493 12.6842C28.3435 12.6812 28.2474 12.6772 28.1611 12.6752C27.8127 12.6643 27.6137 12.6583 27.6137 12.6583C27.5943 12.4615 27.6525 12.2637 27.7816 12.1166L27.7835 12.1156Z" fill="#F5BC81"/>
</g>
<g style="mix-blend-mode:screen">
<path d="M27.6983 12.9329C27.6983 12.9329 27.9002 12.9399 28.2525 12.9508C28.4291 12.9617 28.6417 12.9508 28.8843 12.9379C29.0066 12.9329 29.1356 12.926 29.2725 12.92C29.4093 12.916 29.5529 12.9061 29.7005 12.8872C30.8932 12.7888 32.4518 12.4966 33.9716 12.091C35.4933 11.6905 36.9782 11.1915 38.0788 10.786C39.1793 10.3804 39.8984 10.0703 39.8984 10.0703C39.8887 10.1886 39.8489 10.3099 39.7732 10.4222C39.7732 10.4222 39.0764 10.7154 38.0147 11.103C36.953 11.4907 35.5196 11.9688 34.0493 12.3554C32.5819 12.747 31.0727 13.0313 29.913 13.1397C29.7684 13.1546 29.6306 13.1695 29.4986 13.1834C29.3647 13.1894 29.2385 13.1953 29.1191 13.2013C28.8814 13.2122 28.6737 13.2222 28.5029 13.2291C28.1564 13.2202 27.9584 13.2152 27.9584 13.2152C27.8429 13.1397 27.7566 13.0422 27.6983 12.9329Z" fill="#F5BC81"/>
</g>
<path d="M32.9933 9.37913C33.0117 9.35627 33.0292 9.36919 33.0108 9.39304C32.9923 9.4169 32.9477 9.54214 32.9622 9.57792C33.0292 9.56202 33.0991 9.55406 33.169 9.55208C33.1758 9.54412 33.1845 9.53816 33.1893 9.54413C33.1913 9.54611 33.1923 9.54909 33.1942 9.55108C33.2039 9.55108 33.2146 9.55009 33.2243 9.55009C33.2495 9.49443 33.2738 9.44075 33.3165 9.39404C33.3349 9.37416 33.3427 9.39602 33.3291 9.41193C33.2951 9.45367 33.2796 9.50337 33.2602 9.55108C33.2786 9.55307 33.298 9.55108 33.3165 9.55406C33.332 9.52027 33.3466 9.48647 33.3708 9.45566C33.3873 9.43578 33.4019 9.44771 33.3863 9.46759C33.366 9.49542 33.3553 9.52623 33.3437 9.55705C33.3728 9.56301 33.4009 9.57096 33.4281 9.57991C33.4533 9.52921 33.4815 9.48151 33.5242 9.44175C33.5426 9.42485 33.5426 9.44771 33.531 9.45964C33.4941 9.4984 33.4737 9.54313 33.4533 9.58885C33.4795 9.59979 33.5057 9.61271 33.529 9.62861C33.5319 9.62563 33.5358 9.62265 33.5387 9.62066C33.5591 9.60078 33.5707 9.58985 33.5931 9.57394C33.6018 9.56699 33.6377 9.55804 33.6406 9.55208C33.6426 9.54711 33.6581 9.52524 33.6639 9.53717C33.6649 9.53915 33.6659 9.54114 33.6668 9.54313C33.6717 9.55208 33.66 9.56599 33.6552 9.57196C33.6426 9.58488 33.6309 9.59581 33.6164 9.60476C33.595 9.61768 33.5766 9.63458 33.5591 9.65247C33.5698 9.66141 33.5824 9.66837 33.5921 9.6793C33.595 9.68228 33.597 9.68626 33.5979 9.68924C33.6387 9.66241 33.6833 9.64054 33.728 9.62762C33.7416 9.62364 33.726 9.65048 33.7202 9.65346C33.6833 9.67036 33.6474 9.69222 33.6125 9.7131C33.6397 9.78367 33.596 9.87412 33.5688 9.93376C33.4688 10.1524 33.2456 10.5928 33.3514 10.8482C33.3514 10.8482 33.3504 10.8502 33.3504 10.8512C33.4494 10.8452 33.5533 10.8591 33.6571 10.9049C33.8648 10.9943 33.9211 11.3074 33.893 11.5042C33.8803 11.5897 33.8638 11.7537 33.8134 11.861C33.8017 11.9058 33.7949 11.9455 33.8143 11.9535C33.8192 11.9555 33.8134 11.9624 33.8114 11.9634C33.8085 11.9654 33.8056 11.9664 33.8027 11.9684C33.8027 11.9704 33.8027 11.9734 33.8017 11.9773C33.9609 12.1562 34.0735 12.3709 34.1259 12.6373C34.1608 12.8113 34.1113 13.177 33.9784 13.3122C33.8541 13.4385 33.7086 13.3967 33.5795 13.3092C33.6241 13.9265 33.2097 14.671 32.6866 14.9383C32.6517 14.9562 32.6168 14.9632 32.5828 14.9662C32.5411 15.0377 32.4867 15.0954 32.4178 15.1401C32.3964 15.154 32.4071 15.1222 32.4178 15.1143C32.4751 15.0735 32.5168 15.0228 32.5566 14.9672C32.543 14.9672 32.5294 14.9692 32.5148 14.9672C32.4896 14.995 32.4624 15.0218 32.4324 15.0467C32.3906 15.0805 32.3343 15.1351 32.279 15.1411C32.2664 15.1461 32.28 15.1173 32.2878 15.1133C32.3576 15.0825 32.4207 15.0248 32.476 14.9652C32.3945 14.9483 32.3159 14.9036 32.2431 14.8479C32.2072 14.9016 32.1616 14.9453 32.1053 14.9771C32.0878 14.987 32.1004 14.9562 32.1082 14.9503C32.1567 14.9185 32.1926 14.8787 32.2266 14.833C32.1946 14.8061 32.1645 14.7773 32.1354 14.7475C32.0937 14.7992 32.0296 14.8409 31.9733 14.8608C31.9578 14.8668 31.9743 14.832 31.984 14.829C32.0296 14.8091 32.0781 14.7684 32.116 14.7276C32.081 14.6908 32.051 14.6531 32.0218 14.6163C31.9908 14.6461 31.9568 14.671 31.919 14.6938C31.9005 14.7048 31.9131 14.67 31.9228 14.664C31.9539 14.6431 31.982 14.6223 32.0082 14.5984C31.9985 14.5855 31.9879 14.5716 31.9791 14.5596C31.9355 14.5974 31.8801 14.6252 31.8258 14.6332C31.8083 14.6352 31.8277 14.6064 31.8326 14.6024C31.8413 14.5964 31.8472 14.5924 31.8559 14.5875C31.8598 14.5855 31.8617 14.5865 31.8617 14.5885C31.8966 14.5716 31.9267 14.5487 31.9568 14.5258C31.9432 14.501 31.9374 14.4722 31.9374 14.4433C31.9015 14.4602 31.8675 14.4702 31.8239 14.4752C31.8025 14.4781 31.8268 14.4354 31.8404 14.4334C31.8763 14.4274 31.9083 14.4175 31.9403 14.4066C31.9442 14.3847 31.951 14.3628 31.9617 14.344C31.9782 14.3141 32.0102 14.2913 32.0325 14.2694C32.1616 14.1462 32.2664 14.002 32.3508 13.845C32.2014 13.9076 32.0432 13.9205 31.8801 13.8301C31.6841 13.7207 31.5958 13.4166 31.6763 13.2118C31.7938 12.9166 32.0403 12.7059 32.2363 12.4644C31.8627 12.2964 31.391 12.2059 31.1765 11.8372C30.8378 11.2557 31.8112 11.0768 32.1218 11.1166C32.1946 11.1255 32.2674 11.1424 32.3392 11.1613C32.2324 10.9506 32.3062 10.5749 32.3372 10.3751C32.3732 10.1494 32.4624 9.93177 32.6177 9.77273C32.5585 9.74093 32.5857 9.57295 32.6255 9.52623C32.64 9.51033 32.6507 9.51828 32.6391 9.53617C32.6061 9.58388 32.6488 9.67632 32.6594 9.72801C32.6594 9.729 32.6594 9.73099 32.6594 9.73298C32.6837 9.71111 32.708 9.69123 32.7351 9.67334C32.74 9.67036 32.7449 9.66837 32.7497 9.66539C32.7497 9.59482 32.7458 9.52921 32.7953 9.47057C32.8128 9.4497 32.8273 9.46163 32.8118 9.48349C32.7837 9.52424 32.8011 9.58488 32.805 9.63358C32.838 9.61768 32.873 9.60376 32.9098 9.59283C32.9351 9.51629 32.939 9.43877 32.9933 9.37615V9.37913Z" fill="#BF692D"/>
<path d="M33.2929 9.64069C33.2735 9.63771 33.2541 9.63871 33.2347 9.63672C33.2502 9.67051 33.2744 9.7063 33.289 9.73611C33.3239 9.8047 33.3744 9.8703 33.422 9.92894C33.4385 9.94982 33.4608 9.96273 33.4812 9.97665C33.5248 9.81165 33.5132 9.66753 33.2919 9.6397L33.2929 9.64069Z" fill="#F5BC81"/>
<path d="M33.232 10.9337C33.0709 10.9596 32.9555 11.0739 32.8633 11.2021C33.0991 11.1792 33.3737 11.1206 33.563 10.9675C33.4591 10.9228 33.332 10.9178 33.232 10.9347V10.9337Z" fill="#F5BC81"/>
<path d="M33.6898 11.0611C33.6587 11.0224 33.619 10.9935 33.5743 10.9727C33.3792 11.1486 33.0803 11.2301 32.828 11.2539C32.8125 11.2778 32.7969 11.3017 32.7834 11.3255C32.7834 11.3265 32.7804 11.3285 32.7795 11.3295C32.9629 11.415 33.1395 11.5134 33.3094 11.6028C33.3831 11.5998 33.4879 11.5581 33.5297 11.5452C33.6054 11.5223 33.6743 11.4905 33.7373 11.4428C33.7684 11.4199 33.7927 11.3921 33.8228 11.3702C33.8072 11.2619 33.7674 11.1615 33.6898 11.0611Z" fill="#F5BC81"/>
<path d="M32.8582 11.457C32.997 11.6012 33.1028 11.7503 33.1756 11.9739C33.226 12.1289 33.227 12.2959 33.2406 12.457C33.2542 12.6279 33.2949 12.7691 33.2862 12.94C33.3823 13.0166 33.4735 13.0971 33.5531 13.1855C33.588 13.2114 33.6249 13.2352 33.6618 13.2541C33.8957 13.0663 33.7414 12.3804 33.6598 12.1697C33.5997 12.0136 33.4929 11.8795 33.3949 11.7443C33.2348 11.635 33.0484 11.5385 32.8582 11.457Z" fill="#F5BC81"/>
<path d="M33.821 11.6043C33.8317 11.5278 33.8317 11.4582 33.8249 11.3906C33.7473 11.4831 33.6677 11.5417 33.5502 11.5844C33.5367 11.5894 33.4483 11.6172 33.3688 11.6302C33.3717 11.6341 33.3756 11.6391 33.3794 11.6431C33.5211 11.7236 33.6473 11.8141 33.7531 11.9204C33.7968 11.8329 33.8074 11.6968 33.822 11.6043H33.821Z" fill="#F5BC81"/>
<path d="M33.9869 13.1097C34.1199 12.6336 33.9898 12.3503 33.6967 12.0074C33.6531 11.9577 33.6036 11.909 33.5492 11.8633C33.6793 12.0621 33.7685 12.2907 33.7986 12.5292C33.8239 12.724 33.8675 13.1216 33.6783 13.2658C33.8044 13.3274 33.9267 13.3234 33.9869 13.1107V13.1097Z" fill="#F5BC81"/>
<path d="M33.4814 13.6151C33.4891 13.5714 33.5376 13.3895 33.5435 13.2891C33.4648 13.2305 33.395 13.1579 33.3406 13.1012C33.3367 13.0963 33.3377 13.0893 33.3406 13.0814C33.3047 13.0555 33.2659 13.0327 33.229 13.0078C33.2096 13.0983 33 13.305 32.968 13.3487C32.8932 13.4501 32.8001 13.5376 32.703 13.6171C32.8321 13.6489 32.9582 13.6718 33.0941 13.6748C33.1223 13.6748 33.3862 13.633 33.4784 13.6241C33.4784 13.6211 33.4794 13.6181 33.4804 13.6151H33.4814Z" fill="#F5BC81"/>
<path d="M32.2002 14.6609C32.5574 15.1082 32.997 14.6778 33.2231 14.3309C33.0766 14.3906 32.8806 14.3956 32.7369 14.3975C32.5419 14.4005 32.3041 14.3826 32.1294 14.2872C32.1275 14.2862 32.1275 14.2842 32.1275 14.2812C32.0071 14.4164 32.078 14.5069 32.2002 14.6599V14.6609Z" fill="#F5BC81"/>
<path d="M32.4236 13.8095C32.3867 13.9248 32.3411 14.0271 32.2693 14.1325C32.245 14.1693 32.212 14.2021 32.179 14.2309C32.1693 14.2389 32.1625 14.2468 32.1547 14.2548C32.3129 14.2866 32.4634 14.3174 32.6254 14.3333C32.804 14.3502 33.067 14.3571 33.2533 14.2856C33.2572 14.2786 33.2621 14.2717 33.2669 14.2647C33.3785 14.0768 33.4348 13.8621 33.4756 13.6484C33.1971 13.7369 32.9243 13.7538 32.6439 13.6624C32.6332 13.6703 32.6225 13.6793 32.6118 13.6872C32.5517 13.7339 32.4886 13.7757 32.4236 13.8105V13.8095Z" fill="#F5BC81"/>
<path d="M31.7914 13.5428C31.8981 13.835 32.1893 13.8211 32.4251 13.7187C32.4348 13.7108 32.4445 13.7048 32.4494 13.7068C32.4581 13.7028 32.4659 13.6979 32.4746 13.6939C32.2465 13.7048 31.9486 13.6561 31.7778 13.4961C31.7826 13.512 31.7856 13.5269 31.7914 13.5428Z" fill="#F5BC81"/>
<path d="M31.7559 13.3821C31.9384 13.5958 32.2586 13.6674 32.5304 13.6634C32.5585 13.6475 32.5857 13.6306 32.6109 13.6117C32.7293 13.5242 32.8361 13.4199 32.936 13.3095C32.5275 13.3404 32.2082 13.236 31.8889 12.9766C31.8044 13.0988 31.7443 13.228 31.7559 13.3811V13.3821Z" fill="#F5BC81"/>
<path d="M31.9196 12.9353C32.0613 13.0427 32.1855 13.1381 32.3573 13.2057C32.5466 13.2792 32.7552 13.2872 32.9561 13.2892C33.0425 13.1928 33.124 13.0914 33.2026 12.989C33.1075 12.9274 33.0095 12.8717 32.9105 12.817C32.8814 12.817 32.8523 12.816 32.83 12.8131C32.7407 12.8021 32.6553 12.7872 32.5679 12.7644C32.4602 12.7365 32.2787 12.6948 32.1826 12.6133C32.0992 12.7226 32.0021 12.826 31.9206 12.9343L31.9196 12.9353Z" fill="#F5BC81"/>
<path d="M32.2166 12.5649C32.3302 12.6533 32.5175 12.6981 32.6466 12.7329C32.7029 12.7478 32.7591 12.7577 32.8164 12.7667C32.6602 12.6832 32.5 12.6037 32.3428 12.5192C32.3195 12.5072 32.2943 12.4963 32.27 12.4844C32.2535 12.5122 32.2351 12.538 32.2157 12.5639L32.2166 12.5649Z" fill="#F5BC81"/>
<path d="M31.3956 11.9542C31.5188 12.0863 31.8216 12.1698 32.0283 12.2464C31.9128 12.1092 31.809 11.9601 31.6916 11.8249C31.5673 11.6828 31.4266 11.5725 31.2898 11.4492C31.1995 11.5764 31.2034 11.7474 31.3965 11.9542H31.3956Z" fill="#F5BC81"/>
<path d="M31.325 11.4068C31.4599 11.4615 31.5803 11.6155 31.6725 11.7159C31.8316 11.8889 31.9568 12.0837 32.0927 12.2745C32.0995 12.2775 32.1063 12.2805 32.1131 12.2825C32.3043 12.366 32.5071 12.4574 32.7051 12.5628C32.6274 12.3471 32.5401 12.1463 32.4285 11.9396C32.2538 11.6175 32.0403 11.4396 31.7841 11.207C31.6065 11.2309 31.4289 11.3005 31.325 11.4088V11.4068Z" fill="#F5BC81"/>
<path d="M32.07 11.2079C32.0059 11.196 31.9351 11.193 31.8623 11.197C32.3155 11.4733 32.6532 12.0587 32.7425 12.5816C32.9269 12.681 33.1045 12.7933 33.2656 12.9205C33.2249 12.6253 33.1948 12.3082 33.122 12.023C33.0511 11.7437 32.8541 11.5926 32.6969 11.3868C32.4727 11.3033 32.2515 11.2417 32.07 11.2069V11.2079Z" fill="#F5BC81"/>
<path d="M32.4556 11.1966C32.5274 11.2215 32.5983 11.2523 32.6701 11.2821C32.673 11.2821 32.6759 11.2801 32.6778 11.2821C32.6798 11.2841 32.6817 11.2861 32.6846 11.2871C32.7079 11.297 32.7322 11.305 32.7555 11.3159C32.7982 11.2105 32.8584 11.1211 32.9302 11.0495C32.7817 11.0445 32.6681 10.9799 32.5497 10.8855C32.4915 10.8388 32.4071 10.7603 32.3663 10.6758C32.3585 10.8597 32.3789 11.0465 32.4556 11.1966Z" fill="#F5BC81"/>
<path d="M32.4071 10.3402C32.3955 10.3988 32.3848 10.4624 32.378 10.528C32.378 10.528 32.3799 10.528 32.3799 10.529C32.4236 10.6652 32.511 10.7646 32.6187 10.854C32.6769 10.9017 32.7448 10.9425 32.8099 10.9783C32.8312 10.9902 32.9341 11.0041 32.9496 11.03C33.0554 10.9316 33.1845 10.8689 33.3252 10.855C33.2854 10.7944 33.2825 10.7179 33.2912 10.6383C33.0865 10.6294 32.8972 10.4266 32.7807 10.2736C32.7128 10.1841 32.6129 9.95847 32.6313 9.82031C32.4993 9.9545 32.443 10.1553 32.4071 10.3402Z" fill="#F5BC81"/>
<path d="M32.7952 9.70935C32.7438 9.73022 32.7011 9.76004 32.6623 9.79383C32.6264 9.95187 32.8263 10.2282 32.9117 10.3196C32.9748 10.3882 33.0446 10.4489 33.1165 10.5065C33.1669 10.5473 33.2455 10.5791 33.2931 10.6238C33.3047 10.5413 33.329 10.4588 33.3426 10.3922C33.3639 10.2888 33.428 10.1527 33.4678 10.0244C33.4406 10.0095 33.4115 9.9966 33.3862 9.97473C33.3367 9.93299 33.2989 9.87037 33.262 9.81769C33.2242 9.76203 33.1902 9.69841 33.1708 9.63281C33.0427 9.63281 32.9126 9.66064 32.7952 9.70935Z" fill="#F5BC81"/>
<g style="mix-blend-mode:multiply">
<path d="M32.9935 9.37913C33.0119 9.35627 33.0294 9.36919 33.011 9.39304C32.9925 9.4169 32.9479 9.54214 32.9624 9.57792C33.0294 9.56202 33.0993 9.55406 33.1691 9.55208C33.1759 9.54412 33.1847 9.53816 33.1895 9.54413C33.1915 9.54611 33.1924 9.54909 33.1944 9.55108C33.2041 9.55108 33.2148 9.55009 33.2245 9.55009C33.2497 9.49443 33.274 9.44075 33.3167 9.39404C33.3351 9.37416 33.3429 9.39602 33.3293 9.41193C33.2953 9.45367 33.2798 9.50337 33.2604 9.55108C33.2788 9.55307 33.2982 9.55108 33.3167 9.55406C33.3322 9.52027 33.3468 9.48647 33.371 9.45566C33.3875 9.43578 33.4021 9.44771 33.3865 9.46759C33.3662 9.49542 33.3555 9.52623 33.3438 9.55705C33.373 9.56301 33.4011 9.57096 33.4283 9.57991C33.4535 9.52921 33.4816 9.48151 33.5243 9.44175C33.5428 9.42485 33.5428 9.44771 33.5311 9.45964C33.4943 9.4984 33.4739 9.54313 33.4535 9.58885C33.4797 9.59979 33.5059 9.61271 33.5292 9.62861C33.5321 9.62563 33.536 9.62265 33.5389 9.62066C33.5593 9.60078 33.5709 9.58985 33.5932 9.57394C33.602 9.56699 33.6379 9.55804 33.6408 9.55208C33.6427 9.54711 33.6583 9.52524 33.6641 9.53717C33.6651 9.53915 33.666 9.54114 33.667 9.54313C33.6719 9.55208 33.6602 9.56599 33.6554 9.57196C33.6427 9.58488 33.6311 9.59581 33.6165 9.60476C33.5952 9.61768 33.5768 9.63458 33.5593 9.65247C33.57 9.66141 33.5826 9.66837 33.5923 9.6793C33.5952 9.68228 33.5971 9.68626 33.5981 9.68924C33.6389 9.66241 33.6835 9.64054 33.7281 9.62762C33.7417 9.62364 33.7262 9.65048 33.7204 9.65346C33.6835 9.67036 33.6476 9.69222 33.6127 9.7131C33.6398 9.78367 33.5962 9.87412 33.569 9.93376C33.469 10.1524 33.2458 10.5928 33.3516 10.8482C33.3516 10.8482 33.3506 10.8502 33.3506 10.8512C33.4496 10.8452 33.5535 10.8591 33.6573 10.9049C33.7049 10.9257 33.7437 10.9585 33.7757 10.9983C33.6195 11.0361 33.4875 11.1812 33.4661 11.3501C33.4389 11.5648 33.6078 11.7954 33.7514 11.9356C33.7699 11.9545 33.7912 11.9604 33.8116 11.9624L33.8106 11.9644C33.8077 11.9664 33.8048 11.9674 33.8019 11.9694C33.8019 11.9714 33.8019 11.9744 33.8009 11.9783C33.9125 12.1046 33.9989 12.2487 34.061 12.4147C33.8572 12.1145 33.5049 11.9068 33.1682 11.7805C32.9255 11.6891 32.0832 11.3829 31.8755 11.7288C31.7949 11.861 31.958 11.9903 32.057 12.041C32.383 12.2069 32.7402 12.3024 33.0556 12.4932C33.3526 12.6721 33.4807 12.9305 33.7291 13.1472C33.8165 13.2228 33.9028 13.2705 33.998 13.2874C33.9912 13.2963 33.9853 13.3063 33.9776 13.3132C33.8534 13.4394 33.7078 13.3977 33.5787 13.3102C33.5865 13.4166 33.5787 13.5269 33.5612 13.6382C33.535 13.51 33.4855 13.3878 33.3933 13.2804C33.1449 12.9912 32.9983 13.5687 32.9129 13.6979C32.7771 13.9016 32.6072 14.0726 32.4655 14.2704C32.3889 14.3787 32.3073 14.5219 32.3627 14.66C32.4432 14.8598 32.6131 14.9055 32.7877 14.8797C32.7547 14.9006 32.7198 14.9214 32.6849 14.9393C32.6499 14.9572 32.615 14.9642 32.581 14.9672C32.5393 15.0387 32.4849 15.0964 32.416 15.1411C32.3947 15.155 32.4054 15.1232 32.416 15.1153C32.4733 15.0745 32.515 15.0238 32.5548 14.9682C32.5412 14.9682 32.5276 14.9701 32.5131 14.9682C32.4879 14.996 32.4607 15.0228 32.4306 15.0477C32.3889 15.0815 32.3326 15.1361 32.2773 15.1421C32.2646 15.1471 32.2782 15.1182 32.286 15.1143C32.3559 15.0835 32.419 15.0258 32.4743 14.9662C32.3928 14.9493 32.3141 14.9045 32.2414 14.8489C32.2054 14.9026 32.1598 14.9463 32.1035 14.9781C32.0861 14.988 32.0987 14.9572 32.1065 14.9513C32.155 14.9195 32.1909 14.8797 32.2249 14.834C32.1928 14.8071 32.1627 14.7783 32.1336 14.7485C32.0919 14.8002 32.0278 14.8419 31.9716 14.8618C31.956 14.8678 31.9725 14.833 31.9822 14.83C32.0278 14.8101 32.0764 14.7694 32.1142 14.7286C32.0793 14.6918 32.0492 14.6541 32.0201 14.6173C31.989 14.6471 31.9551 14.672 31.9172 14.6948C31.8988 14.7058 31.9114 14.671 31.9211 14.665C31.9521 14.6441 31.9803 14.6233 32.0065 14.5994C31.9968 14.5865 31.9861 14.5726 31.9774 14.5606C31.9337 14.5984 31.8784 14.6262 31.824 14.6342C31.8066 14.6362 31.826 14.6074 31.8308 14.6034C31.8396 14.5974 31.8454 14.5934 31.8541 14.5885C31.858 14.5865 31.8599 14.5875 31.8599 14.5895C31.8949 14.5726 31.925 14.5497 31.9551 14.5268C31.9415 14.502 31.9356 14.4732 31.9356 14.4443C31.8997 14.4612 31.8658 14.4712 31.8221 14.4761C31.8007 14.4791 31.825 14.4364 31.8386 14.4344C31.8745 14.4284 31.9065 14.4185 31.9386 14.4076C31.9424 14.3857 31.9492 14.3638 31.9599 14.3449C31.9764 14.3151 32.0084 14.2923 32.0308 14.2704C32.1598 14.1471 32.2646 14.003 32.3491 13.846C32.1996 13.9086 32.0414 13.9215 31.8784 13.8311C31.6824 13.7217 31.594 13.4176 31.6746 13.2128C31.792 12.9176 32.0385 12.7069 32.2346 12.4654C31.8609 12.2974 31.3893 12.2069 31.1748 11.8382C30.8361 11.2567 31.8095 11.0778 32.12 11.1176C32.1928 11.1265 32.2656 11.1434 32.3374 11.1623C32.2307 10.9516 32.3044 10.5759 32.3355 10.3761C32.3714 10.1504 32.4607 9.93276 32.616 9.77373C32.5568 9.74192 32.5839 9.57394 32.6237 9.52723C32.6383 9.51132 32.649 9.51928 32.6373 9.53717C32.6043 9.58488 32.647 9.67731 32.6577 9.729C32.6577 9.72999 32.6577 9.73198 32.6577 9.73397C32.682 9.7121 32.7062 9.69223 32.7334 9.67433C32.7382 9.67135 32.7431 9.66936 32.748 9.66638C32.748 9.59581 32.7441 9.53021 32.7936 9.47157C32.811 9.45069 32.8256 9.46262 32.8101 9.48449C32.7819 9.52524 32.7994 9.58587 32.8033 9.63458C32.8363 9.61867 32.8712 9.60476 32.9081 9.59382C32.9333 9.51729 32.9372 9.43976 32.9915 9.37714L32.9935 9.37913ZM32.4335 12.9902C32.2443 13.1204 31.9686 13.2506 31.9434 13.511C31.9172 13.7893 32.2482 13.7416 32.4025 13.676C32.647 13.5726 32.9149 13.3898 33.0352 13.1403C33.0507 13.1065 33.0478 13.0747 33.0352 13.0488C33.0498 12.9435 32.9343 12.8808 32.8537 12.8639C32.7072 12.8341 32.5519 12.9097 32.4335 12.9902ZM32.9168 9.89996C32.8207 10.0103 32.746 10.1544 32.6994 10.2936C32.6451 10.4606 32.5247 10.7856 32.6276 10.9536C32.7217 11.1066 32.8761 11.0331 32.9915 10.9297C33.2342 10.8482 33.2963 10.5759 33.3361 10.3383C33.3526 10.2399 33.4089 10.0878 33.4186 9.95463C33.4205 9.93873 33.4254 9.92382 33.4254 9.90791C33.4254 9.88903 33.4215 9.87412 33.4147 9.8612C33.404 9.7946 33.3739 9.73894 33.3031 9.70912C33.1682 9.65147 32.9935 9.81051 32.9158 9.89996H32.9168Z" fill="#F5BC81"/>
</g>
<g style="mix-blend-mode:screen" opacity="0.6">
<path d="M33.4155 13.5956C33.3873 13.7109 33.3844 13.8213 33.3466 13.9356C33.301 14.0737 33.2408 14.2208 33.1554 14.3381C33.0205 14.525 32.8565 14.694 32.6439 14.7854C32.6177 14.7963 32.6381 14.7556 32.6478 14.7486C32.8021 14.6393 32.937 14.4932 33.0564 14.3451C33.233 14.1234 33.2883 13.8541 33.399 13.6016C33.4009 13.5966 33.4194 13.5817 33.4155 13.5956Z" fill="#F5BC81"/>
</g>
<g style="mix-blend-mode:screen" opacity="0.6">
<path d="M32.8781 13.2714C32.8121 13.3449 32.7645 13.4205 32.6869 13.4851C32.6151 13.5437 32.517 13.6322 32.4239 13.6471C32.3802 13.6541 32.421 13.5865 32.4326 13.5745C32.4937 13.5139 32.5733 13.4771 32.6471 13.4334C32.7335 13.3827 32.7975 13.3141 32.8761 13.2535C32.8907 13.2416 32.8849 13.2634 32.879 13.2704L32.8781 13.2714Z" fill="#F5BC81"/>
</g>
<g style="mix-blend-mode:screen" opacity="0.6">
<path d="M33.1139 12.3729C33.407 12.5577 33.603 12.8589 33.8359 13.1094C33.8427 13.1173 33.8243 13.1412 33.8175 13.1342C33.5817 12.9335 33.3992 12.678 33.1546 12.4862C32.8897 12.2794 32.5782 12.1761 32.2802 12.0359C32.2705 12.031 32.2919 12.0011 32.3016 12.0041C32.584 12.0936 32.8625 12.2138 33.1149 12.3729H33.1139Z" fill="#F5BC81"/>
</g>
<g style="mix-blend-mode:screen" opacity="0.6">
<path d="M33.7523 11.2484C33.8183 11.2852 33.8076 11.4015 33.8047 11.4671C33.8028 11.4969 33.7513 11.7623 33.7552 11.7642C33.761 11.7662 33.7503 11.7802 33.7484 11.7811C33.7465 11.7821 33.7445 11.7831 33.7426 11.7851C33.7387 11.7871 33.7319 11.7911 33.7319 11.7831C33.728 11.6142 33.7892 11.4571 33.7125 11.2941C33.7047 11.2782 33.7358 11.2384 33.7533 11.2474L33.7523 11.2484Z" fill="#F5BC81"/>
</g>
<g style="mix-blend-mode:screen" opacity="0.6">
<path d="M33.3266 10.0875C33.2995 10.1839 33.2927 10.2863 33.2636 10.3817C33.2597 10.3956 33.2112 10.4572 33.2073 10.4185C33.2024 10.3747 33.2209 10.328 33.2364 10.2893C33.2626 10.2247 33.2781 10.1581 33.3082 10.0954C33.3111 10.0905 33.3305 10.0726 33.3266 10.0885V10.0875Z" fill="#F5BC81"/>
</g>
<path d="M13.752 13.1328C16.0328 12.3202 18.7044 11.9062 21.2568 12.4883C26.3362 13.6466 29.628 18.9676 29.3828 23.4307C29.2542 25.7709 29.0908 27.0184 28.6641 28.123C28.2339 29.2365 27.5262 30.2345 26.209 32.0605C25.0035 33.7317 22.9563 34.691 21.1396 35.2295C20.2408 35.4959 19.4197 35.6538 18.8232 35.7441C18.5254 35.7893 18.2841 35.817 18.1191 35.834C18.0369 35.8424 17.9737 35.8481 17.9316 35.8516C17.917 35.8528 17.9049 35.8538 17.8955 35.8545C12.9259 35.7022 9.89605 33.8254 8.10742 32.0166C7.20718 31.1062 6.61428 30.2056 6.24805 29.5361C6.06515 29.2017 5.93873 28.9259 5.85938 28.7363C5.81971 28.6416 5.79196 28.5683 5.77441 28.5205C5.76566 28.4966 5.75958 28.4786 5.75586 28.4678C5.75407 28.4626 5.7526 28.459 5.75195 28.457V28.4561L5.74805 28.4443L5.57715 27.915C3.96183 22.4673 6.98827 17.8817 8.75977 16.0459C9.63261 15.1415 11.4644 13.9479 13.752 13.1328Z" fill="#7F09DB" stroke="black" stroke-width="1.02606"/>
<path d="M14.8242 11.5391C17.1051 10.7264 19.7766 10.3125 22.3291 10.8945C27.4085 12.0529 30.7002 17.3739 30.4551 21.8369C30.3265 24.1772 30.163 25.4247 29.7363 26.5293C29.3062 27.6427 28.5985 28.6408 27.2812 30.4668C26.0757 32.1379 24.0286 33.0972 22.2119 33.6357C21.3131 33.9022 20.4919 34.06 19.8955 34.1504C19.5977 34.1955 19.3563 34.2233 19.1914 34.2402C19.1092 34.2487 19.0459 34.2544 19.0039 34.2578C18.9893 34.259 18.9771 34.26 18.9678 34.2607C13.9982 34.1084 10.9683 32.2317 9.17969 30.4229C8.27944 29.5124 7.68655 28.6119 7.32031 27.9424C7.13741 27.608 7.01099 27.3321 6.93164 27.1426C6.89198 27.0478 6.86423 26.9746 6.84668 26.9268C6.83792 26.9029 6.83184 26.8848 6.82812 26.874C6.82634 26.8688 6.82486 26.8652 6.82422 26.8633V26.8623L6.82031 26.8506L6.64941 26.3213C5.0341 20.8735 8.06054 16.288 9.83203 14.4521C10.7049 13.5477 12.5367 12.3541 14.8242 11.5391Z" fill="#C131F5" stroke="black" stroke-width="1.02606"/>
<path d="M27.1425 20.8239C26.7271 19.1173 25.6333 17.4355 24.1427 16.2119C22.5151 14.8761 20.5576 14.1872 18.6312 14.2727C18.0644 14.2976 17.4977 14.39 16.9455 14.5471C16.0429 14.6584 15.1724 14.9496 14.3552 15.4128C13.5769 15.8541 12.8694 16.4376 12.2512 17.1492C11.6669 17.8212 11.1885 18.5776 10.8265 19.3986C10.4645 20.2206 10.2393 21.0625 10.1578 21.9014C10.0268 23.2531 10.284 24.5105 10.9012 25.5402C11.5301 26.5899 12.52 27.3741 13.7787 27.8254C13.7224 28.1096 13.6739 28.4406 13.7137 28.7975C13.7884 29.4624 14.1611 30.0131 14.7628 30.349L14.8075 30.3739L14.855 30.3947C15.7003 30.7774 16.2642 30.9812 16.8232 30.9563C17.1298 30.9424 17.4171 30.8569 17.6656 30.7068C17.9761 30.849 18.3439 30.9116 18.7642 30.8927C18.8418 30.8897 18.9224 30.8828 19.0048 30.8738C19.1533 30.8987 19.2999 30.9076 19.4445 30.9007C19.689 30.8897 20.0637 30.8261 20.4344 30.5806C20.6576 30.6919 20.9138 30.7446 21.1875 30.7327C21.3738 30.7247 21.5359 30.689 21.7077 30.6512C21.7999 30.6313 21.896 30.6094 22.0076 30.5906L22.026 30.5876L22.0444 30.5836C22.4851 30.4931 22.8509 30.3639 23.1625 30.189C23.5196 29.9882 23.801 29.7268 23.9971 29.4137C24.4717 28.6543 24.3018 27.8542 24.1514 27.3174C24.7162 27.0252 25.2151 26.6783 25.6382 26.2817C26.1574 25.7957 26.566 25.2331 26.8503 24.6119C27.3686 23.4818 27.4686 22.1727 27.1415 20.8259L27.1425 20.8239ZM20.2636 23.3237C19.1194 21.7215 20.8653 19.7564 22.4821 20.2355C26.2069 21.7294 22.4666 26.4438 20.2636 23.3237ZM17.7995 25.9696C18.1139 25.5174 18.7147 23.9787 19.2213 24.93C19.7677 25.8374 20.679 26.4368 18.9107 26.3354C18.1576 26.2599 17.6646 26.5183 17.7995 25.9686V25.9696ZM14.2368 24.1457C12.5083 22.7631 14.3174 19.9552 16.3428 20.6201C19.4115 21.6887 16.5466 26.1018 14.2368 24.1457Z" fill="url(#paint0_linear_2007_3609)"/>
<path fill-rule="evenodd" clip-rule="evenodd" d="M17.1563 14.8529C11.6041 15.4621 8.6984 24.7865 14.5505 26.5716C15.8995 26.6949 14.1807 28.5019 15.3783 29.2106C17.101 30.0386 17.2475 29.8646 17.496 28.1391C18.0763 28.7057 17.4416 29.8636 19.0643 29.5873C20.6559 30.1101 20.1444 26.4186 20.7782 28.8975C20.9305 29.6678 21.0082 29.477 21.7914 29.3348C24.5 28.7534 21.8506 26.4822 23.1898 26.1969C29.8921 23.0958 23.6916 12.7894 17.1543 14.8529H17.1563ZM14.2196 23.7468C12.4872 22.2817 14.2894 19.3187 16.3178 20.0264C19.3894 21.1635 16.5352 25.8202 14.2196 23.7468ZM18.9003 26.0747C18.1471 25.9922 17.6551 26.2655 17.7881 25.685C18.1015 25.2079 18.6984 23.5828 19.2079 24.5907C19.7562 25.5508 20.6695 26.187 18.9003 26.0756V26.0747ZM20.2463 22.894C19.0982 21.1983 20.8393 19.1259 22.4581 19.6368C26.1867 21.2251 22.4581 26.1979 20.2463 22.894Z" fill="#F9E8E9"/>
<path fill-rule="evenodd" clip-rule="evenodd" d="M18.9 26.0732C18.1469 25.9907 17.6548 26.264 17.7878 25.6836C18.1013 25.2065 18.6981 23.5813 19.2076 24.5892C19.756 25.5494 20.6692 26.1855 18.9 26.0742V26.0732Z" fill="url(#paint1_linear_2007_3609)"/>
<path fill-rule="evenodd" clip-rule="evenodd" d="M14.2195 23.7498C12.4871 22.2847 14.2893 19.3217 16.3177 20.0294C19.3893 21.1665 16.5351 25.8232 14.2195 23.7498Z" fill="url(#paint2_linear_2007_3609)"/>
<path fill-rule="evenodd" clip-rule="evenodd" d="M20.246 22.8947C19.0979 21.199 20.8389 19.1266 22.4577 19.6375C26.1864 21.2259 22.4577 26.1986 20.246 22.8947Z" fill="url(#paint3_linear_2007_3609)"/>
<path d="M29.8675 18.9961C29.8675 18.9961 27.677 13.6218 25.1227 12.7044C25.1227 12.7044 24.9441 12.5026 25.146 12.4141C25.3478 12.3257 25.8156 12.5652 25.8156 12.5652C25.8156 12.5652 28.305 14.2748 29.8675 18.9971V18.9961Z" fill="#F3F4EE"/>
<path d="M24.5968 12.6198C24.7576 12.6198 24.888 12.4863 24.888 12.3216C24.888 12.1569 24.7576 12.0234 24.5968 12.0234C24.436 12.0234 24.3057 12.1569 24.3057 12.3216C24.3057 12.4863 24.436 12.6198 24.5968 12.6198Z" fill="#F3F4EE"/>
<defs>
<linearGradient id="paint0_linear_2007_3609" x1="21.8109" y1="15.8646" x2="13.8647" y2="31.5039" gradientUnits="userSpaceOnUse">
<stop stop-color="#5A00A0"/>
<stop offset="1" stop-color="#7F09DB"/>
</linearGradient>
<linearGradient id="paint1_linear_2007_3609" x1="17.7664" y1="25.1747" x2="19.9365" y2="25.1747" gradientUnits="userSpaceOnUse">
<stop stop-color="#5A00A0"/>
<stop offset="1" stop-color="#7F09DB"/>
</linearGradient>
<linearGradient id="paint2_linear_2007_3609" x1="15.5752" y1="23.2935" x2="15.62" y2="19.93" gradientUnits="userSpaceOnUse">
<stop stop-color="#7F09DB"/>
<stop offset="0.25" stop-color="#7607D0"/>
<stop offset="0.69" stop-color="#6103B3"/>
<stop offset="1" stop-color="#4F009B"/>
</linearGradient>
<linearGradient id="paint3_linear_2007_3609" x1="21.9773" y1="19.7299" x2="21.9509" y2="22.4852" gradientUnits="userSpaceOnUse">
<stop stop-color="#5A00A0"/>
<stop offset="1" stop-color="#7F09DB"/>
</linearGradient>
</defs>
</svg>
