<svg width="28" height="19" viewBox="0 0 28 19" fill="none" xmlns="http://www.w3.org/2000/svg">
<path d="M5.14617 4.85553C5.20589 4.77418 5.2258 4.67249 5.21087 4.57081C5.00682 3.39633 5.77822 2.27779 6.92292 2.06934C8.0726 1.86089 9.17249 2.64386 9.37653 3.81834C9.41137 4.02679 9.60547 4.16407 9.80953 4.12847L11.4021 3.84375L12.9301 12.7107C12.7957 12.7158 12.6613 12.7311 12.5269 12.7412C12.3727 12.7514 12.2184 12.7616 12.0641 12.7768C11.8401 12.7972 11.6162 12.8226 11.3972 12.848C11.2528 12.8683 11.1135 12.8836 10.9741 12.9039C10.7153 12.9395 10.4615 12.9853 10.2077 13.031C10.1032 13.0514 9.99868 13.0666 9.88919 13.087C9.53086 13.1582 9.17252 13.2395 8.81915 13.331C8.75445 13.3463 8.68975 13.3666 8.62505 13.3869C8.33141 13.4632 8.04276 13.5395 7.75905 13.631C7.63463 13.6666 7.51518 13.7123 7.39574 13.7479C7.16681 13.8242 6.94284 13.9005 6.71889 13.9818L6.31576 14.1343C6.10673 14.2157 5.8977 14.3021 5.69366 14.3886C5.55928 14.4445 5.42491 14.5055 5.29054 14.5665C5.17607 14.6173 5.05662 14.6682 4.94214 14.7241L3.31468 5.29779L4.90729 5.01307C5.00683 4.99273 5.09142 4.93688 5.14617 4.85553ZM3.39927 15.5376C3.48387 15.4867 3.56848 15.4359 3.65309 15.3901C3.85217 15.2783 4.04628 15.1766 4.24535 15.0749L2.51339 5.05374C2.49846 4.95205 2.51836 4.85036 2.57809 4.76902C2.63283 4.68767 2.71744 4.63174 2.81698 4.6114L4.43446 4.3216C4.36977 2.88274 5.36515 1.57609 6.7935 1.31678C8.22685 1.05748 9.60048 1.93705 10.0236 3.3149L11.6411 3.02509C11.8452 2.9895 12.0393 3.12678 12.0741 3.33523L13.6866 12.6851H14.2938C14.3834 12.6851 14.473 12.6902 14.5626 12.6953C14.692 12.6953 14.8214 12.7003 14.9557 12.7054L13.1242 2.10996C13.0645 1.76423 12.741 1.53545 12.4026 1.59646L10.9643 1.85576C10.8249 1.88118 10.6856 1.82017 10.601 1.70832C9.80964 0.615189 8.59527 0 7.30618 0C7.06729 0 6.82343 0.0203375 6.57957 0.0660943C5.03671 0.340645 3.80244 1.46936 3.35453 3.0099C3.31472 3.15226 3.20025 3.25394 3.06089 3.27936L1.6176 3.53866C1.27917 3.59967 1.05522 3.93014 1.11495 4.27588L3.09077 15.7154C3.19528 15.6493 3.29475 15.5935 3.39927 15.5376ZM15.3786 13.4937C20.0819 13.8089 24.531 15.7562 28 19H0C0.935659 18.1255 1.94598 17.3374 3.01102 16.651C3.61322 16.2748 4.22042 15.9291 4.82262 15.624C5.81303 15.1258 6.84822 14.7089 7.91327 14.3784C9.68505 13.8242 11.5314 13.509 13.3829 13.453C13.5721 13.448 13.7612 13.4429 13.9553 13.4429C14.4181 13.4429 14.8958 13.4632 15.3786 13.4937ZM11.82 15.6087C11.7056 15.4359 11.4766 15.3901 11.3024 15.5071L10.6903 15.924C10.327 16.1731 9.84421 16.1222 9.53563 15.807C8.97821 15.2376 8.09731 15.1461 7.44036 15.5935L6.82322 16.0155C6.65401 16.1324 6.60921 16.3663 6.72368 16.5442C6.83317 16.7171 7.06708 16.7629 7.24128 16.6459L7.85345 16.229C8.21675 15.985 8.69951 16.0307 9.00809 16.346C9.32661 16.6714 9.75464 16.8442 10.1826 16.8442C10.5012 16.8442 10.8247 16.7476 11.1034 16.5595L11.7205 16.1375C11.8897 16.0206 11.9345 15.7867 11.82 15.6087ZM15.3786 16.5748L14.3583 16.9917C14.1692 17.073 14.0746 17.2916 14.1493 17.4899C14.2289 17.6831 14.4479 17.7797 14.637 17.7035L15.6573 17.2866C16.4685 16.951 17.3992 17.0273 18.1507 17.4899C18.7131 17.8306 19.3402 18.0085 19.9772 18.0085C20.2659 18.0085 20.5595 17.973 20.8482 17.8967L21.5549 17.7187C21.754 17.6679 21.8784 17.4594 21.8286 17.2561C21.7789 17.0527 21.5748 16.9256 21.3757 16.9764L20.664 17.1595C19.9374 17.3425 19.1809 17.2306 18.5339 16.8341C17.5883 16.2545 16.4088 16.1579 15.3786 16.5748Z" fill="#D983F9"/>
</svg>
