<svg width="390" height="347" viewBox="0 0 390 347" fill="none" xmlns="http://www.w3.org/2000/svg">
<g clip-path="url(#clip0_2034_4148)">
<path d="M0 40C0 17.9086 17.9086 0 40 0H350C372.091 0 390 17.9086 390 40V347H0V40Z" fill="#030229"/>
<path d="M271.228 152.938C270.54 154.357 269.4 153.175 267.825 151.968C265.86 150.501 264.836 149.986 265.524 148.568C266.212 147.15 268.046 146.978 269.621 148.185C271.197 149.392 271.916 151.52 271.228 152.938Z" fill="#D9D9D9" fill-opacity="0.28" style="mix-blend-mode:overlay"/>
<path d="M263.534 148.666C263.48 149.325 262.749 149.619 261.797 149.498C260.616 149.36 260.032 148.886 260.085 148.226C260.138 147.566 260.954 147.13 261.906 147.251C262.858 147.373 263.587 148.006 263.534 148.666Z" fill="#D9D9D9" fill-opacity="0.28" style="mix-blend-mode:overlay"/>
<path d="M25.1462 149.856C25.2059 149.774 25.2258 149.672 25.2109 149.571C25.0068 148.396 25.7782 147.278 26.9229 147.069C28.0726 146.861 29.1725 147.644 29.3765 148.818C29.4114 149.027 29.6055 149.164 29.8095 149.128L31.4021 148.844L32.9301 157.711C32.7957 157.716 32.6613 157.731 32.5269 157.741C32.3727 157.751 32.2184 157.762 32.0641 157.777C31.8401 157.797 31.6162 157.823 31.3972 157.848C31.2528 157.868 31.1135 157.884 30.9741 157.904C30.7153 157.94 30.4615 157.985 30.2077 158.031C30.1032 158.051 29.9987 158.067 29.8892 158.087C29.5309 158.158 29.1725 158.24 28.8192 158.331C28.7545 158.346 28.6898 158.367 28.625 158.387C28.3314 158.463 28.0428 158.539 27.7591 158.631C27.6346 158.667 27.5152 158.712 27.3957 158.748C27.1668 158.824 26.9428 158.9 26.7189 158.982L26.3158 159.134C26.1067 159.216 25.8977 159.302 25.6937 159.389C25.5593 159.444 25.4249 159.505 25.2905 159.567C25.1761 159.617 25.0566 159.668 24.9421 159.724L23.3147 150.298L24.9073 150.013C25.0068 149.993 25.0914 149.937 25.1462 149.856ZM23.3993 160.538C23.4839 160.487 23.5685 160.436 23.6531 160.39C23.8522 160.278 24.0463 160.177 24.2454 160.075L22.5134 150.054C22.4985 149.952 22.5184 149.85 22.5781 149.769C22.6328 149.688 22.7174 149.632 22.817 149.611L24.4345 149.322C24.3698 147.883 25.3652 146.576 26.7935 146.317C28.2269 146.057 29.6005 146.937 30.0236 148.315L31.6411 148.025C31.8452 147.99 32.0393 148.127 32.0741 148.335L33.6866 157.685H34.2938C34.3834 157.685 34.473 157.69 34.5626 157.695C34.692 157.695 34.8214 157.7 34.9557 157.705L33.1242 147.11C33.0645 146.764 32.741 146.535 32.4026 146.596L30.9643 146.856C30.8249 146.881 30.6856 146.82 30.601 146.708C29.8096 145.615 28.5953 145 27.3062 145C27.0673 145 26.8234 145.02 26.5796 145.066C25.0367 145.341 23.8024 146.469 23.3545 148.01C23.3147 148.152 23.2002 148.254 23.0609 148.279L21.6176 148.539C21.2792 148.6 21.0552 148.93 21.1149 149.276L23.0908 160.715C23.1953 160.649 23.2948 160.593 23.3993 160.538ZM35.3786 158.494C40.0819 158.809 44.531 160.756 48 164H20C20.9357 163.126 21.946 162.337 23.011 161.651C23.6132 161.275 24.2204 160.929 24.8226 160.624C25.813 160.126 26.8482 159.709 27.9133 159.378C29.685 158.824 31.5314 158.509 33.3829 158.453C33.5721 158.448 33.7612 158.443 33.9553 158.443C34.4181 158.443 34.8958 158.463 35.3786 158.494ZM31.82 160.609C31.7056 160.436 31.4766 160.39 31.3024 160.507L30.6903 160.924C30.327 161.173 29.8442 161.122 29.5356 160.807C28.9782 160.238 28.0973 160.146 27.4404 160.593L26.8232 161.015C26.654 161.132 26.6092 161.366 26.7237 161.544C26.8332 161.717 27.0671 161.763 27.2413 161.646L27.8534 161.229C28.2168 160.985 28.6995 161.031 29.0081 161.346C29.3266 161.671 29.7546 161.844 30.1826 161.844C30.5012 161.844 30.8247 161.748 31.1034 161.559L31.7205 161.137C31.8897 161.021 31.9345 160.787 31.82 160.609ZM35.3786 161.575L34.3583 161.992C34.1692 162.073 34.0746 162.292 34.1493 162.49C34.2289 162.683 34.4479 162.78 34.637 162.703L35.6573 162.287C36.4685 161.951 37.3992 162.027 38.1507 162.49C38.7131 162.831 39.3402 163.009 39.9772 163.009C40.2659 163.009 40.5595 162.973 40.8482 162.897L41.5549 162.719C41.754 162.668 41.8784 162.459 41.8286 162.256C41.7789 162.053 41.5748 161.926 41.3757 161.976L40.664 162.159C39.9374 162.342 39.1809 162.231 38.5339 161.834C37.5883 161.254 36.4088 161.158 35.3786 161.575Z" fill="#D983F9"/>
<path d="M62.272 160.224C61.472 160.224 60.736 160.085 60.064 159.808C59.392 159.52 58.8107 159.115 58.32 158.592C57.8293 158.069 57.4507 157.456 57.184 156.752C56.9173 156.037 56.784 155.248 56.784 154.384C56.784 153.573 56.9227 152.832 57.2 152.16C57.4773 151.488 57.8667 150.907 58.368 150.416C58.8693 149.915 59.4613 149.525 60.144 149.248C60.8373 148.971 61.5947 148.832 62.416 148.832C62.7573 148.832 63.1093 148.864 63.472 148.928C63.8347 148.981 64.1867 149.072 64.528 149.2C64.8693 149.317 65.168 149.467 65.424 149.648C65.6267 149.776 65.7973 149.909 65.936 150.048C66.0853 150.176 66.1653 150.325 66.176 150.496C66.1867 150.592 66.1707 150.699 66.128 150.816C66.0853 150.923 66.0213 151.035 65.936 151.152C65.8187 151.333 65.6907 151.467 65.552 151.552C65.424 151.637 65.296 151.68 65.168 151.68C65.0933 151.68 65.0027 151.653 64.896 151.6C64.7893 151.536 64.6453 151.451 64.464 151.344C64.3253 151.248 64.144 151.157 63.92 151.072C63.696 150.987 63.4507 150.917 63.184 150.864C62.9173 150.811 62.64 150.784 62.352 150.784C61.6373 150.784 61.008 150.933 60.464 151.232C59.92 151.531 59.4933 151.957 59.184 152.512C58.8853 153.056 58.736 153.696 58.736 154.432C58.736 155.189 58.8907 155.856 59.2 156.432C59.5093 157.008 59.9307 157.461 60.464 157.792C61.008 158.112 61.632 158.272 62.336 158.272C62.5813 158.272 62.8267 158.256 63.072 158.224C63.328 158.192 63.5733 158.144 63.808 158.08C64.0533 158.016 64.2773 157.936 64.48 157.84V155.312H62.208C62.0587 155.312 61.92 155.296 61.792 155.264C61.6747 155.232 61.5787 155.157 61.504 155.04C61.44 154.923 61.408 154.731 61.408 154.464C61.408 154.187 61.4453 153.989 61.52 153.872C61.5947 153.755 61.6907 153.68 61.808 153.648C61.936 153.616 62.0747 153.6 62.224 153.6H65.488C65.7653 153.6 65.968 153.648 66.096 153.744C66.224 153.84 66.3093 153.963 66.352 154.112C66.3947 154.251 66.416 154.411 66.416 154.592V158.32C66.416 158.533 66.3093 158.752 66.096 158.976C65.8933 159.2 65.6053 159.408 65.232 159.6C64.9867 159.728 64.704 159.84 64.384 159.936C64.0747 160.021 63.7387 160.091 63.376 160.144C63.024 160.197 62.656 160.224 62.272 160.224ZM69.1666 160.16C68.8786 160.16 68.6653 160.112 68.5266 160.016C68.3986 159.931 68.3186 159.813 68.2866 159.664C68.2546 159.515 68.2386 159.349 68.2386 159.168V153.232C68.2386 153.04 68.2546 152.875 68.2866 152.736C68.3186 152.587 68.3986 152.475 68.5266 152.4C68.6653 152.315 68.884 152.272 69.1826 152.272C69.4706 152.272 69.6786 152.309 69.8066 152.384C69.9453 152.459 70.0306 152.555 70.0626 152.672C70.1053 152.779 70.1266 152.885 70.1266 152.992L69.9986 153.28C70.052 153.195 70.1266 153.093 70.2226 152.976C70.3186 152.848 70.4466 152.725 70.6066 152.608C70.7666 152.48 70.9586 152.379 71.1826 152.304C71.4066 152.219 71.6733 152.176 71.9826 152.176C72.1106 152.176 72.244 152.192 72.3826 152.224C72.532 152.245 72.676 152.283 72.8146 152.336C72.964 152.379 73.0973 152.437 73.2146 152.512C73.332 152.587 73.4226 152.677 73.4866 152.784C73.5506 152.88 73.5826 152.992 73.5826 153.12C73.5826 153.461 73.4973 153.749 73.3266 153.984C73.156 154.219 72.9533 154.336 72.7186 154.336C72.5586 154.336 72.4413 154.32 72.3666 154.288C72.292 154.256 72.228 154.219 72.1746 154.176C72.132 154.133 72.0626 154.096 71.9666 154.064C71.8813 154.032 71.7426 154.016 71.5506 154.016C71.3906 154.016 71.2253 154.043 71.0546 154.096C70.8946 154.149 70.7453 154.229 70.6066 154.336C70.468 154.443 70.356 154.581 70.2706 154.752C70.1853 154.912 70.1426 155.099 70.1426 155.312V159.2C70.1426 159.381 70.1266 159.547 70.0946 159.696C70.0626 159.835 69.9773 159.947 69.8386 160.032C69.7 160.117 69.476 160.16 69.1666 160.16ZM80.7826 160.128C80.4733 160.128 80.244 160.069 80.0946 159.952C79.9453 159.835 79.8706 159.675 79.8706 159.472L79.9826 158.944C79.8973 159.083 79.7533 159.248 79.5506 159.44C79.348 159.621 79.0813 159.787 78.7506 159.936C78.42 160.075 78.02 160.144 77.5506 160.144C77.0493 160.144 76.5746 160.043 76.1266 159.84C75.6893 159.627 75.3 159.339 74.9586 158.976C74.628 158.603 74.3613 158.181 74.1586 157.712C73.9666 157.232 73.8706 156.72 73.8706 156.176C73.8706 155.653 73.9666 155.163 74.1586 154.704C74.3613 154.235 74.6333 153.819 74.9746 153.456C75.316 153.093 75.7053 152.811 76.1426 152.608C76.5906 152.395 77.06 152.288 77.5506 152.288C77.988 152.288 78.356 152.347 78.6546 152.464C78.964 152.581 79.2253 152.731 79.4386 152.912C79.652 153.083 79.828 153.264 79.9666 153.456L79.8706 152.992C79.8706 152.757 79.9453 152.581 80.0946 152.464C80.244 152.336 80.4786 152.272 80.7986 152.272C81.0973 152.272 81.3106 152.32 81.4386 152.416C81.5666 152.501 81.6466 152.624 81.6786 152.784C81.7106 152.933 81.7266 153.104 81.7266 153.296V159.152C81.7266 159.333 81.7106 159.499 81.6786 159.648C81.6466 159.797 81.5613 159.915 81.4226 160C81.2946 160.085 81.0813 160.128 80.7826 160.128ZM77.8386 158.272C78.2013 158.272 78.5266 158.181 78.8146 158C79.1026 157.819 79.332 157.573 79.5026 157.264C79.684 156.944 79.7746 156.592 79.7746 156.208C79.7746 155.792 79.684 155.429 79.5026 155.12C79.3213 154.811 79.0813 154.571 78.7826 154.4C78.4946 154.219 78.1693 154.128 77.8066 154.128C77.412 154.128 77.06 154.224 76.7506 154.416C76.4413 154.597 76.196 154.848 76.0146 155.168C75.844 155.477 75.7586 155.829 75.7586 156.224C75.7586 156.608 75.8493 156.955 76.0306 157.264C76.212 157.573 76.4573 157.819 76.7666 158C77.0866 158.181 77.444 158.272 77.8386 158.272ZM86.6656 160.192C86.4416 160.192 86.255 160.155 86.1056 160.08C85.9563 160.005 85.839 159.883 85.7536 159.712L82.8416 153.616C82.6816 153.296 82.639 153.04 82.7136 152.848C82.7883 152.656 82.9803 152.485 83.2896 152.336C83.6096 152.176 83.8656 152.123 84.0576 152.176C84.2496 152.229 84.4203 152.427 84.5696 152.768L86.6656 157.68L88.7296 152.864C88.879 152.512 89.0496 152.293 89.2416 152.208C89.4336 152.112 89.711 152.155 90.0736 152.336C90.4363 152.517 90.6283 152.72 90.6496 152.944C90.671 153.157 90.6123 153.403 90.4736 153.68L87.5776 159.712C87.4923 159.872 87.375 159.989 87.2256 160.064C87.0763 160.149 86.8896 160.192 86.6656 160.192ZM95.2338 160.256C94.5404 160.256 93.9324 160.144 93.4098 159.92C92.8978 159.696 92.4658 159.392 92.1138 159.008C91.7724 158.613 91.5111 158.176 91.3298 157.696C91.1591 157.205 91.0738 156.699 91.0738 156.176C91.0738 155.408 91.2498 154.725 91.6018 154.128C91.9538 153.531 92.4391 153.061 93.0578 152.72C93.6871 152.379 94.4071 152.208 95.2178 152.208C95.7938 152.208 96.3004 152.299 96.7378 152.48C97.1751 152.661 97.5378 152.901 97.8258 153.2C98.1244 153.488 98.3484 153.808 98.4978 154.16C98.6578 154.512 98.7378 154.853 98.7378 155.184C98.7378 155.749 98.5991 156.16 98.3218 156.416C98.0551 156.672 97.7191 156.8 97.3138 156.8H93.0898C93.1004 157.163 93.2124 157.477 93.4258 157.744C93.6498 158.011 93.9271 158.219 94.2578 158.368C94.5991 158.507 94.9458 158.576 95.2977 158.576C95.5644 158.576 95.7991 158.56 96.0018 158.528C96.2151 158.496 96.3964 158.459 96.5458 158.416C96.6951 158.363 96.8231 158.309 96.9298 158.256C97.0471 158.203 97.1538 158.155 97.2498 158.112C97.3458 158.069 97.4364 158.043 97.5218 158.032C97.6391 158.021 97.7564 158.048 97.8738 158.112C97.9911 158.176 98.0871 158.288 98.1618 158.448C98.2258 158.555 98.2684 158.656 98.2898 158.752C98.3218 158.837 98.3378 158.923 98.3378 159.008C98.3378 159.221 98.2098 159.424 97.9538 159.616C97.6978 159.797 97.3351 159.947 96.8658 160.064C96.4071 160.192 95.8631 160.256 95.2338 160.256ZM93.0898 155.664H96.3698C96.5511 155.664 96.6898 155.637 96.7858 155.584C96.8818 155.52 96.9298 155.392 96.9298 155.2C96.9298 154.955 96.8551 154.736 96.7058 154.544C96.5564 154.341 96.3538 154.187 96.0978 154.08C95.8418 153.963 95.5431 153.904 95.2018 153.904C94.8071 153.904 94.4498 153.984 94.1298 154.144C93.8098 154.293 93.5538 154.501 93.3618 154.768C93.1804 155.035 93.0898 155.333 93.0898 155.664ZM101.55 163.312C101.209 163.163 101.012 162.992 100.958 162.8C100.905 162.619 100.953 162.373 101.102 162.064L105.23 152.816C105.38 152.475 105.54 152.272 105.71 152.208C105.881 152.133 106.142 152.171 106.494 152.32C106.825 152.469 107.017 152.635 107.07 152.816C107.134 152.997 107.097 153.243 106.958 153.552L102.798 162.848C102.66 163.189 102.505 163.387 102.334 163.44C102.164 163.504 101.902 163.461 101.55 163.312ZM103.038 159.392L99.3424 153.712C99.1504 153.424 99.0704 153.184 99.1024 152.992C99.145 152.8 99.3157 152.613 99.6144 152.432C99.945 152.229 100.201 152.149 100.382 152.192C100.574 152.235 100.766 152.405 100.958 152.704L103.886 157.264L103.038 159.392ZM114.814 160.128C114.505 160.128 114.275 160.069 114.126 159.952C113.977 159.835 113.902 159.675 113.902 159.472L114.014 158.944C113.929 159.083 113.785 159.248 113.582 159.44C113.379 159.621 113.113 159.787 112.782 159.936C112.451 160.075 112.051 160.144 111.582 160.144C111.081 160.144 110.606 160.043 110.158 159.84C109.721 159.627 109.331 159.339 108.99 158.976C108.659 158.603 108.393 158.181 108.19 157.712C107.998 157.232 107.902 156.72 107.902 156.176C107.902 155.653 107.998 155.163 108.19 154.704C108.393 154.235 108.665 153.819 109.006 153.456C109.347 153.093 109.737 152.811 110.174 152.608C110.622 152.395 111.091 152.288 111.582 152.288C112.019 152.288 112.387 152.347 112.686 152.464C112.995 152.581 113.257 152.731 113.47 152.912C113.683 153.083 113.859 153.264 113.998 153.456L113.902 152.992C113.902 152.757 113.977 152.581 114.126 152.464C114.275 152.336 114.51 152.272 114.83 152.272C115.129 152.272 115.342 152.32 115.47 152.416C115.598 152.501 115.678 152.624 115.71 152.784C115.742 152.933 115.758 153.104 115.758 153.296V159.152C115.758 159.333 115.742 159.499 115.71 159.648C115.678 159.797 115.593 159.915 115.454 160C115.326 160.085 115.113 160.128 114.814 160.128ZM111.87 158.272C112.233 158.272 112.558 158.181 112.846 158C113.134 157.819 113.363 157.573 113.534 157.264C113.715 156.944 113.806 156.592 113.806 156.208C113.806 155.792 113.715 155.429 113.534 155.12C113.353 154.811 113.113 154.571 112.814 154.4C112.526 154.219 112.201 154.128 111.838 154.128C111.443 154.128 111.091 154.224 110.782 154.416C110.473 154.597 110.227 154.848 110.046 155.168C109.875 155.477 109.79 155.829 109.79 156.224C109.79 156.608 109.881 156.955 110.062 157.264C110.243 157.573 110.489 157.819 110.798 158C111.118 158.181 111.475 158.272 111.87 158.272ZM118.307 160.16C118.019 160.16 117.806 160.112 117.667 160.016C117.539 159.931 117.459 159.813 117.427 159.664C117.395 159.515 117.379 159.349 117.379 159.168V153.232C117.379 153.04 117.395 152.875 117.427 152.736C117.459 152.587 117.539 152.475 117.667 152.4C117.806 152.315 118.025 152.272 118.323 152.272C118.611 152.272 118.819 152.309 118.947 152.384C119.086 152.459 119.171 152.555 119.203 152.672C119.246 152.779 119.267 152.885 119.267 152.992L119.139 153.28C119.193 153.195 119.267 153.093 119.363 152.976C119.459 152.848 119.587 152.725 119.747 152.608C119.907 152.48 120.099 152.379 120.323 152.304C120.547 152.219 120.814 152.176 121.123 152.176C121.251 152.176 121.385 152.192 121.523 152.224C121.673 152.245 121.817 152.283 121.955 152.336C122.105 152.379 122.238 152.437 122.355 152.512C122.473 152.587 122.563 152.677 122.627 152.784C122.691 152.88 122.723 152.992 122.723 153.12C122.723 153.461 122.638 153.749 122.467 153.984C122.297 154.219 122.094 154.336 121.859 154.336C121.699 154.336 121.582 154.32 121.507 154.288C121.433 154.256 121.369 154.219 121.315 154.176C121.273 154.133 121.203 154.096 121.107 154.064C121.022 154.032 120.883 154.016 120.691 154.016C120.531 154.016 120.366 154.043 120.195 154.096C120.035 154.149 119.886 154.229 119.747 154.336C119.609 154.443 119.497 154.581 119.411 154.752C119.326 154.912 119.283 155.099 119.283 155.312V159.2C119.283 159.381 119.267 159.547 119.235 159.696C119.203 159.835 119.118 159.947 118.979 160.032C118.841 160.117 118.617 160.16 118.307 160.16ZM126.911 160.144C126.421 160.144 125.957 160.043 125.52 159.84C125.082 159.637 124.698 159.36 124.368 159.008C124.037 158.645 123.776 158.224 123.584 157.744C123.392 157.253 123.296 156.731 123.296 156.176C123.296 155.643 123.392 155.141 123.584 154.672C123.776 154.192 124.037 153.776 124.368 153.424C124.709 153.061 125.098 152.779 125.536 152.576C125.973 152.373 126.432 152.272 126.911 152.272C127.424 152.272 127.882 152.373 128.288 152.576C128.693 152.779 129.034 153.061 129.312 153.424C129.6 153.776 129.818 154.192 129.968 154.672C130.117 155.141 130.197 155.648 130.208 156.192C130.208 156.736 130.133 157.248 129.984 157.728C129.845 158.197 129.632 158.613 129.344 158.976C129.066 159.339 128.72 159.627 128.304 159.84C127.898 160.043 127.434 160.144 126.911 160.144ZM127.168 158.272C127.541 158.272 127.872 158.187 128.16 158.016C128.458 157.835 128.693 157.589 128.864 157.28C129.045 156.971 129.136 156.619 129.136 156.224C129.136 155.819 129.045 155.461 128.864 155.152C128.693 154.843 128.458 154.597 128.16 154.416C127.872 154.235 127.541 154.144 127.168 154.144C126.794 154.144 126.458 154.235 126.16 154.416C125.861 154.587 125.621 154.832 125.44 155.152C125.269 155.461 125.184 155.819 125.184 156.224C125.184 156.619 125.269 156.971 125.44 157.28C125.621 157.589 125.861 157.835 126.16 158.016C126.469 158.187 126.805 158.272 127.168 158.272ZM130.128 160.144C129.829 160.144 129.61 160.096 129.472 160C129.333 159.893 129.242 159.728 129.2 159.504V149.648C129.2 149.467 129.21 149.307 129.232 149.168C129.264 149.019 129.344 148.901 129.472 148.816C129.61 148.72 129.824 148.672 130.112 148.672C130.421 148.672 130.64 148.715 130.767 148.8C130.896 148.885 130.976 149.003 131.008 149.152C131.05 149.291 131.072 149.451 131.072 149.632V159.168C131.072 159.349 131.056 159.515 131.024 159.664C130.992 159.813 130.906 159.931 130.767 160.016C130.64 160.101 130.426 160.144 130.128 160.144Z" fill="white"/>
<g filter="url(#filter0_dii_2034_4148)">
<path d="M290.5 163.5C290.394 163.5 290.288 163.473 290.192 163.418C290.089 163.359 287.633 161.946 285.143 159.817C283.666 158.555 282.488 157.304 281.64 156.097C280.543 154.536 279.991 153.034 280 151.634C280.011 150.004 280.599 148.472 281.659 147.318C282.736 146.146 284.173 145.5 285.706 145.5C287.67 145.5 289.466 146.591 290.5 148.318C291.534 146.591 293.33 145.5 295.294 145.5C296.743 145.5 298.124 146.083 299.185 147.141C300.349 148.302 301.011 149.942 301 151.642C300.991 153.04 300.429 154.539 299.329 156.098C298.479 157.304 297.302 158.555 295.832 159.816C293.35 161.945 290.912 163.358 290.809 163.417C290.715 163.472 290.609 163.5 290.5 163.5Z" fill="url(#paint0_linear_2034_4148)"/>
</g>
<path d="M313.336 160.304C312.856 160.304 312.419 160.245 312.024 160.128C311.64 160.011 311.299 159.861 311 159.68C310.712 159.499 310.467 159.312 310.264 159.12C310.061 158.928 309.912 158.752 309.816 158.592C309.677 158.4 309.587 158.229 309.544 158.08C309.501 157.931 309.512 157.787 309.576 157.648C309.651 157.499 309.784 157.344 309.976 157.184C310.168 157.013 310.344 156.928 310.504 156.928C310.675 156.917 310.835 156.965 310.984 157.072C311.144 157.179 311.299 157.328 311.448 157.52C311.704 157.861 311.992 158.107 312.312 158.256C312.632 158.395 312.952 158.464 313.272 158.464C313.688 158.464 314.051 158.411 314.36 158.304C314.669 158.187 314.909 158.016 315.08 157.792C315.261 157.568 315.352 157.28 315.352 156.928C315.352 156.64 315.261 156.405 315.08 156.224C314.909 156.032 314.68 155.872 314.392 155.744C314.104 155.605 313.779 155.483 313.416 155.376C313.064 155.259 312.707 155.131 312.344 154.992C312.088 154.907 311.832 154.805 311.576 154.688C311.32 154.56 311.08 154.416 310.856 154.256C310.643 154.096 310.451 153.909 310.28 153.696C310.12 153.472 309.992 153.216 309.896 152.928C309.8 152.64 309.752 152.304 309.752 151.92C309.752 151.312 309.901 150.779 310.2 150.32C310.499 149.851 310.915 149.483 311.448 149.216C311.981 148.939 312.589 148.8 313.272 148.8C313.709 148.8 314.099 148.843 314.44 148.928C314.792 149.003 315.091 149.104 315.336 149.232C315.592 149.349 315.8 149.472 315.96 149.6C316.131 149.717 316.253 149.819 316.328 149.904C316.573 150.149 316.707 150.357 316.728 150.528C316.76 150.688 316.664 150.907 316.44 151.184C316.216 151.472 315.997 151.632 315.784 151.664C315.581 151.685 315.352 151.6 315.096 151.408C314.925 151.227 314.755 151.083 314.584 150.976C314.413 150.859 314.221 150.773 314.008 150.72C313.805 150.667 313.555 150.64 313.256 150.64C313.043 150.64 312.835 150.672 312.632 150.736C312.44 150.789 312.275 150.875 312.136 150.992C311.997 151.099 311.885 151.232 311.8 151.392C311.725 151.552 311.688 151.733 311.688 151.936C311.688 152.213 311.763 152.443 311.912 152.624C312.072 152.795 312.285 152.939 312.552 153.056C312.819 153.163 313.117 153.264 313.448 153.36C313.779 153.456 314.115 153.557 314.456 153.664C314.808 153.781 315.155 153.92 315.496 154.08C315.837 154.24 316.141 154.443 316.408 154.688C316.675 154.923 316.888 155.221 317.048 155.584C317.208 155.936 317.288 156.368 317.288 156.88C317.288 157.467 317.176 157.979 316.952 158.416C316.728 158.853 316.424 159.211 316.04 159.488C315.656 159.765 315.229 159.968 314.76 160.096C314.291 160.235 313.816 160.304 313.336 160.304ZM321.893 160.144C321.402 160.144 320.949 160.059 320.533 159.888C320.128 159.707 319.77 159.451 319.461 159.12C319.152 158.789 318.912 158.395 318.741 157.936C318.57 157.477 318.485 156.971 318.485 156.416V153.232C318.485 153.051 318.501 152.891 318.533 152.752C318.565 152.603 318.65 152.485 318.789 152.4C318.928 152.315 319.141 152.272 319.429 152.272C319.738 152.272 319.957 152.315 320.085 152.4C320.224 152.485 320.309 152.603 320.341 152.752C320.373 152.901 320.389 153.067 320.389 153.248V156.416C320.389 156.8 320.453 157.131 320.581 157.408C320.72 157.685 320.917 157.904 321.173 158.064C321.429 158.213 321.744 158.288 322.117 158.288C322.501 158.288 322.826 158.213 323.093 158.064C323.37 157.904 323.584 157.685 323.733 157.408C323.882 157.12 323.957 156.789 323.957 156.416V153.216C323.957 153.035 323.973 152.875 324.005 152.736C324.037 152.587 324.122 152.475 324.261 152.4C324.4 152.315 324.618 152.272 324.917 152.272C325.216 152.272 325.429 152.315 325.557 152.4C325.685 152.485 325.765 152.603 325.797 152.752C325.84 152.901 325.861 153.061 325.861 153.232V159.232C325.861 159.392 325.84 159.541 325.797 159.68C325.765 159.819 325.68 159.931 325.541 160.016C325.413 160.101 325.2 160.144 324.901 160.144C324.688 160.144 324.517 160.117 324.389 160.064C324.272 160.021 324.181 159.963 324.117 159.888C324.064 159.803 324.026 159.717 324.005 159.632C323.994 159.547 323.989 159.461 323.989 159.376L324.117 158.944C324.053 159.04 323.957 159.157 323.829 159.296C323.701 159.424 323.541 159.557 323.349 159.696C323.168 159.824 322.954 159.931 322.709 160.016C322.464 160.101 322.192 160.144 321.893 160.144ZM328.385 160.16C328.097 160.16 327.884 160.112 327.745 160.016C327.617 159.931 327.537 159.813 327.505 159.664C327.473 159.515 327.457 159.349 327.457 159.168V153.232C327.457 153.04 327.473 152.875 327.505 152.736C327.537 152.587 327.617 152.475 327.745 152.4C327.884 152.315 328.103 152.272 328.401 152.272C328.689 152.272 328.897 152.309 329.025 152.384C329.164 152.459 329.249 152.555 329.281 152.672C329.324 152.779 329.345 152.885 329.345 152.992L329.217 153.28C329.271 153.195 329.345 153.093 329.441 152.976C329.537 152.848 329.665 152.725 329.825 152.608C329.985 152.48 330.177 152.379 330.401 152.304C330.625 152.219 330.892 152.176 331.201 152.176C331.329 152.176 331.463 152.192 331.601 152.224C331.751 152.245 331.895 152.283 332.033 152.336C332.183 152.379 332.316 152.437 332.433 152.512C332.551 152.587 332.641 152.677 332.705 152.784C332.769 152.88 332.801 152.992 332.801 153.12C332.801 153.461 332.716 153.749 332.545 153.984C332.375 154.219 332.172 154.336 331.937 154.336C331.777 154.336 331.66 154.32 331.585 154.288C331.511 154.256 331.447 154.219 331.393 154.176C331.351 154.133 331.281 154.096 331.185 154.064C331.1 154.032 330.961 154.016 330.769 154.016C330.609 154.016 330.444 154.043 330.273 154.096C330.113 154.149 329.964 154.229 329.825 154.336C329.687 154.443 329.575 154.581 329.489 154.752C329.404 154.912 329.361 155.099 329.361 155.312V159.2C329.361 159.381 329.345 159.547 329.313 159.696C329.281 159.835 329.196 159.947 329.057 160.032C328.919 160.117 328.695 160.16 328.385 160.16ZM337.65 160.192C337.426 160.192 337.239 160.155 337.09 160.08C336.941 160.005 336.823 159.883 336.738 159.712L333.826 153.616C333.666 153.296 333.623 153.04 333.698 152.848C333.773 152.656 333.965 152.485 334.274 152.336C334.594 152.176 334.85 152.123 335.042 152.176C335.234 152.229 335.405 152.427 335.554 152.768L337.65 157.68L339.714 152.864C339.863 152.512 340.034 152.293 340.226 152.208C340.418 152.112 340.695 152.155 341.058 152.336C341.421 152.517 341.613 152.72 341.634 152.944C341.655 153.157 341.597 153.403 341.458 153.68L338.562 159.712C338.477 159.872 338.359 159.989 338.21 160.064C338.061 160.149 337.874 160.192 337.65 160.192ZM343.919 160.16C343.631 160.16 343.417 160.112 343.279 160.016C343.14 159.931 343.055 159.819 343.023 159.68C342.991 159.531 342.975 159.365 342.975 159.184V153.232C342.975 153.061 342.991 152.907 343.023 152.768C343.065 152.619 343.151 152.501 343.279 152.416C343.417 152.331 343.636 152.288 343.935 152.288C344.233 152.288 344.447 152.331 344.575 152.416C344.713 152.501 344.799 152.619 344.831 152.768C344.863 152.917 344.879 153.083 344.879 153.264V159.2C344.879 159.381 344.863 159.547 344.831 159.696C344.799 159.835 344.713 159.947 344.575 160.032C344.447 160.117 344.228 160.16 343.919 160.16ZM343.919 150.736C343.609 150.736 343.38 150.693 343.231 150.608C343.092 150.512 343.001 150.384 342.959 150.224C342.927 150.064 342.911 149.888 342.911 149.696C342.911 149.493 342.927 149.317 342.959 149.168C343.001 149.019 343.097 148.901 343.247 148.816C343.396 148.72 343.625 148.672 343.935 148.672C344.255 148.672 344.484 148.72 344.623 148.816C344.761 148.912 344.852 149.04 344.895 149.2C344.937 149.349 344.959 149.525 344.959 149.728C344.959 149.909 344.937 150.08 344.895 150.24C344.852 150.4 344.761 150.523 344.623 150.608C344.484 150.693 344.249 150.736 343.919 150.736ZM350.197 160.192C349.973 160.192 349.786 160.155 349.637 160.08C349.488 160.005 349.37 159.883 349.285 159.712L346.373 153.616C346.213 153.296 346.17 153.04 346.245 152.848C346.32 152.656 346.512 152.485 346.821 152.336C347.141 152.176 347.397 152.123 347.589 152.176C347.781 152.229 347.952 152.427 348.101 152.768L350.197 157.68L352.261 152.864C352.41 152.512 352.581 152.293 352.773 152.208C352.965 152.112 353.242 152.155 353.605 152.336C353.968 152.517 354.16 152.72 354.181 152.944C354.202 153.157 354.144 153.403 354.005 153.68L351.109 159.712C351.024 159.872 350.906 159.989 350.757 160.064C350.608 160.149 350.421 160.192 350.197 160.192ZM358.765 160.256C358.072 160.256 357.464 160.144 356.941 159.92C356.429 159.696 355.997 159.392 355.645 159.008C355.304 158.613 355.042 158.176 354.861 157.696C354.69 157.205 354.605 156.699 354.605 156.176C354.605 155.408 354.781 154.725 355.133 154.128C355.485 153.531 355.97 153.061 356.589 152.72C357.218 152.379 357.938 152.208 358.749 152.208C359.325 152.208 359.832 152.299 360.269 152.48C360.706 152.661 361.069 152.901 361.357 153.2C361.656 153.488 361.88 153.808 362.029 154.16C362.189 154.512 362.269 154.853 362.269 155.184C362.269 155.749 362.13 156.16 361.853 156.416C361.586 156.672 361.25 156.8 360.845 156.8H356.621C356.632 157.163 356.744 157.477 356.957 157.744C357.181 158.011 357.458 158.219 357.789 158.368C358.13 158.507 358.477 158.576 358.829 158.576C359.096 158.576 359.33 158.56 359.533 158.528C359.746 158.496 359.928 158.459 360.077 158.416C360.226 158.363 360.354 158.309 360.461 158.256C360.578 158.203 360.685 158.155 360.781 158.112C360.877 158.069 360.968 158.043 361.053 158.032C361.17 158.021 361.288 158.048 361.405 158.112C361.522 158.176 361.618 158.288 361.693 158.448C361.757 158.555 361.8 158.656 361.821 158.752C361.853 158.837 361.869 158.923 361.869 159.008C361.869 159.221 361.741 159.424 361.485 159.616C361.229 159.797 360.866 159.947 360.397 160.064C359.938 160.192 359.394 160.256 358.765 160.256ZM356.621 155.664H359.901C360.082 155.664 360.221 155.637 360.317 155.584C360.413 155.52 360.461 155.392 360.461 155.2C360.461 154.955 360.386 154.736 360.237 154.544C360.088 154.341 359.885 154.187 359.629 154.08C359.373 153.963 359.074 153.904 358.733 153.904C358.338 153.904 357.981 153.984 357.661 154.144C357.341 154.293 357.085 154.501 356.893 154.768C356.712 155.035 356.621 155.333 356.621 155.664ZM366.974 160.144C366.483 160.144 366.019 160.043 365.582 159.84C365.145 159.637 364.761 159.36 364.43 159.008C364.099 158.645 363.838 158.224 363.646 157.744C363.454 157.253 363.358 156.731 363.358 156.176C363.358 155.643 363.454 155.141 363.646 154.672C363.838 154.192 364.099 153.776 364.43 153.424C364.771 153.061 365.161 152.779 365.598 152.576C366.035 152.373 366.494 152.272 366.974 152.272C367.486 152.272 367.945 152.373 368.35 152.576C368.755 152.779 369.097 153.061 369.374 153.424C369.662 153.776 369.881 154.192 370.03 154.672C370.179 155.141 370.259 155.648 370.27 156.192C370.27 156.736 370.195 157.248 370.046 157.728C369.907 158.197 369.694 158.613 369.406 158.976C369.129 159.339 368.782 159.627 368.366 159.84C367.961 160.043 367.497 160.144 366.974 160.144ZM367.23 158.272C367.603 158.272 367.934 158.187 368.222 158.016C368.521 157.835 368.755 157.589 368.926 157.28C369.107 156.971 369.198 156.619 369.198 156.224C369.198 155.819 369.107 155.461 368.926 155.152C368.755 154.843 368.521 154.597 368.222 154.416C367.934 154.235 367.603 154.144 367.23 154.144C366.857 154.144 366.521 154.235 366.222 154.416C365.923 154.587 365.683 154.832 365.502 155.152C365.331 155.461 365.246 155.819 365.246 156.224C365.246 156.619 365.331 156.971 365.502 157.28C365.683 157.589 365.923 157.835 366.222 158.016C366.531 158.187 366.867 158.272 367.23 158.272ZM370.19 160.144C369.891 160.144 369.673 160.096 369.534 160C369.395 159.893 369.305 159.728 369.262 159.504V149.648C369.262 149.467 369.273 149.307 369.294 149.168C369.326 149.019 369.406 148.901 369.534 148.816C369.673 148.72 369.886 148.672 370.174 148.672C370.483 148.672 370.702 148.715 370.83 148.8C370.958 148.885 371.038 149.003 371.07 149.152C371.113 149.291 371.134 149.451 371.134 149.632V159.168C371.134 159.349 371.118 159.515 371.086 159.664C371.054 159.813 370.969 159.931 370.83 160.016C370.702 160.101 370.489 160.144 370.19 160.144Z" fill="white"/>
<g filter="url(#filter1_i_2034_4148)">
<g clip-path="url(#clip1_2034_4148)">
<rect x="20" y="20" width="352" height="101" rx="24" fill="white" fill-opacity="0.19"/>
<path style="mix-blend-mode:screen" opacity="0.5" d="M198 193C292.441 193 369 155.84 369 110C369 64.1603 292.441 27 198 27C103.559 27 27 64.1603 27 110C27 155.84 103.559 193 198 193Z" fill="url(#paint1_radial_2034_4148)"/>
<path d="M384.634 -39L379.941 210.802H356.651L350.057 206.262L346.745 203.991L337.248 197.454L336.836 197.173L338.46 123.431L342.041 -39H384.634Z" fill="url(#paint2_radial_2034_4148)"/>
<path d="M394.072 -39L386.198 210.802H356.65L360.28 -39H394.072Z" fill="url(#paint3_linear_2034_4148)"/>
<path d="M371.488 -39L363.783 210.802L363.764 211.419L362.72 210.802L360.531 209.507L366.927 -39H371.488Z" fill="url(#paint4_radial_2034_4148)"/>
<path d="M392.788 -39L385.416 210.802L385.397 211.419H363.764L363.782 210.802L372.142 -39H392.788Z" fill="url(#paint5_linear_2034_4148)"/>
<path d="M354.57 -39L350.057 206.262L350.038 207.228H346.715L346.745 203.991L348.908 -39H354.57Z" fill="url(#paint6_linear_2034_4148)"/>
<path d="M348.909 -39L346.746 203.991L346.716 207.228L337.174 201.839L337.249 197.454L338.461 123.431L341.129 -39H348.909Z" fill="url(#paint7_radial_2034_4148)"/>
<path d="M391.736 35.0636L368.613 34.6445L364.804 35.8495H356.463L353.181 36.901L348.275 36.5568L339.488 37.2266L348.275 36.8187L353.181 37.5372C353.181 37.5372 354.996 36.3397 356.571 36.3996C358.143 36.4595 364.781 36.8112 364.781 36.8112C364.781 36.8112 367.401 35.1871 368.733 35.1273C370.065 35.0674 391.736 35.0599 391.736 35.0599V35.0636Z" fill="url(#paint8_linear_2034_4148)"/>
<path d="M337.174 201.84L337.615 98.6244L340.718 -18.5078L337.174 201.84Z" fill="url(#paint9_linear_2034_4148)"/>
<path style="mix-blend-mode:multiply" opacity="0.5" fill-rule="evenodd" clip-rule="evenodd" d="M351.041 90.2377C351.794 103.503 349.143 114.434 345.133 114.661C341.122 114.889 337.257 104.319 336.511 91.0601C335.758 77.795 338.402 66.8642 342.419 66.6364C346.43 66.4087 350.295 76.979 351.041 90.2377Z" fill="url(#paint10_linear_2034_4148)"/>
<path fill-rule="evenodd" clip-rule="evenodd" d="M349.778 89.5442C349.778 101.822 346.767 111.779 343.047 111.779C342.667 111.779 341.927 111.944 341.567 111.741C338.379 109.995 336.323 100.57 336.323 89.5379C336.323 78.5058 336.215 69.4031 339.271 67.3029C339.713 66.9993 342.579 67.3029 343.053 67.3029C346.767 67.3029 349.784 77.2596 349.784 89.5379L349.778 89.5442Z" fill="url(#paint11_linear_2034_4148)"/>
<path fill-rule="evenodd" clip-rule="evenodd" d="M347.024 89.1747C347.72 101.434 345.272 111.549 341.565 111.758C337.858 111.966 334.284 102.199 333.595 89.9338C332.899 77.6745 335.347 67.5597 339.054 67.3509C342.761 67.1422 346.335 76.9091 347.024 89.1747Z" fill="url(#paint12_linear_2034_4148)"/>
<path fill-rule="evenodd" clip-rule="evenodd" d="M320.367 66.8072C320.367 66.8072 336.087 97.9045 337.788 98.1892C339.49 98.4801 344.139 90.4844 339.262 78.8324C339.597 77.7634 328.546 62.7461 328.546 62.7461L320.367 66.8009V66.8072Z" fill="url(#paint13_linear_2034_4148)"/>
<path fill-rule="evenodd" clip-rule="evenodd" d="M336.317 69.6042C334.697 74.4244 326.297 83.1096 321.666 81.1297C319.174 80.067 308.028 66.1377 303.252 60.0776C301.911 58.3697 301.076 57.288 301.076 57.288L332.072 41.9102C332.072 41.9102 335.172 53.9986 336.247 62.4372V62.4561C336.652 65.619 336.76 68.2821 336.317 69.5979V69.6042Z" fill="url(#paint14_linear_2034_4148)"/>
<path fill-rule="evenodd" clip-rule="evenodd" d="M301.074 57.2966C303.212 61.6108 333.905 45.6762 332.07 41.9251C330.09 37.8829 299.297 53.7099 301.074 57.2966Z" fill="#3F55A1"/>
<path fill-rule="evenodd" clip-rule="evenodd" d="M307.495 54.1514C308.747 56.6817 326.757 47.3322 325.681 45.1309C324.524 42.7587 306.451 52.0449 307.495 54.1514Z" fill="#320061"/>
<path style="mix-blend-mode:multiply" opacity="0.5" fill-rule="evenodd" clip-rule="evenodd" d="M336.315 69.607C334.695 74.4272 326.295 83.1124 321.664 81.1325C319.172 80.0697 308.026 66.1405 303.25 60.0804L303.459 59.7578C303.459 59.7578 320.374 76.54 326.858 75.3507C336.258 73.6238 335.543 64.9892 336.245 62.4652C336.65 65.6281 336.757 68.2912 336.315 69.607Z" fill="url(#paint15_linear_2034_4148)"/>
<path style="mix-blend-mode:multiply" opacity="0.5" fill-rule="evenodd" clip-rule="evenodd" d="M327.213 80.059L331.742 88.5165C331.742 88.5165 334.07 84.3731 334.835 79.0089C335.601 73.6447 335.152 72 335.152 72C335.152 72 331.666 78.7179 327.213 80.059Z" fill="url(#paint16_linear_2034_4148)"/>
<path fill-rule="evenodd" clip-rule="evenodd" d="M307.495 54.1504C307.28 53.6633 311.904 50.0893 319.963 50.0703C319.963 50.0703 311.082 55.9596 307.495 54.1504Z" fill="#19001A"/>
<g style="mix-blend-mode:soft-light">
<path fill-rule="evenodd" clip-rule="evenodd" d="M349.454 82.7541H346.374C346.374 82.7541 345.14 74.8533 343.534 72.0067C341.927 69.1601 341.807 69.002 341.807 69.002L345.172 68.4453C345.172 68.4453 347.633 71.235 349.448 82.7541H349.454Z" fill="#6E0076"/>
</g>
<g style="mix-blend-mode:soft-light" opacity="0.5">
<path fill-rule="evenodd" clip-rule="evenodd" d="M331.375 46.1331C332.691 46.0572 337.555 63.358 332.988 68.4502C328.421 73.5425 315.877 60.9606 315.877 58.8225C315.877 56.6844 328.661 46.2975 331.381 46.1394L331.375 46.1331Z" fill="#6E0076"/>
</g>
<path fill-rule="evenodd" clip-rule="evenodd" d="M326.271 47.9258C326.271 47.9258 320.053 53.252 314.6 55.9658C309.147 58.6795 303.574 57.8951 303.574 57.8951C303.574 57.8951 313.297 56.5478 326.271 47.9258Z" fill="#2E79A3"/>
<path opacity="0.2" d="M347.461 80.304L347.297 79.6651C347.297 79.6651 338.359 80.4875 335.057 65.5777L334.355 65.2235C334.355 65.2235 334.374 69.0253 334.045 69.2403C331.755 70.7269 328.478 60.7006 328.478 60.7006L327.377 60.3906C327.377 60.3906 331.888 72.8776 331.495 75.3067C331.103 77.7358 325.467 73.8518 323.696 68.0068L323.183 67.9436C323.183 67.9436 326.897 73.662 322.108 74.8006C317.326 75.9393 315.58 68.1523 315.58 68.1523L315.08 68.2282C315.08 68.2282 324.347 98.1742 347.658 100.926L347.702 100.002C347.702 100.002 339.023 100.47 335.854 94.3029C332.685 88.1353 347.828 97.3013 347.828 97.3013L347.879 96.2385C347.879 96.2385 343.919 95.5364 343.774 93.3414C343.634 91.1463 348.088 92.0256 348.088 92.0256L348.113 91.4942C348.113 91.4942 343.761 89.7547 343.546 84.8269C343.337 79.8929 347.461 80.2977 347.461 80.2977V80.304ZM326.416 74.2313C327.39 75.2941 332.387 81.8855 330.844 82.4232C329.3 82.9545 323.772 77.1791 323.772 76.1923C323.772 75.2055 325.435 73.1749 326.416 74.2313ZM330.477 85.8517C330.04 85.9466 328.345 83.1127 329.016 82.4295C329.224 82.2144 330.078 82.7458 330.477 83.2202C330.869 83.682 330.913 85.7568 330.477 85.8517ZM343.046 93.8601C342.61 93.955 339.289 92.6202 339.649 91.0578C339.725 90.7288 340.927 90.305 341.958 91.0578C342.426 91.3994 343.483 93.7652 343.046 93.8601ZM331.47 90.9123C327.39 90.6403 320.508 80.5381 320.558 78.1976C320.577 77.1412 321.045 77.2297 323.152 77.6725C325.258 78.1153 334.266 91.102 331.47 90.9186V90.9123ZM334.772 76.7933C333.905 76.983 330.547 71.2582 331.881 69.8855C332.299 69.4554 333.994 70.5308 334.772 71.4733C335.55 72.4158 335.639 76.6035 334.772 76.7869V76.7933Z" fill="#BFD1FF"/>
<path d="M1.4362 -39L6.12883 210.802H29.4198L36.0134 206.262L39.3252 203.991L48.8227 197.454L49.2344 197.173L47.6103 123.431L44.0291 -39H1.4362Z" fill="url(#paint17_radial_2034_4148)"/>
<path d="M-8.00131 -39L-0.127871 210.802H29.4199L25.7901 -39H-8.00131Z" fill="url(#paint18_linear_2034_4148)"/>
<path d="M14.5821 -39L22.2872 210.802L22.3059 211.419L23.3499 210.802L25.5391 209.507L19.1438 -39H14.5821Z" fill="url(#paint19_radial_2034_4148)"/>
<path d="M-6.71724 -39L0.654721 210.802L0.67345 211.419H22.3066L22.288 210.802L13.928 -39H-6.71724Z" fill="url(#paint20_linear_2034_4148)"/>
<path d="M31.5008 -39L36.0137 206.262L36.0325 207.228H39.3555L39.3255 203.991L37.1626 -39H31.5008Z" fill="url(#paint21_linear_2034_4148)"/>
<path d="M37.1612 -39L39.3241 203.991L39.3541 207.228L48.8965 201.839L48.8216 197.454L47.6092 123.431L44.941 -39H37.1612Z" fill="url(#paint22_radial_2034_4148)"/>
<path d="M-5.66549 35.0636L17.4571 34.6445L21.2666 35.8495H29.6078L32.8896 36.901L37.7955 36.5568L46.582 37.2266L37.7955 36.8187L32.8896 37.5372C32.8896 37.5372 31.0747 36.3397 29.4993 36.3996C27.9276 36.4595 21.289 36.8112 21.289 36.8112C21.289 36.8112 18.6696 35.1871 17.3374 35.1273C16.0052 35.0674 -5.66549 35.0599 -5.66549 35.0599V35.0636Z" fill="url(#paint23_linear_2034_4148)"/>
<path d="M48.8965 201.84L48.4549 98.6244L45.3527 -18.5078L48.8965 201.84Z" fill="url(#paint24_linear_2034_4148)"/>
<path style="mix-blend-mode:multiply" opacity="0.5" fill-rule="evenodd" clip-rule="evenodd" d="M35.0293 90.2377C34.2765 103.503 36.927 114.434 40.9375 114.661C44.948 114.889 48.8131 104.319 49.5595 91.0601C50.3123 77.795 47.6681 66.8642 43.6513 66.6364C39.6408 66.4087 35.7757 76.979 35.0293 90.2377Z" fill="url(#paint25_linear_2034_4148)"/>
<path fill-rule="evenodd" clip-rule="evenodd" d="M36.2927 89.5442C36.2927 101.822 39.3038 111.779 43.0233 111.779C43.4029 111.779 44.143 111.944 44.5035 111.741C47.6917 109.995 49.7476 100.57 49.7476 89.5379C49.7476 78.5058 49.8551 69.4031 46.7998 67.3029C46.357 66.9993 43.4914 67.3029 43.017 67.3029C39.3038 67.3029 36.2864 77.2596 36.2864 89.5379L36.2927 89.5442Z" fill="url(#paint26_linear_2034_4148)"/>
<path fill-rule="evenodd" clip-rule="evenodd" d="M39.046 89.1747C38.3502 101.434 40.7983 111.549 44.5051 111.758C48.212 111.966 51.786 102.199 52.4756 89.9338C53.1714 77.6745 50.7233 67.5597 47.0164 67.3509C43.3096 67.1422 39.7355 76.9091 39.046 89.1747Z" fill="url(#paint27_linear_2034_4148)"/>
<path fill-rule="evenodd" clip-rule="evenodd" d="M65.7031 66.8072C65.7031 66.8072 49.9837 97.9045 48.282 98.1892C46.5804 98.4801 41.931 90.4844 46.8082 78.8324C46.4729 77.7634 57.5239 62.7461 57.5239 62.7461L65.7031 66.8009V66.8072Z" fill="url(#paint28_linear_2034_4148)"/>
<path fill-rule="evenodd" clip-rule="evenodd" d="M49.7535 69.6042C51.3729 74.4244 59.7734 83.1096 64.4039 81.1297C66.8962 80.067 78.0421 66.1377 82.818 60.0776C84.1591 58.3697 84.9941 57.288 84.9941 57.288L53.9981 41.9102C53.9981 41.9102 50.8985 53.9986 49.8231 62.4372V62.4561C49.4182 65.619 49.3107 68.2821 49.7535 69.5979V69.6042Z" fill="url(#paint29_linear_2034_4148)"/>
<path fill-rule="evenodd" clip-rule="evenodd" d="M84.9963 57.2966C82.8582 61.6108 52.1657 45.6762 54.0002 41.9251C55.9801 37.8829 86.7738 53.7099 84.9963 57.2966Z" fill="#3F55A1"/>
<path fill-rule="evenodd" clip-rule="evenodd" d="M78.5756 54.1514C77.3231 56.6817 59.3138 47.3322 60.3892 45.1309C61.5468 42.7587 79.6194 52.0449 78.5756 54.1514Z" fill="#320061"/>
<path style="mix-blend-mode:multiply" opacity="0.5" fill-rule="evenodd" clip-rule="evenodd" d="M49.7558 69.607C51.3752 74.4272 59.7757 83.1124 64.4061 81.1325C66.8985 80.0697 78.0444 66.1405 82.8203 60.0804L82.6116 59.7578C82.6116 59.7578 65.6966 76.54 59.2127 75.3507C49.8127 73.6238 50.5275 64.9892 49.8254 62.4652C49.4205 65.6281 49.313 68.2912 49.7558 69.607Z" fill="url(#paint30_linear_2034_4148)"/>
<path style="mix-blend-mode:multiply" opacity="0.5" fill-rule="evenodd" clip-rule="evenodd" d="M58.8574 80.059L54.3283 88.5165C54.3283 88.5165 52.0004 84.3731 51.235 79.0089C50.4695 73.6447 50.9187 72 50.9187 72C50.9187 72 54.4041 78.7179 58.8574 80.059Z" fill="url(#paint31_linear_2034_4148)"/>
<path fill-rule="evenodd" clip-rule="evenodd" d="M78.5748 54.1504C78.7899 53.6633 74.1658 50.0893 66.1069 50.0703C66.1069 50.0703 74.9882 55.9596 78.5748 54.1504Z" fill="#19001A"/>
<g style="mix-blend-mode:soft-light">
<path fill-rule="evenodd" clip-rule="evenodd" d="M36.6159 82.7541H39.6965C39.6965 82.7541 40.93 74.8533 42.5368 72.0067C44.1435 69.1601 44.2637 69.002 44.2637 69.002L40.8984 68.4453C40.8984 68.4453 38.4377 71.235 36.6222 82.7541H36.6159Z" fill="#6E0076"/>
</g>
<g style="mix-blend-mode:soft-light" opacity="0.5">
<path fill-rule="evenodd" clip-rule="evenodd" d="M54.6953 46.1331C53.3796 46.0572 48.515 63.358 53.0822 68.4502C57.6494 73.5425 70.1934 60.9606 70.1934 58.8225C70.1934 56.6844 57.4091 46.2975 54.689 46.1394L54.6953 46.1331Z" fill="#6E0076"/>
</g>
<path fill-rule="evenodd" clip-rule="evenodd" d="M59.7994 47.9258C59.7994 47.9258 66.0176 53.252 71.4704 55.9658C76.9232 58.6795 82.4961 57.8951 82.4961 57.8951C82.4961 57.8951 72.7735 56.5478 59.7994 47.9258Z" fill="#2E79A3"/>
<path opacity="0.2" d="M38.6089 80.304L38.7733 79.6651C38.7733 79.6651 47.7116 80.4875 51.0136 65.5777L51.7157 65.2235C51.7157 65.2235 51.6968 69.0253 52.0257 69.2403C54.3156 70.7269 57.5923 60.7006 57.5923 60.7006L58.693 60.3906C58.693 60.3906 54.1828 72.8776 54.575 75.3067C54.9672 77.7358 60.6034 73.8518 62.3746 68.0068L62.8869 67.9436C62.8869 67.9436 59.1738 73.662 63.9624 74.8006C68.7446 75.9393 70.4905 68.1523 70.4905 68.1523L70.9902 68.2282C70.9902 68.2282 61.723 98.1742 38.4127 100.926L38.3685 100.002C38.3685 100.002 47.0474 100.47 50.2166 94.3029C53.3857 88.1353 38.2419 97.3013 38.2419 97.3013L38.1913 96.2385C38.1913 96.2385 42.1512 95.5364 42.2967 93.3414C42.4359 91.1463 37.9825 92.0256 37.9825 92.0256L37.9573 91.4942C37.9573 91.4942 42.3094 89.7547 42.5244 84.8269C42.7332 79.8929 38.6089 80.2977 38.6089 80.2977V80.304ZM59.6545 74.2313C58.6803 75.2941 53.683 81.8855 55.2265 82.4232C56.77 82.9545 62.2987 77.1791 62.2987 76.1923C62.2987 75.2055 60.635 73.1749 59.6545 74.2313ZM55.5934 85.8517C56.0299 85.9466 57.7252 83.1127 57.0546 82.4295C56.8459 82.2144 55.9919 82.7458 55.5934 83.2202C55.2012 83.682 55.157 85.7568 55.5934 85.8517ZM43.0242 93.8601C43.4607 93.955 46.7817 92.6202 46.4211 91.0578C46.3452 90.7288 45.1433 90.305 44.1122 91.0578C43.6441 91.3994 42.5877 93.7652 43.0242 93.8601ZM54.6002 90.9123C58.6803 90.6403 65.5627 80.5381 65.5121 78.1976C65.4932 77.1412 65.0251 77.2297 62.9186 77.6725C60.8121 78.1153 51.8043 91.102 54.6002 90.9186V90.9123ZM51.2982 76.7933C52.1649 76.983 55.5238 71.2582 54.1891 69.8855C53.7716 69.4554 52.0763 70.5308 51.2982 71.4733C50.5202 72.4158 50.4316 76.6035 51.2982 76.7869V76.7933Z" fill="#BFD1FF"/>
<g style="mix-blend-mode:screen" opacity="0.2">
<path d="M11.98 23.9907L10.111 26.3639C20.2688 31.8367 42.9395 44.5296 41.8737 48.1736C40.6189 52.478 29.4225 63.5831 -12.3843 54.9664L-20.9049 65.803C-20.9049 65.803 17.3282 60.3479 23.5722 65.5736C29.8136 70.7933 59.9427 51.4305 62.1996 49.7996C63.153 49.1089 66.2082 48.5276 69.5616 48.1306C52.73 49.0635 33.4488 42.6935 11.974 23.9934L11.98 23.9907ZM45.2542 57.1804C45.2542 57.1804 53.6348 50.6277 57.1531 49.7756C60.6714 48.9234 58.1879 52.0527 45.2542 57.1804Z" fill="#BFD1FF"/>
</g>
<g style="mix-blend-mode:screen" opacity="0.2">
<path d="M146.631 -19.0014C142.56 -10.2095 129.336 17.0487 116.501 29.3439C101.082 44.1069 93.9981 50.3998 92.2336 46.7903C90.4692 43.1808 86.0952 44.9756 83.5883 46.4008C82.3 47.1324 89.5524 63.7892 96.8774 79.7508C89.4242 64.1488 81.5319 48.0938 80.4798 47.7694C79.6544 47.5171 76.9076 47.5289 73.7747 47.7413C115.151 42.3718 140.802 -6.69684 146.619 -18.996L146.631 -19.0014Z" fill="#BFD1FF"/>
</g>
<g style="mix-blend-mode:screen" opacity="0.3">
<path d="M320.01 62.37C336.37 103.51 370.98 131.37 382.97 173.33L380.63 16.32L364.81 -2C366.1 48.85 356.25 52.94 353.51 47.13C350.7 41.16 333.66 6.1 333.17 2.34V4.72C335.08 12.13 346.68 34.04 346.9 34.72C347.94 37.99 349.31 46.16 346.5 43.36C344.22 41.08 335.8 21.85 333.28 15.15L333.15 20.51C333.15 20.51 360.05 72.96 361.46 83.89C362.86 94.82 362.58 111.91 361.46 113.7C351.13 130.24 326.04 68.14 320 62.36L320.01 62.37ZM360.53 57.07C361 57.07 361.46 53.1 364.27 56.08C364.27 56.08 364.27 62.04 363.33 62.04C362.39 62.04 360.06 57.07 360.52 57.07H360.53ZM365.2 90.58C363.33 72.81 367.07 77.49 373.15 66.74L371.28 115.36C371.28 115.36 367.07 108.35 365.2 90.58Z" fill="#BFD1FF"/>
</g>
</g>
</g>
</g>
<defs>
<filter id="filter0_dii_2034_4148" x="268.065" y="139.532" width="44.8703" height="41.8703" filterUnits="userSpaceOnUse" color-interpolation-filters="sRGB">
<feFlood flood-opacity="0" result="BackgroundImageFix"/>
<feColorMatrix in="SourceAlpha" type="matrix" values="0 0 0 0 0 0 0 0 0 0 0 0 0 0 0 0 0 0 127 0" result="hardAlpha"/>
<feOffset dy="5.96758"/>
<feGaussianBlur stdDeviation="5.96758"/>
<feColorMatrix type="matrix" values="0 0 0 0 0.263597 0 0 0 0 0 0 0 0 0 0.00439328 0 0 0 0.7335 0"/>
<feBlend mode="normal" in2="BackgroundImageFix" result="effect1_dropShadow_2034_4148"/>
<feBlend mode="normal" in="SourceGraphic" in2="effect1_dropShadow_2034_4148" result="shape"/>
<feColorMatrix in="SourceAlpha" type="matrix" values="0 0 0 0 0 0 0 0 0 0 0 0 0 0 0 0 0 0 127 0" result="hardAlpha"/>
<feOffset dy="3.72642"/>
<feGaussianBlur stdDeviation="1.86321"/>
<feComposite in2="hardAlpha" operator="arithmetic" k2="-1" k3="1"/>
<feColorMatrix type="matrix" values="0 0 0 0 1 0 0 0 0 0.509841 0 0 0 0 0.51801 0 0 0 1 0"/>
<feBlend mode="normal" in2="shape" result="effect2_innerShadow_2034_4148"/>
<feColorMatrix in="SourceAlpha" type="matrix" values="0 0 0 0 0 0 0 0 0 0 0 0 0 0 0 0 0 0 127 0" result="hardAlpha"/>
<feOffset dy="-3.72642"/>
<feGaussianBlur stdDeviation="1.86321"/>
<feComposite in2="hardAlpha" operator="arithmetic" k2="-1" k3="1"/>
<feColorMatrix type="matrix" values="0 0 0 0 0.552697 0 0 0 0 0 0 0 0 0 0.00921161 0 0 0 1 0"/>
<feBlend mode="normal" in2="effect2_innerShadow_2034_4148" result="effect3_innerShadow_2034_4148"/>
</filter>
<filter id="filter1_i_2034_4148" x="20" y="20" width="352" height="105" filterUnits="userSpaceOnUse" color-interpolation-filters="sRGB">
<feFlood flood-opacity="0" result="BackgroundImageFix"/>
<feBlend mode="normal" in="SourceGraphic" in2="BackgroundImageFix" result="shape"/>
<feColorMatrix in="SourceAlpha" type="matrix" values="0 0 0 0 0 0 0 0 0 0 0 0 0 0 0 0 0 0 127 0" result="hardAlpha"/>
<feOffset dy="4"/>
<feGaussianBlur stdDeviation="7.15"/>
<feComposite in2="hardAlpha" operator="arithmetic" k2="-1" k3="1"/>
<feColorMatrix type="matrix" values="0 0 0 0 1 0 0 0 0 1 0 0 0 0 1 0 0 0 0.35 0"/>
<feBlend mode="normal" in2="shape" result="effect1_innerShadow_2034_4148"/>
</filter>
<linearGradient id="paint0_linear_2034_4148" x1="290.5" y1="145.5" x2="290.5" y2="163.5" gradientUnits="userSpaceOnUse">
<stop offset="1" stop-color="#FF6868"/>
<stop stop-color="#F61212"/>
</linearGradient>
<radialGradient id="paint1_radial_2034_4148" cx="0" cy="0" r="1" gradientUnits="userSpaceOnUse" gradientTransform="translate(192.596 110) scale(170.598 83)">
<stop stop-color="#4A00DD"/>
<stop offset="0.99"/>
</radialGradient>
<radialGradient id="paint2_radial_2034_4148" cx="0" cy="0" r="1" gradientUnits="userSpaceOnUse" gradientTransform="translate(356.763 68.3166) scale(89.9196 89.9195)">
<stop stop-color="#190129"/>
<stop offset="0.99" stop-color="#010019"/>
</radialGradient>
<linearGradient id="paint3_linear_2034_4148" x1="375.361" y1="210.802" x2="375.361" y2="-39" gradientUnits="userSpaceOnUse">
<stop stop-color="#3B2268"/>
<stop offset="0.38" stop-color="#2B1A58"/>
<stop offset="0.99" stop-color="#0A0A39"/>
</linearGradient>
<radialGradient id="paint4_radial_2034_4148" cx="0" cy="0" r="1" gradientUnits="userSpaceOnUse" gradientTransform="translate(367.428 65.5063) scale(88.6211 88.621)">
<stop stop-color="#190129"/>
<stop offset="0.99" stop-color="#010019"/>
</radialGradient>
<linearGradient id="paint5_linear_2034_4148" x1="378.276" y1="211.419" x2="378.276" y2="-39" gradientUnits="userSpaceOnUse">
<stop stop-color="#442B71"/>
<stop offset="0.4" stop-color="#352161"/>
<stop offset="0.99" stop-color="#181042"/>
</linearGradient>
<linearGradient id="paint6_linear_2034_4148" x1="350.64" y1="207.228" x2="350.64" y2="-39" gradientUnits="userSpaceOnUse">
<stop stop-color="#231C5A"/>
<stop offset="0.47" stop-color="#19134A"/>
<stop offset="0.99" stop-color="#0C0633"/>
</linearGradient>
<radialGradient id="paint7_radial_2034_4148" cx="0" cy="0" r="1" gradientUnits="userSpaceOnUse" gradientTransform="translate(345.029 62.5575) scale(87.154 87.1541)">
<stop stop-color="#190129"/>
<stop offset="0.99" stop-color="#010019"/>
</radialGradient>
<linearGradient id="paint8_linear_2034_4148" x1="391.736" y1="36.0927" x2="339.488" y2="36.0927" gradientUnits="userSpaceOnUse">
<stop stop-color="#06082F"/>
<stop offset="0.99" stop-color="#010021"/>
</linearGradient>
<linearGradient id="paint9_linear_2034_4148" x1="338.948" y1="201.84" x2="338.948" y2="-18.5078" gradientUnits="userSpaceOnUse">
<stop stop-color="#039CD4"/>
<stop offset="0.13" stop-color="#0787C2"/>
<stop offset="0.54" stop-color="#154588"/>
<stop offset="0.84" stop-color="#1D1B63"/>
<stop offset="1" stop-color="#210C56"/>
</linearGradient>
<linearGradient id="paint10_linear_2034_4148" x1="338.854" y1="41.1098" x2="346.321" y2="116.166" gradientUnits="userSpaceOnUse">
<stop stop-color="#0300A1"/>
<stop offset="0.18" stop-color="#100080"/>
<stop offset="0.37" stop-color="#1B0066"/>
<stop offset="0.57" stop-color="#220053"/>
<stop offset="0.77" stop-color="#270048"/>
<stop offset="1" stop-color="#290045"/>
</linearGradient>
<linearGradient id="paint11_linear_2034_4148" x1="343.047" y1="135.779" x2="343.047" y2="65.6835" gradientUnits="userSpaceOnUse">
<stop stop-color="#221C52"/>
<stop offset="0.47" stop-color="#181342"/>
<stop offset="0.99" stop-color="#0B062B"/>
</linearGradient>
<linearGradient id="paint12_linear_2034_4148" x1="335.753" y1="43.756" x2="342.659" y2="113.142" gradientUnits="userSpaceOnUse">
<stop stop-color="#050016"/>
<stop offset="0.54" stop-color="#02000E"/>
<stop offset="1" stop-color="#000004"/>
</linearGradient>
<linearGradient id="paint13_linear_2034_4148" x1="315.595" y1="47.4064" x2="342.871" y2="96.9542" gradientUnits="userSpaceOnUse">
<stop stop-color="#030004"/>
<stop offset="0.99"/>
</linearGradient>
<linearGradient id="paint14_linear_2034_4148" x1="328.637" y1="70.5025" x2="297.673" y2="16.8666" gradientUnits="userSpaceOnUse">
<stop stop-color="#030004"/>
<stop offset="0.25" stop-color="#10003D"/>
<stop offset="0.49" stop-color="#1B006B"/>
<stop offset="0.7" stop-color="#23008C"/>
<stop offset="0.88" stop-color="#2800A0"/>
<stop offset="0.99" stop-color="#2A00A8"/>
</linearGradient>
<linearGradient id="paint15_linear_2034_4148" x1="318.577" y1="59.1505" x2="345.215" y2="107.555" gradientUnits="userSpaceOnUse">
<stop stop-color="#0300A1"/>
<stop offset="0.18" stop-color="#100080"/>
<stop offset="0.37" stop-color="#1B0066"/>
<stop offset="0.57" stop-color="#220053"/>
<stop offset="0.77" stop-color="#270048"/>
<stop offset="1" stop-color="#290045"/>
</linearGradient>
<linearGradient id="paint16_linear_2034_4148" x1="331.786" y1="77.2377" x2="343.464" y2="98.4605" gradientUnits="userSpaceOnUse">
<stop stop-color="#0300A1"/>
<stop offset="0.18" stop-color="#100080"/>
<stop offset="0.37" stop-color="#1B0066"/>
<stop offset="0.57" stop-color="#220053"/>
<stop offset="0.77" stop-color="#270048"/>
<stop offset="1" stop-color="#290045"/>
</linearGradient>
<radialGradient id="paint17_radial_2034_4148" cx="0" cy="0" r="1" gradientUnits="userSpaceOnUse" gradientTransform="translate(29.3076 68.3166) rotate(180) scale(89.9196 89.9195)">
<stop stop-color="#190129"/>
<stop offset="0.99" stop-color="#010019"/>
</radialGradient>
<linearGradient id="paint18_linear_2034_4148" x1="10.7093" y1="210.802" x2="10.7093" y2="-39" gradientUnits="userSpaceOnUse">
<stop stop-color="#3B2268"/>
<stop offset="0.38" stop-color="#2B1A58"/>
<stop offset="0.99" stop-color="#0A0A39"/>
</linearGradient>
<radialGradient id="paint19_radial_2034_4148" cx="0" cy="0" r="1" gradientUnits="userSpaceOnUse" gradientTransform="translate(18.6423 65.5063) rotate(180) scale(88.6211 88.621)">
<stop stop-color="#190129"/>
<stop offset="0.99" stop-color="#010019"/>
</radialGradient>
<linearGradient id="paint20_linear_2034_4148" x1="7.7947" y1="211.419" x2="7.7947" y2="-39" gradientUnits="userSpaceOnUse">
<stop stop-color="#442B71"/>
<stop offset="0.4" stop-color="#352161"/>
<stop offset="0.99" stop-color="#181042"/>
</linearGradient>
<linearGradient id="paint21_linear_2034_4148" x1="35.43" y1="207.228" x2="35.43" y2="-39" gradientUnits="userSpaceOnUse">
<stop stop-color="#231C5A"/>
<stop offset="0.47" stop-color="#19134A"/>
<stop offset="0.99" stop-color="#0C0633"/>
</linearGradient>
<radialGradient id="paint22_radial_2034_4148" cx="0" cy="0" r="1" gradientUnits="userSpaceOnUse" gradientTransform="translate(41.0418 62.5575) rotate(180) scale(87.154 87.1541)">
<stop stop-color="#190129"/>
<stop offset="0.99" stop-color="#010019"/>
</radialGradient>
<linearGradient id="paint23_linear_2034_4148" x1="-5.66549" y1="36.0927" x2="46.582" y2="36.0927" gradientUnits="userSpaceOnUse">
<stop stop-color="#06082F"/>
<stop offset="0.99" stop-color="#010021"/>
</linearGradient>
<linearGradient id="paint24_linear_2034_4148" x1="47.1227" y1="201.84" x2="47.1227" y2="-18.5078" gradientUnits="userSpaceOnUse">
<stop stop-color="#039CD4"/>
<stop offset="0.13" stop-color="#0787C2"/>
<stop offset="0.54" stop-color="#154588"/>
<stop offset="0.84" stop-color="#1D1B63"/>
<stop offset="1" stop-color="#210C56"/>
</linearGradient>
<linearGradient id="paint25_linear_2034_4148" x1="47.2166" y1="41.1098" x2="39.7491" y2="116.166" gradientUnits="userSpaceOnUse">
<stop stop-color="#0300A1"/>
<stop offset="0.18" stop-color="#100080"/>
<stop offset="0.37" stop-color="#1B0066"/>
<stop offset="0.57" stop-color="#220053"/>
<stop offset="0.77" stop-color="#270048"/>
<stop offset="1" stop-color="#290045"/>
</linearGradient>
<linearGradient id="paint26_linear_2034_4148" x1="43.0233" y1="135.779" x2="43.0233" y2="65.6835" gradientUnits="userSpaceOnUse">
<stop stop-color="#221C52"/>
<stop offset="0.47" stop-color="#181342"/>
<stop offset="0.99" stop-color="#0B062B"/>
</linearGradient>
<linearGradient id="paint27_linear_2034_4148" x1="50.3173" y1="43.756" x2="43.4116" y2="113.142" gradientUnits="userSpaceOnUse">
<stop stop-color="#050016"/>
<stop offset="0.54" stop-color="#02000E"/>
<stop offset="1" stop-color="#000004"/>
</linearGradient>
<linearGradient id="paint28_linear_2034_4148" x1="70.4752" y1="47.4064" x2="43.1998" y2="96.9542" gradientUnits="userSpaceOnUse">
<stop stop-color="#030004"/>
<stop offset="0.99"/>
</linearGradient>
<linearGradient id="paint29_linear_2034_4148" x1="57.4329" y1="70.5025" x2="88.3974" y2="16.8666" gradientUnits="userSpaceOnUse">
<stop stop-color="#030004"/>
<stop offset="0.25" stop-color="#10003D"/>
<stop offset="0.49" stop-color="#1B006B"/>
<stop offset="0.7" stop-color="#23008C"/>
<stop offset="0.88" stop-color="#2800A0"/>
<stop offset="0.99" stop-color="#2A00A8"/>
</linearGradient>
<linearGradient id="paint30_linear_2034_4148" x1="67.4931" y1="59.1505" x2="40.8554" y2="107.555" gradientUnits="userSpaceOnUse">
<stop stop-color="#0300A1"/>
<stop offset="0.18" stop-color="#100080"/>
<stop offset="0.37" stop-color="#1B0066"/>
<stop offset="0.57" stop-color="#220053"/>
<stop offset="0.77" stop-color="#270048"/>
<stop offset="1" stop-color="#290045"/>
</linearGradient>
<linearGradient id="paint31_linear_2034_4148" x1="54.2839" y1="77.2377" x2="42.6066" y2="98.4605" gradientUnits="userSpaceOnUse">
<stop stop-color="#0300A1"/>
<stop offset="0.18" stop-color="#100080"/>
<stop offset="0.37" stop-color="#1B0066"/>
<stop offset="0.57" stop-color="#220053"/>
<stop offset="0.77" stop-color="#270048"/>
<stop offset="1" stop-color="#290045"/>
</linearGradient>
<clipPath id="clip0_2034_4148">
<path d="M0 40C0 17.9086 17.9086 0 40 0H350C372.091 0 390 17.9086 390 40V347H0V40Z" fill="white"/>
</clipPath>
<clipPath id="clip1_2034_4148">
<rect x="20" y="20" width="352" height="101" rx="24" fill="white"/>
</clipPath>
</defs>
</svg>
