<svg width="362" height="78" viewBox="0 0 362 78" fill="none" xmlns="http://www.w3.org/2000/svg">
<g filter="url(#filter0_d_2052_4064)">
<rect x="2" y="2" width="358" height="74" rx="20" fill="#2C004E"/>
</g>
<g clip-path="url(#clip0_2052_4064)">
<path d="M4 24C4 12.9543 12.9543 4 24 4H338C349.046 4 358 12.9543 358 24V54C358 65.0457 349.046 74 338 74H24C12.9543 74 4 65.0457 4 54V24Z" fill="url(#paint0_linear_2052_4064)"/>
</g>
<path d="M345.275 26.5746C344.276 28.6339 342.621 26.9178 340.334 25.1655C337.48 23.035 335.994 22.288 336.993 20.2287C337.991 18.1694 340.655 17.9206 342.942 19.6729C345.229 21.4253 346.273 24.5153 345.275 26.5746Z" fill="#D9D9D9" fill-opacity="0.28" style="mix-blend-mode:overlay"/>
<path d="M334.101 20.3731C334.024 21.331 332.963 21.7575 331.58 21.5812C329.865 21.3815 329.017 20.6924 329.094 19.7345C329.172 18.7766 330.355 18.1429 331.738 18.3193C333.12 18.4956 334.179 19.4151 334.101 20.3731Z" fill="#D9D9D9" fill-opacity="0.28" style="mix-blend-mode:overlay"/>
<defs>
<filter id="filter0_d_2052_4064" x="0" y="0" width="362" height="78" filterUnits="userSpaceOnUse" color-interpolation-filters="sRGB">
<feFlood flood-opacity="0" result="BackgroundImageFix"/>
<feColorMatrix in="SourceAlpha" type="matrix" values="0 0 0 0 0 0 0 0 0 0 0 0 0 0 0 0 0 0 127 0" result="hardAlpha"/>
<feMorphology radius="2" operator="dilate" in="SourceAlpha" result="effect1_dropShadow_2052_4064"/>
<feOffset/>
<feComposite in2="hardAlpha" operator="out"/>
<feColorMatrix type="matrix" values="0 0 0 0 1 0 0 0 0 1 0 0 0 0 1 0 0 0 0.25 0"/>
<feBlend mode="normal" in2="BackgroundImageFix" result="effect1_dropShadow_2052_4064"/>
<feBlend mode="normal" in="SourceGraphic" in2="effect1_dropShadow_2052_4064" result="shape"/>
</filter>
<linearGradient id="paint0_linear_2052_4064" x1="351.587" y1="44" x2="-7.54349" y2="44" gradientUnits="userSpaceOnUse">
<stop stop-color="#FFE195"/>
<stop offset="0.15" stop-color="#FFB907"/>
<stop offset="1" stop-color="#E08200"/>
</linearGradient>
<clipPath id="clip0_2052_4064">
<rect width="4" height="70" rx="2" transform="matrix(-1 0 0 1 9 4)" fill="white"/>
</clipPath>
</defs>
</svg>
