<svg width="48" height="48" viewBox="0 0 48 48" fill="none" xmlns="http://www.w3.org/2000/svg">
<path d="M0 12C0 5.37258 5.37258 0 12 0H36C42.6274 0 48 5.37258 48 12V36C48 42.6274 42.6274 48 36 48H12C5.37258 48 0 42.6274 0 36V12Z" fill="white" fill-opacity="0.4"/>
<path d="M41.2212 13.926C41.0271 14.8156 40.7213 15.8691 40.304 17.0867C39.5946 19.1601 33.0321 36.5008 31.9558 38.759C30.8805 41.0163 29.9022 42.5997 29.023 43.5092C28.3951 44.1204 27.345 44.1622 25.8708 43.6324C25.0537 43.3392 24.3821 42.9456 23.8532 42.4496C23.3262 41.9536 23.1359 41.4875 23.2854 41.0511C23.4281 40.6326 23.6814 40.1108 24.0443 39.4866C24.2918 39.0542 24.5451 38.5771 24.8042 38.0533C25.0634 37.5285 25.2943 36.9709 25.4962 36.3795C25.7941 35.5068 31.6763 19.516 31.8005 18.7596C31.8442 18.4912 31.8714 18.2358 31.8801 17.9962C31.8976 17.5609 31.8568 17.1712 31.7578 16.8303C31.6055 16.3005 31.2532 15.9377 30.7029 15.7399C30.4603 15.6525 30.1934 15.7161 29.9023 15.9318C29.8498 15.9705 29.778 15.9656 29.7285 15.9238C27.2062 13.7928 24.5936 12.5622 22.0257 11.9619C13.827 10.0416 6.08531 14.5253 3.22526 16.4695C3.08065 16.5679 2.92149 16.3691 3.0428 16.2409C19.2744 -0.837317 38.758 11.4888 38.9463 11.608H38.9473C39.6305 11.8545 40.2002 12.1726 40.6544 12.5652C41.1086 12.9578 41.2968 13.4111 41.2202 13.925L41.2212 13.926Z" fill="black"/>
<path d="M36.7549 9.41699C31.2947 7.05556 19.9912 3.91245 9.23242 11.8652C13.0433 10.1621 18.2393 8.74835 23.6582 10.0176C26.2306 10.619 28.8358 11.8242 31.3467 13.8643C31.6701 13.7292 32.0369 13.6819 32.4209 13.8203C33.1872 14.0949 33.7276 14.639 33.9541 15.4199C34.0804 15.8552 34.1261 16.3288 34.1064 16.8271V16.8281C34.0963 17.1061 34.0644 17.3927 34.0166 17.6865V17.6875C33.9981 17.8004 33.948 17.9653 33.9033 18.1074C33.8509 18.2742 33.7797 18.4914 33.6924 18.749C33.5174 19.2655 33.2745 19.9599 32.9873 20.7705C32.4127 22.3925 31.6553 24.4919 30.8936 26.5928C29.3662 30.8051 27.8282 35.0026 27.6816 35.4316C27.5226 35.8976 27.3456 36.3452 27.1514 36.7744L26.9512 37.1982C26.6864 37.7334 26.4255 38.2256 26.1689 38.6729L26.167 38.6768C25.8148 39.2833 25.5896 39.7545 25.4717 40.1025L25.4697 40.1064C25.461 40.1318 25.4528 40.1653 25.4844 40.2432C25.5231 40.3385 25.6205 40.4905 25.8359 40.6934C26.273 41.1039 26.8491 41.4481 27.5869 41.7129C29.0003 42.2198 29.646 42.0439 29.9365 41.7666C30.7233 40.948 31.6535 39.4626 32.7168 37.2314C33.2378 36.1387 35.1333 31.2806 37.0049 26.3838C38.8709 21.5017 40.683 16.6634 41.0322 15.6426C41.4373 14.4579 41.7307 13.4435 41.918 12.5986C41.9429 12.3952 41.8882 12.1964 41.6074 11.9531L41.6084 11.9521C41.2635 11.6541 40.8196 11.3958 40.2627 11.1826H40.1758L39.9844 11.0586C39.9833 11.0579 39.9539 11.0394 39.8955 11.0039C39.8363 10.9679 39.7496 10.9159 39.6367 10.8506C39.5069 10.7755 39.3421 10.6829 39.1455 10.5762C39.0014 10.6935 38.8487 10.7951 38.6885 10.8721C38.3569 11.0314 37.8599 11.1449 37.3926 10.8682L37.3936 10.8672C36.9637 10.6133 36.8064 10.1737 36.7637 9.8291C36.747 9.69461 36.7458 9.55618 36.7549 9.41699Z" fill="#F3F4EE" stroke="black" stroke-width="1.53909"/>
<path d="M35.9147 19.6593C35.9147 19.6593 35.8196 19.7219 35.6672 19.8044C35.5168 19.8889 35.3159 20.0022 35.115 20.1145C34.917 20.2308 34.7103 20.3362 34.5531 20.4117C34.3978 20.4892 34.294 20.5409 34.294 20.5409C34.3367 20.4286 34.3668 20.3043 34.3775 20.1672C34.4046 19.7974 34.3939 19.5102 34.4095 19.2587C34.4095 19.2587 34.7899 19.045 35.1713 18.8303C35.5459 18.6007 35.9196 18.3711 35.9196 18.3711C35.9196 18.6166 35.9564 18.9098 35.9623 19.2796C35.9642 19.4177 35.9448 19.544 35.9137 19.6593H35.9147Z" fill="#F5BC81"/>
<path d="M34.2 20.5719C34.2048 20.5878 34.2145 20.6037 34.2271 20.6157C34.2572 20.6435 34.3009 20.6504 34.3378 20.6316L34.5969 20.5023C34.7386 20.4338 34.9531 20.3254 35.1637 20.2022L35.7139 19.893C35.8692 19.8086 35.9672 19.7439 35.9672 19.7439C35.9876 19.731 36.0022 19.7102 36.009 19.6863C36.0449 19.5531 36.0623 19.4159 36.0604 19.2788C36.0575 19.0859 36.0458 18.913 36.0361 18.7599C36.0264 18.6138 36.0187 18.4876 36.0187 18.3713C36.0187 18.3345 36.0002 18.3007 35.9692 18.2828C35.9381 18.2649 35.9003 18.2649 35.8692 18.2838L35.121 18.743L34.362 19.1694C34.3319 19.1863 34.3135 19.2171 34.3106 19.2509C34.3038 19.3603 34.3019 19.4756 34.2989 19.6018C34.296 19.7648 34.2931 19.9497 34.2776 20.1584C34.2679 20.2777 34.2417 20.393 34.2 20.5033C34.1912 20.5252 34.1912 20.5491 34.198 20.5709L34.2 20.5719ZM35.8285 19.5949C35.7896 19.6187 35.7159 19.6634 35.6198 19.7161L35.0666 20.0272C34.8599 20.1485 34.6503 20.2538 34.5105 20.3214L34.4513 20.3513C34.463 20.2936 34.4707 20.236 34.4756 20.1763C34.4911 19.9606 34.494 19.7728 34.4969 19.6068C34.4989 19.5054 34.4999 19.411 34.5047 19.3215L35.218 18.92L35.8246 18.5482C35.8275 18.6208 35.8323 18.6973 35.8382 18.7748C35.8479 18.9249 35.8595 19.0959 35.8624 19.2828C35.8634 19.3881 35.8517 19.4935 35.8275 19.5958L35.8285 19.5949Z" fill="#BF692D"/>
<path d="M41.7813 15.3091C41.7813 15.3091 41.4416 15.6082 41.0941 15.8975C40.7506 16.1907 40.3963 16.474 40.3963 16.474C40.4099 16.3577 40.409 16.2315 40.3857 16.0973C40.3255 15.7375 40.2449 15.4532 40.209 15.2087C40.209 15.2087 40.2935 15.1371 40.4206 15.0308C40.5477 14.9244 40.7166 14.7823 40.8826 14.6371C41.2184 14.3499 41.5444 14.0547 41.5444 14.0547C41.5881 14.2952 41.6803 14.5765 41.757 14.9343C41.7861 15.0685 41.791 15.1928 41.7822 15.3091H41.7813Z" fill="#F5BC81"/>
<path d="M40.3033 16.5031C40.3111 16.527 40.3266 16.5479 40.3489 16.5608C40.3829 16.5807 40.4266 16.5777 40.4586 16.5528C40.4615 16.5499 40.8177 16.2656 41.1583 15.9744C41.5028 15.6891 41.8435 15.3879 41.8474 15.3849C41.8668 15.367 41.8794 15.3432 41.8813 15.3164C41.892 15.1782 41.8833 15.046 41.8551 14.9118C41.8173 14.7339 41.7756 14.5749 41.7377 14.4297C41.6989 14.2816 41.6649 14.1534 41.6436 14.0351C41.6368 13.9984 41.6115 13.9695 41.5785 13.9586C41.5455 13.9467 41.5077 13.9546 41.4815 13.9785C41.4815 13.9785 41.1554 14.2727 40.8216 14.559C40.6556 14.7051 40.4877 14.8472 40.3615 14.9526L40.15 15.1305C40.1228 15.1533 40.1102 15.1881 40.115 15.2239C40.1335 15.3492 40.1636 15.4853 40.1956 15.6304C40.2276 15.7756 40.2626 15.9356 40.2926 16.1145C40.312 16.2298 40.315 16.3471 40.3024 16.4624C40.3014 16.4773 40.3023 16.4912 40.3062 16.5041L40.3033 16.5031ZM41.6863 15.2587C41.5941 15.3392 41.3146 15.5827 41.0331 15.8173C40.8381 15.9843 40.6391 16.1483 40.5032 16.2586C40.5003 16.199 40.4945 16.1384 40.4838 16.0797C40.4537 15.8968 40.4169 15.7338 40.3848 15.5857C40.3577 15.4615 40.3334 15.3521 40.3159 15.2498L40.4829 15.1096C40.61 15.0033 40.7789 14.8601 40.9458 14.714C41.1535 14.5361 41.3573 14.3552 41.4834 14.2439C41.5019 14.3184 41.5223 14.3979 41.5446 14.4834C41.5815 14.6256 41.6222 14.7816 41.6601 14.9565C41.6814 15.0579 41.6902 15.1583 41.6853 15.2607L41.6863 15.2587Z" fill="#BF692D"/>
<path d="M42.4202 13.8681C42.5833 14.051 42.6716 14.3005 42.5998 14.5808C42.5998 14.5808 42.397 14.7637 42.1931 14.9476C41.9884 15.1285 41.7826 15.3094 41.7826 15.3094C41.7914 15.1931 41.7865 15.0688 41.7574 14.9346C41.6817 14.5758 41.5895 14.2955 41.5449 14.054L41.8457 13.7807C42.0757 13.727 42.2912 13.722 42.4202 13.8671V13.8681Z" fill="#F5BC81"/>
<path d="M41.6884 15.3382C41.6961 15.364 41.7136 15.3849 41.7379 15.3978C41.7738 15.4167 41.8165 15.4108 41.8465 15.3849L42.6647 14.6553C42.6792 14.6424 42.6899 14.6245 42.6948 14.6057C42.7695 14.3174 42.6948 14.0252 42.4929 13.7986C42.3114 13.5958 42.0242 13.6355 41.8233 13.6823C41.8077 13.6862 41.7922 13.6932 41.7796 13.7051L41.4787 13.9785C41.4525 14.0023 41.4409 14.0381 41.4467 14.0729C41.47 14.1991 41.504 14.3303 41.5447 14.4824C41.5816 14.6245 41.6224 14.7806 41.6602 14.9555C41.6845 15.0698 41.6922 15.1831 41.6835 15.3004C41.6825 15.3143 41.6835 15.3273 41.6874 15.3392L41.6884 15.3382ZM42.5104 14.5241L41.8805 15.0877C41.8757 15.0281 41.866 14.9704 41.8543 14.9108C41.8165 14.7329 41.7747 14.5738 41.7369 14.4287C41.7039 14.3035 41.6748 14.1922 41.6534 14.0898L41.8922 13.8731C42.1202 13.8234 42.2648 13.8423 42.3473 13.9347C42.4978 14.1027 42.557 14.3124 42.5113 14.5241H42.5104Z" fill="#BF692D"/>
<path d="M38.9672 17.5868C38.9672 17.5868 38.8741 17.6563 38.7353 17.7607C38.5975 17.8661 38.4092 18.0022 38.218 18.1364C38.0278 18.2706 37.8385 18.4058 37.6959 18.5062C37.5522 18.6066 37.4542 18.6692 37.4542 18.6692C37.4785 18.5549 37.4911 18.4296 37.4804 18.2925C37.4513 17.9247 37.396 17.6335 37.3824 17.387C37.3824 17.387 37.4746 17.3214 37.6124 17.224C37.7512 17.1275 37.9336 16.9953 38.1132 16.8582C38.2937 16.723 38.4742 16.5878 38.6101 16.4864C38.744 16.3821 38.8333 16.3125 38.8333 16.3125C38.8585 16.559 38.9294 16.8472 38.973 17.2091C38.9905 17.3442 38.9857 17.4705 38.9672 17.5858V17.5868Z" fill="#F5BC81"/>
<path d="M37.361 18.7004C37.3678 18.7212 37.3805 18.7391 37.3979 18.752C37.4299 18.7759 37.4736 18.7769 37.5076 18.755C37.5076 18.755 37.6075 18.6914 37.7522 18.589L38.2743 18.2183C38.4684 18.0821 38.6586 17.9449 38.7945 17.8406L39.0264 17.6676C39.0478 17.6517 39.0614 17.6289 39.0662 17.602C39.0876 17.4678 39.0895 17.3317 39.073 17.1965C39.0497 17.0096 39.0196 16.8397 38.9934 16.6906C38.9672 16.5445 38.9449 16.4192 38.9332 16.3019C38.9294 16.2652 38.907 16.2343 38.874 16.2194C38.841 16.2045 38.8032 16.2095 38.7751 16.2324L38.0569 16.776C37.8812 16.9092 37.6997 17.0424 37.559 17.1398L37.329 17.3038C37.3009 17.3237 37.2844 17.3575 37.2863 17.3923C37.2931 17.5195 37.3116 17.6587 37.331 17.8068C37.3494 17.9549 37.3707 18.1189 37.3853 18.3008C37.394 18.4171 37.3853 18.5304 37.361 18.6467C37.3572 18.6646 37.3581 18.6825 37.363 18.6994L37.361 18.7004ZM38.875 17.5305L38.6761 17.6786C38.5412 17.7819 38.3539 17.9181 38.1617 18.0523L37.6396 18.422C37.6192 18.436 37.5998 18.4499 37.5813 18.4628C37.5843 18.4042 37.5833 18.3445 37.5794 18.2849C37.5648 18.099 37.5435 17.932 37.5241 17.7809C37.5076 17.6537 37.493 17.5414 37.4853 17.438L37.6687 17.3078C37.8104 17.2094 37.9948 17.0752 38.1724 16.9401L38.7586 16.4987C38.7702 16.5713 38.7838 16.6488 38.7974 16.7273C38.8236 16.8745 38.8527 17.0404 38.875 17.2223C38.8876 17.3247 38.8886 17.4281 38.875 17.5295V17.5305Z" fill="#BF692D"/>
<path d="M40.3964 16.4743C40.3964 16.4743 40.0471 16.7615 39.687 17.0388C39.3328 17.3211 38.9669 17.5905 38.9669 17.5905C38.9853 17.4752 38.9902 17.3489 38.9727 17.2138C38.9281 16.852 38.8582 16.5627 38.833 16.3172C38.833 16.3172 39.1833 16.0478 39.5259 15.7705C39.6977 15.6314 39.8695 15.4922 39.9976 15.3879C40.1247 15.2815 40.2101 15.2109 40.2101 15.2109C40.246 15.4555 40.3266 15.7397 40.3867 16.0995C40.41 16.2337 40.411 16.36 40.3974 16.4762L40.3964 16.4743Z" fill="#F5BC81"/>
<path d="M38.8729 17.6209C38.8797 17.6437 38.8942 17.6636 38.9146 17.6765C38.9486 17.6984 38.9913 17.6964 39.0243 17.6726C39.0282 17.6696 39.396 17.3992 39.7483 17.1189C40.1035 16.8446 40.4548 16.5563 40.4587 16.5543C40.4791 16.5374 40.4926 16.5136 40.4946 16.4868C40.5101 16.3526 40.5062 16.2154 40.4829 16.0812C40.4529 15.8983 40.416 15.7353 40.384 15.5872C40.351 15.4401 40.3238 15.3129 40.3063 15.1956C40.3005 15.1598 40.2772 15.129 40.2442 15.1161C40.2112 15.1032 40.1733 15.1091 40.1462 15.132L39.4639 15.6906C39.1398 15.953 38.7982 16.2164 38.7739 16.2353C38.772 16.2363 38.771 16.2373 38.77 16.2383C38.7438 16.2601 38.7302 16.2939 38.7341 16.3277C38.7467 16.452 38.771 16.5871 38.7972 16.7313C38.8234 16.8784 38.8525 17.0444 38.8748 17.2263C38.8894 17.3426 38.8874 17.4598 38.869 17.5742C38.8671 17.5901 38.868 17.606 38.8729 17.6209ZM40.3024 16.4222C40.2073 16.4997 39.92 16.7333 39.6279 16.9579C39.427 17.1179 39.2213 17.274 39.0815 17.3793C39.0815 17.3197 39.0777 17.2601 39.0699 17.2004C39.0466 17.0136 39.0165 16.8436 38.9903 16.6945C38.969 16.5722 38.9496 16.4649 38.9369 16.3645C39.032 16.2969 39.2135 16.1518 39.5872 15.8486L40.1413 15.3964C40.1569 15.4719 40.1743 15.5495 40.1918 15.631C40.2238 15.7761 40.2588 15.9361 40.2888 16.115C40.3063 16.2164 40.3112 16.3198 40.3024 16.4222Z" fill="#BF692D"/>
<path d="M34.2942 20.541C34.2942 20.541 34.1904 20.5927 34.0351 20.6702C33.8827 20.7527 33.6634 20.8372 33.4489 20.9306C33.2325 21.0201 33.0209 21.1165 32.854 21.1771C32.6861 21.2338 32.5745 21.2716 32.5745 21.2716C32.6337 21.1662 32.6822 21.0459 32.7113 20.9118C32.788 20.5529 32.8016 20.2428 32.8472 20.0003C32.8472 20.0003 32.9462 19.9586 33.0947 19.8949C33.2432 19.8313 33.4431 19.7528 33.6362 19.6504C33.8303 19.554 34.0244 19.4566 34.1709 19.384C34.3175 19.3135 34.4126 19.2578 34.4126 19.2578C34.3961 19.5103 34.4077 19.7965 34.3806 20.1663C34.3699 20.3035 34.3398 20.4277 34.2971 20.54L34.2942 20.541Z" fill="#F5BC81"/>
<path d="M32.4792 21.3009C32.4831 21.3128 32.4889 21.3247 32.4967 21.3347C32.5229 21.3675 32.5656 21.3804 32.6044 21.3665L32.8839 21.272C32.9945 21.2323 33.1216 21.1776 33.2575 21.119C33.3313 21.0872 33.408 21.0554 33.4846 21.0235C33.5487 20.9957 33.6108 20.9699 33.6729 20.944C33.8253 20.8804 33.9679 20.8198 34.0805 20.7592L34.3367 20.6319C34.359 20.621 34.3765 20.6011 34.3862 20.5773C34.4347 20.449 34.4648 20.3139 34.4765 20.1747C34.492 19.959 34.4949 19.7712 34.4978 19.6052C34.4998 19.4829 34.5017 19.3706 34.5085 19.2642C34.5114 19.2275 34.493 19.1917 34.4619 19.1718C34.4309 19.1519 34.392 19.1509 34.361 19.1698C34.359 19.1698 34.2678 19.2245 34.1261 19.2911L33.5894 19.5585C33.4303 19.6429 33.2643 19.7125 33.1314 19.7692L32.8062 19.9063C32.7762 19.9193 32.7538 19.9471 32.747 19.9809C32.7276 20.0823 32.714 20.1966 32.6985 20.3208C32.6781 20.4908 32.6548 20.6836 32.6112 20.8904C32.5859 21.0057 32.5442 21.117 32.486 21.2213C32.4714 21.2462 32.4685 21.276 32.4772 21.3019L32.4792 21.3009ZM34.2154 20.4669L33.9912 20.5783C33.8845 20.6359 33.7457 20.6945 33.5982 20.7562C33.5361 20.783 33.473 20.8089 33.4099 20.8367C33.3342 20.8685 33.2566 20.9013 33.1818 20.9331C33.0498 20.9898 32.9266 21.0424 32.8198 21.0802L32.7577 21.1011C32.7771 21.0454 32.7927 20.9898 32.8053 20.9321C32.8519 20.7164 32.8751 20.5186 32.8965 20.3447C32.9081 20.2463 32.9188 20.1558 32.9324 20.0713L33.2071 19.955C33.3439 19.8984 33.5137 19.8258 33.6797 19.7384L34.2125 19.473C34.2455 19.4571 34.2765 19.4412 34.3047 19.4272C34.3037 19.4829 34.3027 19.5406 34.3018 19.6002C34.2989 19.7632 34.296 19.9481 34.2804 20.1568C34.2717 20.2622 34.2503 20.3665 34.2164 20.4659L34.2154 20.4669Z" fill="#BF692D"/>
<path d="M37.4548 18.6728C37.4548 18.6728 37.0744 18.9253 36.694 19.1778C36.3038 19.4183 35.9137 19.6598 35.9137 19.6598C35.9447 19.5455 35.9632 19.4183 35.9622 19.2801C35.9564 18.9104 35.9195 18.6172 35.9195 18.3717C35.9195 18.3717 36.0127 18.314 36.1524 18.2265C36.2893 18.1351 36.4727 18.0128 36.6561 17.8906C37.0259 17.651 37.382 17.3906 37.382 17.3906C37.3956 17.6371 37.4509 17.9284 37.4801 18.2961C37.4907 18.4333 37.4781 18.5585 37.4539 18.6728H37.4548Z" fill="#F5BC81"/>
<path d="M35.8198 19.6896C35.8256 19.7095 35.8372 19.7264 35.8547 19.7393C35.8867 19.7641 35.9304 19.7671 35.9653 19.7452L36.7447 19.2642L37.5084 18.7572C37.5298 18.7423 37.5453 18.7205 37.5511 18.6946C37.5803 18.5585 37.59 18.4253 37.5793 18.2881C37.5647 18.1022 37.5434 17.9352 37.524 17.7842C37.5046 17.6341 37.4881 17.5039 37.4813 17.3846C37.4793 17.3478 37.458 17.315 37.425 17.2991C37.393 17.2832 37.3541 17.2862 37.325 17.3081C37.3221 17.311 36.9669 17.5695 36.6039 17.805L35.8693 18.2851C35.8392 18.304 35.8217 18.3358 35.8217 18.3716C35.8217 18.4948 35.8304 18.63 35.8402 18.7741C35.8499 18.9242 35.8615 19.0952 35.8644 19.2821C35.8654 19.4003 35.8508 19.5186 35.8188 19.6329C35.814 19.6518 35.814 19.6727 35.8198 19.6906V19.6896ZM37.3668 18.6101L36.6408 19.0922L36.0537 19.455C36.0595 19.3964 36.0624 19.3377 36.0614 19.2781C36.0585 19.0853 36.0469 18.9123 36.0372 18.7592C36.0294 18.636 36.0226 18.5276 36.0197 18.4273L36.3409 18.2215L36.7107 17.975C36.9368 17.8289 37.16 17.6728 37.2988 17.5734C37.3075 17.649 37.3173 17.7285 37.3279 17.81C37.3464 17.9581 37.3677 18.1221 37.3823 18.304C37.39 18.4074 37.3852 18.5078 37.3658 18.6101H37.3668Z" fill="#BF692D"/>
<path d="M31.8917 20.3479C31.8917 20.3479 32.1314 20.2674 32.3711 20.1869C32.4915 20.1501 32.6099 20.1024 32.6982 20.0626C32.7865 20.0248 32.8457 20 32.8457 20C32.8001 20.2415 32.7865 20.5526 32.7098 20.9115C32.6807 21.0456 32.6332 21.1649 32.573 21.2713L32.4197 21.323C31.9528 21.2166 31.7384 20.7316 31.8917 20.3489V20.3479Z" fill="#F5BC81"/>
<path d="M31.7813 20.8518C31.8706 21.1401 32.1016 21.3538 32.3976 21.4214C32.4151 21.4253 32.4335 21.4243 32.45 21.4184L32.6043 21.3667C32.6276 21.3587 32.647 21.3428 32.6587 21.321C32.7276 21.1987 32.7771 21.0685 32.8062 20.9323C32.8528 20.7166 32.8761 20.5188 32.8974 20.3449C32.912 20.2256 32.9246 20.1163 32.943 20.0189C32.9498 19.9821 32.9372 19.9443 32.9091 19.9215C32.8809 19.8976 32.8421 19.8917 32.8091 19.9066L32.6616 19.9692C32.548 20.0199 32.4393 20.0616 32.3442 20.0904L31.8619 20.2525C31.8347 20.2614 31.8124 20.2823 31.8017 20.3101C31.7338 20.4801 31.727 20.6729 31.7823 20.8528L31.7813 20.8518ZM32.4151 21.2166C32.2006 21.159 32.0346 21.0009 31.9696 20.7902C31.9327 20.6699 31.9318 20.5427 31.9677 20.4274L32.4015 20.2813C32.4976 20.2525 32.6053 20.2117 32.7198 20.161C32.713 20.2117 32.7072 20.2634 32.7004 20.3181C32.68 20.488 32.6567 20.6809 32.613 20.8876C32.5907 20.991 32.5548 21.0914 32.5053 21.1858L32.4151 21.2156V21.2166Z" fill="#BF692D"/>
<g style="mix-blend-mode:multiply">
<path d="M31.8914 20.3506C31.8914 20.3506 32.0631 20.2929 32.365 20.1905C32.5164 20.1468 32.6959 20.0643 32.9017 19.9778C33.0055 19.9341 33.1152 19.8874 33.2307 19.8377C33.3471 19.791 33.4684 19.7373 33.5927 19.6717C34.601 19.2025 35.8976 18.4322 37.133 17.5665C38.3723 16.7047 39.5573 15.7595 40.422 15.0269C41.2887 14.2954 41.8399 13.7825 41.8399 13.7825C42.0719 13.7268 42.2883 13.7209 42.4193 13.867C42.4397 13.8898 42.4591 13.9147 42.4766 13.9405C42.4766 13.9405 41.9011 14.4872 40.9937 15.2625C40.0862 16.0358 38.844 17.0347 37.5377 17.9492C36.2353 18.8676 34.8591 19.6886 33.7702 20.1925C33.5014 20.3247 33.2433 20.4211 33.021 20.5195C32.9084 20.5663 32.8036 20.611 32.7066 20.6517C32.6066 20.6855 32.5144 20.7163 32.4319 20.7442C32.101 20.8555 31.9117 20.9191 31.9117 20.9191C31.8283 20.7412 31.8166 20.5344 31.8894 20.3506H31.8914Z" fill="#F5BC81"/>
</g>
<g style="mix-blend-mode:screen">
<path d="M32.0832 21.147C32.0832 21.147 32.2754 21.0824 32.6102 20.9701C32.78 20.9184 32.9761 20.8339 33.2002 20.7375C33.3128 20.6898 33.4322 20.6391 33.5593 20.5854C33.6865 20.5337 33.8185 20.4751 33.9504 20.4055C35.0393 19.8966 36.4077 19.0776 37.7014 18.1671C38.999 17.2596 40.2286 16.2716 41.1282 15.5063C42.0279 14.7409 42.6005 14.1992 42.6005 14.1992C42.6306 14.3145 42.6344 14.4417 42.6005 14.5739C42.6005 14.5739 42.0434 15.0928 41.1738 15.8273C40.3043 16.5629 39.1154 17.5121 37.8625 18.3888C36.6135 19.2684 35.2888 20.0626 34.2348 20.5695C34.1038 20.6341 33.9786 20.6957 33.8592 20.7544C33.736 20.8071 33.6185 20.8568 33.5089 20.9035C33.2886 20.9969 33.0964 21.0784 32.9382 21.145C32.6092 21.2573 32.4209 21.3219 32.4209 21.3219C32.287 21.2911 32.1735 21.2295 32.0822 21.148L32.0832 21.147Z" fill="#F5BC81"/>
</g>
<path d="M34.7957 18.8678C34.7957 18.8678 34.685 18.8937 34.5142 18.9185C34.3444 18.9453 34.1183 18.9811 33.8921 19.0179C33.667 19.0577 33.438 19.0845 33.2652 19.1014C33.0934 19.1193 32.9789 19.1322 32.9789 19.1322C33.0565 19.0418 33.1255 18.9354 33.1817 18.8102C33.3302 18.4712 33.4156 18.1989 33.5146 17.9673C33.5146 17.9673 33.9436 17.8987 34.3735 17.8301C34.8025 17.7446 35.2295 17.6602 35.2295 17.6602C35.148 17.8908 35.0849 18.18 34.9665 18.5289C34.9218 18.6591 34.8626 18.7714 34.7947 18.8688L34.7957 18.8678Z" fill="#F5BC81"/>
<path d="M32.8801 19.1279C32.8801 19.1448 32.883 19.1627 32.8908 19.1786C32.9092 19.2154 32.949 19.2373 32.9888 19.2323L33.2751 19.2015C33.4313 19.1866 33.6691 19.1597 33.9088 19.117L34.5299 19.0186C34.7037 18.9937 34.8172 18.9669 34.8172 18.9669C34.8405 18.9619 34.8619 18.947 34.8754 18.9271C34.9541 18.8148 35.0152 18.6916 35.0598 18.5614C35.122 18.3795 35.1685 18.2125 35.2093 18.0654C35.2491 17.9252 35.283 17.803 35.3219 17.6946C35.3345 17.6608 35.3277 17.6221 35.3044 17.5942C35.2811 17.5664 35.2452 17.5535 35.2103 17.5604L34.3543 17.7314L33.4993 17.8676C33.4653 17.8726 33.4372 17.8954 33.4246 17.9272C33.3819 18.0276 33.3411 18.135 33.2974 18.2532C33.2402 18.4053 33.1761 18.5783 33.0926 18.7691C33.0441 18.8774 32.981 18.9778 32.9053 19.0663C32.8898 19.0842 32.882 19.1061 32.8811 19.1289L32.8801 19.1279ZM34.7367 18.7771C34.692 18.786 34.6086 18.8019 34.5008 18.8178L33.8778 18.9172C33.6429 18.9589 33.411 18.9848 33.2566 18.9997L33.1907 19.0067C33.2207 18.957 33.2479 18.9053 33.2722 18.8506C33.3586 18.6538 33.4246 18.4779 33.4818 18.3228C33.5167 18.2284 33.5497 18.1399 33.5837 18.0574L34.3883 17.9292L35.0822 17.791C35.0608 17.8606 35.0404 17.9332 35.0191 18.0087C34.9783 18.1538 34.9317 18.3178 34.8725 18.4948C34.8386 18.5942 34.792 18.6886 34.7357 18.7771H34.7367Z" fill="#BF692D"/>
<path d="M41.7595 16.8258C41.7595 16.8258 41.3412 16.9888 40.9171 17.1389C40.4959 17.295 40.0699 17.4371 40.0699 17.4371C40.1213 17.3327 40.1621 17.2135 40.1854 17.0793C40.2485 16.7195 40.2679 16.4243 40.3154 16.1827C40.3154 16.1827 40.4183 16.145 40.5736 16.0893C40.7289 16.0336 40.9346 15.9591 41.1384 15.8796C41.5499 15.7265 41.9546 15.5625 41.9546 15.5625C41.9158 15.804 41.909 16.1002 41.8614 16.464C41.844 16.6002 41.8071 16.7195 41.7605 16.8248L41.7595 16.8258Z" fill="#F5BC81"/>
<path d="M39.9716 17.4327C39.9707 17.4576 39.9794 17.4834 39.9959 17.5023C40.0211 17.5331 40.0629 17.545 40.1017 17.5331C40.1056 17.5311 40.5345 17.388 40.9518 17.2329C41.3711 17.0848 41.7913 16.9208 41.7952 16.9198C41.8195 16.9099 41.8389 16.891 41.8495 16.8671C41.9058 16.7419 41.9417 16.6137 41.9592 16.4775C41.9825 16.2966 41.9961 16.1326 42.0087 15.9835C42.0213 15.8304 42.033 15.6982 42.0514 15.579C42.0572 15.5422 42.0436 15.5064 42.0155 15.4836C41.9883 15.4607 41.9505 15.4547 41.9175 15.4676C41.9175 15.4676 41.5128 15.6307 41.1032 15.7837C40.8985 15.8632 40.6937 15.9378 40.5394 15.9925L40.2812 16.0859C40.2482 16.0978 40.224 16.1266 40.2172 16.1614C40.1929 16.2857 40.1754 16.4238 40.158 16.5709C40.1395 16.719 40.1191 16.8811 40.0881 17.06C40.0677 17.1753 40.0318 17.2866 39.9813 17.391C39.9755 17.4039 39.9716 17.4178 39.9716 17.4317V17.4327ZM41.6855 16.7459C41.572 16.7896 41.2284 16.9208 40.8859 17.0431C40.6471 17.1315 40.4055 17.216 40.2414 17.2727C40.2589 17.215 40.2725 17.1564 40.2832 17.0977C40.3152 16.9158 40.3356 16.7499 40.355 16.5988C40.3705 16.4725 40.3841 16.3612 40.4025 16.2588L40.6063 16.1853C40.7616 16.1296 40.9683 16.0541 41.1731 15.9746C41.4274 15.8801 41.6787 15.7807 41.835 15.7201C41.8272 15.7967 41.8204 15.8782 41.8127 15.9666C41.8001 16.1137 41.7865 16.2747 41.7641 16.4517C41.7506 16.554 41.7253 16.6515 41.6865 16.7469L41.6855 16.7459Z" fill="#BF692D"/>
<path d="M42.8391 15.6963C42.9312 15.925 42.9313 16.1913 42.7701 16.4289C42.7701 16.4289 42.5178 16.5303 42.2655 16.6317C42.0122 16.7301 41.7589 16.8285 41.7589 16.8285C41.8055 16.7221 41.8424 16.6028 41.8598 16.4677C41.9074 16.1039 41.9142 15.8077 41.953 15.5661L42.3266 15.4141C42.5615 15.4439 42.7643 15.5145 42.8381 15.6954L42.8391 15.6963Z" fill="#F5BC81"/>
<path d="M41.661 16.8241C41.6601 16.8509 41.6688 16.8767 41.6872 16.8966C41.7144 16.9264 41.7571 16.9364 41.794 16.9225L42.8062 16.5219C42.8247 16.5149 42.8402 16.502 42.8509 16.4851C43.0178 16.2396 43.045 15.9394 42.9305 15.6562C42.8276 15.4017 42.5442 15.3391 42.3394 15.3132C42.3239 15.3113 42.3064 15.3132 42.2909 15.3192L41.9172 15.4713C41.8852 15.4842 41.8619 15.514 41.8561 15.5488C41.8357 15.676 41.8241 15.8112 41.8115 15.9683C41.7988 16.1144 41.7853 16.2764 41.7629 16.4533C41.7474 16.5696 41.7173 16.678 41.6698 16.7853C41.664 16.7972 41.661 16.8101 41.661 16.8231V16.8241ZM42.7043 16.345L41.924 16.6551C41.9386 16.5974 41.9502 16.5398 41.958 16.4802C41.9813 16.2993 41.9949 16.1352 42.0075 15.9852C42.0182 15.8559 42.0279 15.7416 42.0424 15.6373L42.3394 15.517C42.5704 15.5498 42.7004 15.6184 42.7461 15.7337C42.8315 15.9434 42.8169 16.1611 42.7034 16.345H42.7043Z" fill="#BF692D"/>
<path d="M38.3544 17.9895C38.3544 17.9895 38.2438 18.0223 38.0778 18.072C37.9128 18.1237 37.6906 18.1853 37.4664 18.245C37.2432 18.3056 37.02 18.3653 36.853 18.411C36.6851 18.4557 36.5716 18.4806 36.5716 18.4806C36.6327 18.3812 36.6861 18.2678 36.722 18.1356C36.8171 17.7798 36.8618 17.4856 36.9307 17.25C36.9307 17.25 37.0394 17.2202 37.2005 17.1765C37.3635 17.1347 37.579 17.0731 37.7925 17.0075C38.0069 16.9429 38.2224 16.8793 38.3835 16.8316C38.5436 16.7809 38.6514 16.7461 38.6514 16.7461C38.5931 16.9866 38.563 17.2828 38.4844 17.6377C38.4553 17.7709 38.4087 17.8872 38.3534 17.9895H38.3544Z" fill="#F5BC81"/>
<path d="M36.4736 18.475C36.4736 18.4969 36.4785 18.5188 36.4911 18.5367C36.5134 18.5705 36.5542 18.5864 36.593 18.5784C36.593 18.5784 36.7085 18.5536 36.8783 18.5078L37.4926 18.3418C37.7207 18.2822 37.9449 18.2186 38.107 18.1679L38.3826 18.0864C38.4078 18.0784 38.4282 18.0615 38.4418 18.0387C38.5058 17.9204 38.5544 17.7922 38.5825 17.659C38.6233 17.4751 38.6514 17.3051 38.6757 17.1551C38.6999 17.0089 38.7213 16.8827 38.7485 16.7694C38.7572 16.7336 38.7465 16.6968 38.7203 16.672C38.6941 16.6471 38.6572 16.6382 38.6233 16.6491L37.7673 16.9095C37.5577 16.9742 37.3432 17.0348 37.1782 17.0775L36.9074 17.1511C36.8744 17.16 36.8482 17.1859 36.8376 17.2197C36.8026 17.3409 36.7725 17.4791 36.7415 17.6252C36.7095 17.7713 36.6755 17.9323 36.6279 18.1083C36.5978 18.2206 36.5522 18.3239 36.4901 18.4243C36.4804 18.4402 36.4756 18.4571 36.4746 18.475H36.4736ZM38.2865 17.9035L38.0507 17.9741C37.8896 18.0238 37.6683 18.0864 37.4431 18.146L36.8288 18.312C36.8055 18.319 36.7822 18.3239 36.7609 18.3299C36.7832 18.2752 36.8017 18.2196 36.8182 18.1619C36.8667 17.982 36.9016 17.817 36.9336 17.6679C36.9598 17.5427 36.9841 17.4324 37.0113 17.332L37.2277 17.2733C37.3937 17.2306 37.611 17.169 37.8236 17.1034L38.5214 16.8936C38.5078 16.9662 38.4952 17.0427 38.4826 17.1223C38.4583 17.2694 38.4301 17.4363 38.3913 17.6153C38.369 17.7166 38.335 17.8131 38.2894 17.9045L38.2865 17.9035Z" fill="#BF692D"/>
<path d="M40.0694 17.438C40.0694 17.438 39.6453 17.5861 39.2154 17.7212C38.7883 17.8634 38.3545 17.9876 38.3545 17.9876C38.4098 17.8853 38.4564 17.769 38.4855 17.6358C38.5642 17.2799 38.5942 16.9837 38.6525 16.7442C38.6525 16.7442 39.0708 16.613 39.4861 16.4718C39.6938 16.4003 39.9015 16.3297 40.0568 16.276C40.2121 16.2204 40.3149 16.1836 40.3149 16.1836C40.2674 16.4261 40.248 16.7213 40.1849 17.0801C40.1616 17.2143 40.1208 17.3336 40.0694 17.438Z" fill="#F5BC81"/>
<path d="M38.2557 17.9832C38.2557 18.0071 38.2615 18.0309 38.2761 18.0498C38.3013 18.0816 38.3421 18.0955 38.3799 18.0846C38.3848 18.0836 38.8205 17.9574 39.2446 17.8162C39.6697 17.6821 40.0958 17.534 40.0996 17.533C40.1249 17.524 40.1453 17.5061 40.1559 17.4823C40.2151 17.361 40.2569 17.2318 40.2802 17.0976C40.3122 16.9157 40.3326 16.7497 40.352 16.5986C40.3704 16.4495 40.3869 16.3203 40.4092 16.203C40.416 16.1673 40.4044 16.1305 40.3772 16.1066C40.351 16.0828 40.3132 16.0758 40.2802 16.0877L39.4523 16.375C39.0602 16.5082 38.6517 16.6374 38.6226 16.6463C38.6206 16.6463 38.6187 16.6473 38.6177 16.6483C38.5857 16.6593 38.5614 16.6871 38.5536 16.7199C38.5245 16.8412 38.5022 16.9773 38.4789 17.1205C38.4547 17.2676 38.4265 17.4346 38.3877 17.6135C38.3625 17.7278 38.3227 17.8371 38.2664 17.9385C38.2586 17.9524 38.2547 17.9683 38.2538 17.9832H38.2557ZM39.9987 17.356C39.8842 17.3958 39.5358 17.5151 39.1864 17.6244C38.9438 17.7049 38.6982 17.7795 38.5333 17.8302C38.5527 17.7735 38.5692 17.7168 38.5818 17.6582C38.6225 17.4743 38.6507 17.3043 38.675 17.1543C38.6953 17.032 38.7128 16.9237 38.7342 16.8253C38.8458 16.7954 39.0651 16.7209 39.5164 16.5678L40.188 16.3362C40.1773 16.4128 40.1676 16.4923 40.1569 16.5738C40.1385 16.7219 40.1181 16.8839 40.087 17.0628C40.0696 17.1642 40.0395 17.2636 39.9977 17.356H39.9987Z" fill="#BF692D"/>
<path d="M32.9789 19.1337C32.9789 19.1337 32.8634 19.1456 32.6917 19.1645C32.5209 19.1883 32.286 19.1923 32.054 19.2042C31.8211 19.2122 31.5892 19.2301 31.4125 19.2281C31.2359 19.2221 31.1175 19.2191 31.1175 19.2191C31.2087 19.1406 31.2932 19.0452 31.365 18.9289C31.5562 18.6178 31.6726 18.3315 31.7959 18.1198C31.7959 18.1198 31.9026 18.1149 32.0628 18.1079C32.2239 18.1009 32.4374 18.095 32.6528 18.0662C32.8673 18.0433 33.0828 18.0194 33.2439 18.0025C33.405 17.9876 33.5127 17.9688 33.5127 17.9688C33.4137 18.2003 33.3283 18.4737 33.1798 18.8116C33.1235 18.9369 33.0536 19.0432 32.977 19.1337H32.9789Z" fill="#F5BC81"/>
<path d="M31.0196 19.2158C31.0196 19.2287 31.0205 19.2416 31.0254 19.2535C31.039 19.2933 31.0749 19.3201 31.1166 19.3211L31.4117 19.3301C31.5281 19.3301 31.6669 19.3241 31.8134 19.3172C31.893 19.3132 31.9755 19.3092 32.059 19.3062C32.1279 19.3022 32.1958 19.2993 32.2618 19.2963C32.4258 19.2893 32.5811 19.2824 32.7063 19.2645L32.9897 19.2347C33.0139 19.2317 33.0372 19.2197 33.0537 19.2009C33.1421 19.0975 33.2158 18.9802 33.2721 18.854C33.3585 18.6572 33.4245 18.4812 33.4817 18.3262C33.5244 18.2119 33.5642 18.1065 33.605 18.0091C33.6195 17.9753 33.6147 17.9355 33.5924 17.9057C33.57 17.8759 33.5332 17.862 33.4982 17.869C33.4963 17.869 33.3924 17.8878 33.2372 17.9018L32.6442 17.9654C32.4666 17.9892 32.287 17.9972 32.1434 18.0031L31.7921 18.019C31.7591 18.021 31.729 18.0389 31.7125 18.0687C31.6601 18.1572 31.6096 18.2596 31.5543 18.3709C31.4786 18.524 31.3932 18.6969 31.2826 18.8758C31.2205 18.9752 31.1438 19.0657 31.0545 19.1432C31.0322 19.1621 31.0206 19.1889 31.0196 19.2158ZM32.9295 19.0378L32.682 19.0647C32.5627 19.0816 32.4122 19.0875 32.2531 19.0945C32.1861 19.0975 32.1172 19.1005 32.0493 19.1044C31.9678 19.1074 31.8843 19.1114 31.8028 19.1154C31.6601 19.1223 31.5262 19.1293 31.4136 19.1283L31.3486 19.1263C31.3855 19.0816 31.4194 19.0339 31.4495 18.9842C31.565 18.7973 31.6533 18.6194 31.731 18.4633C31.7746 18.3749 31.8144 18.2934 31.8562 18.2188L32.1521 18.2059C32.2997 18.1999 32.4831 18.192 32.6685 18.1671L33.2575 18.1035C33.2944 18.0996 33.3284 18.0966 33.3594 18.0926C33.34 18.1443 33.3197 18.198 33.2993 18.2536C33.242 18.4057 33.178 18.5786 33.0945 18.7695C33.0508 18.8659 32.9965 18.9563 32.9315 19.0369L32.9295 19.0378Z" fill="#BF692D"/>
<path d="M36.573 18.4766C36.573 18.4766 36.1315 18.582 35.6899 18.6863C35.2425 18.7768 34.7961 18.8672 34.7961 18.8672C34.863 18.7698 34.9232 18.6575 34.9678 18.5273C35.0853 18.1774 35.1484 17.8892 35.2309 17.6586C35.2309 17.6586 35.3376 17.6367 35.4987 17.6029C35.6579 17.5642 35.8714 17.5135 36.0839 17.4628C36.5109 17.3674 36.9321 17.2461 36.9321 17.2461C36.8632 17.4827 36.8186 17.7759 36.7235 18.1317C36.6876 18.2639 36.6352 18.3772 36.573 18.4766Z" fill="#F5BC81"/>
<path d="M34.6968 18.8627C34.6968 18.8836 34.7016 18.9035 34.7123 18.9214C34.7346 18.9562 34.7744 18.9741 34.8142 18.9661L35.7071 18.7852L36.5941 18.5755C36.6193 18.5695 36.6407 18.5536 36.6552 18.5308C36.728 18.4135 36.7814 18.2912 36.8173 18.159C36.8658 17.9791 36.9008 17.8141 36.9328 17.665C36.9648 17.5169 36.992 17.3887 37.025 17.2744C37.0357 17.2386 37.026 17.2008 37.0007 17.175C36.9755 17.1492 36.9386 17.1382 36.9037 17.1482C36.8998 17.1492 36.4796 17.2694 36.0603 17.3639L35.2102 17.5587C35.1762 17.5656 35.149 17.5895 35.1364 17.6233C35.0947 17.7386 35.0588 17.8698 35.02 18.0079C34.9792 18.1531 34.9326 18.3171 34.8734 18.494C34.8356 18.6053 34.7822 18.7117 34.7143 18.8081C34.7036 18.824 34.6968 18.8439 34.6958 18.8627H34.6968ZM36.5097 18.3886L35.6673 18.5884L34.9947 18.7246C35.02 18.6719 35.0413 18.6172 35.0607 18.5616C35.1228 18.3797 35.1694 18.2127 35.2102 18.0656C35.2441 17.9473 35.2733 17.8429 35.3043 17.7475L35.675 17.666L36.105 17.5626C36.366 17.504 36.6281 17.4354 36.7911 17.3907C36.7736 17.4652 36.7571 17.5428 36.7397 17.6233C36.7077 17.7694 36.6737 17.9304 36.6261 18.1063C36.599 18.2057 36.5611 18.2992 36.5087 18.3886H36.5097Z" fill="#BF692D"/>
<path d="M30.7846 18.1143C30.7846 18.1143 31.037 18.1222 31.2893 18.1302C31.4145 18.1381 31.5416 18.1332 31.6387 18.1272C31.7338 18.1222 31.7979 18.1192 31.7979 18.1192C31.6746 18.331 31.5581 18.6172 31.3669 18.9283C31.2951 19.0446 31.2097 19.14 31.1195 19.2186L30.9574 19.2136C30.5537 18.9512 30.5129 18.4194 30.7856 18.1133L30.7846 18.1143Z" fill="#F5BC81"/>
<path d="M30.5128 18.5485C30.5012 18.8506 30.6467 19.1319 30.9029 19.2989C30.9185 19.3088 30.9359 19.3138 30.9534 19.3148L31.1155 19.3198C31.1397 19.3198 31.164 19.3118 31.1824 19.2959C31.2872 19.2055 31.3775 19.0991 31.4503 18.9818C31.5658 18.795 31.6541 18.617 31.7317 18.461C31.7851 18.3536 31.8336 18.2552 31.8831 18.1698C31.9016 18.138 31.9016 18.0982 31.8831 18.0664C31.8647 18.0346 31.8298 18.0157 31.7939 18.0167L31.6337 18.0246C31.5105 18.0326 31.394 18.0336 31.295 18.0276L30.7874 18.0117C30.7593 18.0117 30.7312 18.0227 30.7117 18.0445C30.5914 18.1797 30.5206 18.3596 30.5128 18.5485ZM30.9874 19.112C30.8049 18.9828 30.7011 18.7771 30.7108 18.5564C30.7156 18.4302 30.7574 18.3109 30.8292 18.2145L31.2853 18.2284C31.3853 18.2354 31.4998 18.2344 31.625 18.2264C31.6017 18.2711 31.5784 18.3189 31.5541 18.3676C31.4784 18.5206 31.393 18.6936 31.2824 18.8725C31.2271 18.9619 31.1592 19.0434 31.0825 19.115L30.9874 19.112Z" fill="#BF692D"/>
<g style="mix-blend-mode:multiply">
<path d="M30.7835 18.1156C30.7835 18.1156 30.965 18.1206 31.2814 18.1306C31.4386 18.1425 31.6347 18.1266 31.8569 18.1176C31.9685 18.1127 32.0879 18.1067 32.2131 18.1017C32.3383 18.0978 32.4703 18.0898 32.6081 18.0719C33.7125 17.9825 35.1867 17.7111 36.6366 17.3284C38.0885 16.9507 39.517 16.4756 40.5739 16.089C41.6327 15.7033 42.3208 15.4141 42.3208 15.4141C42.5576 15.4429 42.7634 15.5125 42.8371 15.6963C42.8488 15.7252 42.8585 15.755 42.8672 15.7848C42.8672 15.7848 42.1442 16.0979 41.0339 16.5104C39.9237 16.9209 38.4233 17.4258 36.8909 17.8304C35.3604 18.2389 33.794 18.5311 32.6022 18.6246C32.3053 18.6544 32.0316 18.6554 31.789 18.6703C31.6677 18.6752 31.5541 18.6802 31.4493 18.6842C31.3435 18.6812 31.2474 18.6772 31.1611 18.6752C30.8127 18.6643 30.6137 18.6583 30.6137 18.6583C30.5943 18.4615 30.6525 18.2637 30.7816 18.1166L30.7835 18.1156Z" fill="#F5BC81"/>
</g>
<g style="mix-blend-mode:screen">
<path d="M30.6983 18.9329C30.6983 18.9329 30.9002 18.9399 31.2525 18.9508C31.4291 18.9617 31.6417 18.9508 31.8843 18.9379C32.0066 18.9329 32.1356 18.926 32.2725 18.92C32.4093 18.916 32.5529 18.9061 32.7005 18.8872C33.8932 18.7888 35.4518 18.4966 36.9716 18.091C38.4933 17.6905 39.9782 17.1915 41.0788 16.786C42.1793 16.3804 42.8984 16.0703 42.8984 16.0703C42.8887 16.1886 42.8489 16.3099 42.7732 16.4222C42.7732 16.4222 42.0764 16.7154 41.0147 17.103C39.953 17.4907 38.5196 17.9688 37.0493 18.3554C35.5819 18.747 34.0727 19.0313 32.913 19.1397C32.7684 19.1546 32.6306 19.1695 32.4986 19.1834C32.3647 19.1894 32.2385 19.1953 32.1191 19.2013C31.8814 19.2122 31.6737 19.2222 31.5029 19.2291C31.1564 19.2202 30.9584 19.2152 30.9584 19.2152C30.8429 19.1397 30.7566 19.0422 30.6983 18.9329Z" fill="#F5BC81"/>
</g>
<path d="M35.9933 15.3791C36.0117 15.3563 36.0292 15.3692 36.0108 15.393C35.9923 15.4169 35.9477 15.5421 35.9622 15.5779C36.0292 15.562 36.0991 15.5541 36.169 15.5521C36.1758 15.5441 36.1845 15.5382 36.1893 15.5441C36.1913 15.5461 36.1923 15.5491 36.1942 15.5511C36.2039 15.5511 36.2146 15.5501 36.2243 15.5501C36.2495 15.4944 36.2738 15.4408 36.3165 15.394C36.3349 15.3742 36.3427 15.396 36.3291 15.4119C36.2951 15.4537 36.2796 15.5034 36.2602 15.5511C36.2786 15.5531 36.298 15.5511 36.3165 15.5541C36.332 15.5203 36.3466 15.4865 36.3708 15.4557C36.3873 15.4358 36.4019 15.4477 36.3863 15.4676C36.366 15.4954 36.3553 15.5262 36.3437 15.557C36.3728 15.563 36.4009 15.571 36.4281 15.5799C36.4533 15.5292 36.4815 15.4815 36.5242 15.4417C36.5426 15.4249 36.5426 15.4477 36.531 15.4596C36.4941 15.4984 36.4737 15.5431 36.4533 15.5889C36.4795 15.5998 36.5057 15.6127 36.529 15.6286C36.5319 15.6256 36.5358 15.6226 36.5387 15.6207C36.5591 15.6008 36.5707 15.5898 36.5931 15.5739C36.6018 15.567 36.6377 15.558 36.6406 15.5521C36.6426 15.5471 36.6581 15.5252 36.6639 15.5372C36.6649 15.5392 36.6659 15.5411 36.6668 15.5431C36.6717 15.5521 36.66 15.566 36.6552 15.572C36.6426 15.5849 36.6309 15.5958 36.6164 15.6048C36.595 15.6177 36.5766 15.6346 36.5591 15.6525C36.5698 15.6614 36.5824 15.6684 36.5921 15.6793C36.595 15.6823 36.597 15.6863 36.5979 15.6892C36.6387 15.6624 36.6833 15.6405 36.728 15.6276C36.7416 15.6236 36.726 15.6505 36.7202 15.6535C36.6833 15.6704 36.6474 15.6922 36.6125 15.7131C36.6397 15.7837 36.596 15.8741 36.5688 15.9338C36.4688 16.1524 36.2456 16.5928 36.3514 16.8482C36.3514 16.8482 36.3504 16.8502 36.3504 16.8512C36.4494 16.8452 36.5533 16.8591 36.6571 16.9049C36.8648 16.9943 36.9211 17.3074 36.893 17.5042C36.8803 17.5897 36.8638 17.7537 36.8134 17.861C36.8017 17.9058 36.7949 17.9455 36.8143 17.9535C36.8192 17.9555 36.8134 17.9624 36.8114 17.9634C36.8085 17.9654 36.8056 17.9664 36.8027 17.9684C36.8027 17.9704 36.8027 17.9734 36.8017 17.9773C36.9609 18.1562 37.0735 18.3709 37.1259 18.6373C37.1608 18.8113 37.1113 19.177 36.9784 19.3122C36.8541 19.4385 36.7086 19.3967 36.5795 19.3092C36.6241 19.9265 36.2097 20.671 35.6866 20.9383C35.6517 20.9562 35.6168 20.9632 35.5828 20.9662C35.5411 21.0377 35.4867 21.0954 35.4178 21.1401C35.3964 21.154 35.4071 21.1222 35.4178 21.1143C35.4751 21.0735 35.5168 21.0228 35.5566 20.9672C35.543 20.9672 35.5294 20.9692 35.5148 20.9672C35.4896 20.995 35.4624 21.0218 35.4324 21.0467C35.3906 21.0805 35.3343 21.1351 35.279 21.1411C35.2664 21.1461 35.28 21.1173 35.2878 21.1133C35.3576 21.0825 35.4207 21.0248 35.476 20.9652C35.3945 20.9483 35.3159 20.9036 35.2431 20.8479C35.2072 20.9016 35.1616 20.9453 35.1053 20.9771C35.0878 20.987 35.1004 20.9562 35.1082 20.9503C35.1567 20.9185 35.1926 20.8787 35.2266 20.833C35.1946 20.8061 35.1645 20.7773 35.1354 20.7475C35.0937 20.7992 35.0296 20.8409 34.9733 20.8608C34.9578 20.8668 34.9743 20.832 34.984 20.829C35.0296 20.8091 35.0781 20.7684 35.116 20.7276C35.081 20.6908 35.051 20.6531 35.0218 20.6163C34.9908 20.6461 34.9568 20.671 34.919 20.6938C34.9005 20.7048 34.9131 20.67 34.9228 20.664C34.9539 20.6431 34.982 20.6223 35.0082 20.5984C34.9985 20.5855 34.9879 20.5716 34.9791 20.5596C34.9355 20.5974 34.8801 20.6252 34.8258 20.6332C34.8083 20.6352 34.8277 20.6064 34.8326 20.6024C34.8413 20.5964 34.8472 20.5924 34.8559 20.5875C34.8598 20.5855 34.8617 20.5865 34.8617 20.5885C34.8966 20.5716 34.9267 20.5487 34.9568 20.5258C34.9432 20.501 34.9374 20.4722 34.9374 20.4433C34.9015 20.4602 34.8675 20.4702 34.8239 20.4752C34.8025 20.4781 34.8268 20.4354 34.8404 20.4334C34.8763 20.4274 34.9083 20.4175 34.9403 20.4066C34.9442 20.3847 34.951 20.3628 34.9617 20.344C34.9782 20.3141 35.0102 20.2913 35.0325 20.2694C35.1616 20.1462 35.2664 20.002 35.3508 19.845C35.2014 19.9076 35.0432 19.9205 34.8801 19.8301C34.6841 19.7207 34.5958 19.4166 34.6763 19.2118C34.7938 18.9166 35.0403 18.7059 35.2363 18.4644C34.8627 18.2964 34.391 18.2059 34.1765 17.8372C33.8378 17.2557 34.8112 17.0768 35.1218 17.1166C35.1946 17.1255 35.2674 17.1424 35.3392 17.1613C35.2324 16.9506 35.3062 16.5749 35.3372 16.3751C35.3732 16.1494 35.4624 15.9318 35.6177 15.7727C35.5585 15.7409 35.5857 15.5729 35.6255 15.5262C35.64 15.5103 35.6507 15.5183 35.6391 15.5362C35.6061 15.5839 35.6488 15.6763 35.6594 15.728C35.6594 15.729 35.6594 15.731 35.6594 15.733C35.6837 15.7111 35.708 15.6912 35.7351 15.6733C35.74 15.6704 35.7449 15.6684 35.7497 15.6654C35.7497 15.5948 35.7458 15.5292 35.7953 15.4706C35.8128 15.4497 35.8273 15.4616 35.8118 15.4835C35.7837 15.5242 35.8011 15.5849 35.805 15.6336C35.838 15.6177 35.873 15.6038 35.9098 15.5928C35.9351 15.5163 35.939 15.4388 35.9933 15.3761V15.3791Z" fill="#BF692D"/>
<path d="M36.2929 15.6407C36.2735 15.6377 36.2541 15.6387 36.2347 15.6367C36.2502 15.6705 36.2744 15.7063 36.289 15.7361C36.3239 15.8047 36.3744 15.8703 36.422 15.9289C36.4385 15.9498 36.4608 15.9627 36.4812 15.9767C36.5248 15.8117 36.5132 15.6675 36.2919 15.6397L36.2929 15.6407Z" fill="#F5BC81"/>
<path d="M36.232 16.9337C36.0709 16.9596 35.9555 17.0739 35.8633 17.2021C36.0991 17.1792 36.3737 17.1206 36.563 16.9675C36.4591 16.9228 36.332 16.9178 36.232 16.9347V16.9337Z" fill="#F5BC81"/>
<path d="M36.6898 17.0611C36.6587 17.0224 36.619 16.9935 36.5743 16.9727C36.3792 17.1486 36.0803 17.2301 35.828 17.2539C35.8125 17.2778 35.7969 17.3017 35.7834 17.3255C35.7834 17.3265 35.7804 17.3285 35.7795 17.3295C35.9629 17.415 36.1395 17.5134 36.3094 17.6028C36.3831 17.5998 36.4879 17.5581 36.5297 17.5452C36.6054 17.5223 36.6743 17.4905 36.7373 17.4428C36.7684 17.4199 36.7927 17.3921 36.8228 17.3702C36.8072 17.2619 36.7674 17.1615 36.6898 17.0611Z" fill="#F5BC81"/>
<path d="M35.8582 17.457C35.997 17.6012 36.1028 17.7503 36.1756 17.9739C36.226 18.1289 36.227 18.2959 36.2406 18.457C36.2542 18.6279 36.2949 18.7691 36.2862 18.94C36.3823 19.0166 36.4735 19.0971 36.5531 19.1855C36.588 19.2114 36.6249 19.2352 36.6618 19.2541C36.8957 19.0663 36.7414 18.3804 36.6598 18.1697C36.5997 18.0136 36.4929 17.8795 36.3949 17.7443C36.2348 17.635 36.0484 17.5385 35.8582 17.457Z" fill="#F5BC81"/>
<path d="M36.821 17.6043C36.8317 17.5278 36.8317 17.4582 36.8249 17.3906C36.7473 17.4831 36.6677 17.5417 36.5502 17.5844C36.5367 17.5894 36.4483 17.6172 36.3688 17.6302C36.3717 17.6341 36.3756 17.6391 36.3794 17.6431C36.5211 17.7236 36.6473 17.8141 36.7531 17.9204C36.7968 17.8329 36.8074 17.6968 36.822 17.6043H36.821Z" fill="#F5BC81"/>
<path d="M36.9869 19.1097C37.1199 18.6336 36.9898 18.3503 36.6967 18.0074C36.6531 17.9577 36.6036 17.909 36.5492 17.8633C36.6793 18.0621 36.7685 18.2907 36.7986 18.5292C36.8239 18.724 36.8675 19.1216 36.6783 19.2658C36.8044 19.3274 36.9267 19.3234 36.9869 19.1107V19.1097Z" fill="#F5BC81"/>
<path d="M36.4814 19.6151C36.4891 19.5714 36.5376 19.3895 36.5435 19.2891C36.4648 19.2305 36.395 19.1579 36.3406 19.1012C36.3367 19.0963 36.3377 19.0893 36.3406 19.0814C36.3047 19.0555 36.2659 19.0327 36.229 19.0078C36.2096 19.0983 36 19.305 35.968 19.3487C35.8932 19.4501 35.8001 19.5376 35.703 19.6171C35.8321 19.6489 35.9582 19.6718 36.0941 19.6748C36.1223 19.6748 36.3862 19.633 36.4784 19.6241C36.4784 19.6211 36.4794 19.6181 36.4804 19.6151H36.4814Z" fill="#F5BC81"/>
<path d="M35.2002 20.6609C35.5574 21.1082 35.997 20.6778 36.2231 20.3309C36.0766 20.3906 35.8806 20.3956 35.7369 20.3975C35.5419 20.4005 35.3041 20.3826 35.1294 20.2872C35.1275 20.2862 35.1275 20.2842 35.1275 20.2812C35.0071 20.4164 35.078 20.5069 35.2002 20.6599V20.6609Z" fill="#F5BC81"/>
<path d="M35.4236 19.8095C35.3867 19.9248 35.3411 20.0271 35.2693 20.1325C35.245 20.1693 35.212 20.2021 35.179 20.2309C35.1693 20.2389 35.1625 20.2468 35.1547 20.2548C35.3129 20.2866 35.4634 20.3174 35.6254 20.3333C35.804 20.3502 36.067 20.3571 36.2533 20.2856C36.2572 20.2786 36.2621 20.2717 36.2669 20.2647C36.3785 20.0768 36.4348 19.8621 36.4756 19.6484C36.1971 19.7369 35.9243 19.7538 35.6439 19.6624C35.6332 19.6703 35.6225 19.6793 35.6118 19.6872C35.5517 19.7339 35.4886 19.7757 35.4236 19.8105V19.8095Z" fill="#F5BC81"/>
<path d="M34.7914 19.5428C34.8981 19.835 35.1893 19.8211 35.4251 19.7187C35.4348 19.7108 35.4445 19.7048 35.4494 19.7068C35.4581 19.7028 35.4659 19.6979 35.4746 19.6939C35.2465 19.7048 34.9486 19.6561 34.7778 19.4961C34.7826 19.512 34.7856 19.5269 34.7914 19.5428Z" fill="#F5BC81"/>
<path d="M34.7559 19.3821C34.9384 19.5958 35.2586 19.6674 35.5304 19.6634C35.5585 19.6475 35.5857 19.6306 35.6109 19.6117C35.7293 19.5242 35.8361 19.4199 35.936 19.3095C35.5275 19.3404 35.2082 19.236 34.8889 18.9766C34.8044 19.0988 34.7443 19.228 34.7559 19.3811V19.3821Z" fill="#F5BC81"/>
<path d="M34.9196 18.9353C35.0613 19.0427 35.1855 19.1381 35.3573 19.2057C35.5466 19.2792 35.7552 19.2872 35.9561 19.2892C36.0425 19.1928 36.124 19.0914 36.2026 18.989C36.1075 18.9274 36.0095 18.8717 35.9105 18.817C35.8814 18.817 35.8523 18.816 35.83 18.8131C35.7407 18.8021 35.6553 18.7872 35.5679 18.7644C35.4602 18.7365 35.2787 18.6948 35.1826 18.6133C35.0992 18.7226 35.0021 18.826 34.9206 18.9343L34.9196 18.9353Z" fill="#F5BC81"/>
<path d="M35.2166 18.5649C35.3302 18.6533 35.5175 18.6981 35.6466 18.7329C35.7029 18.7478 35.7591 18.7577 35.8164 18.7667C35.6602 18.6832 35.5 18.6037 35.3428 18.5192C35.3195 18.5072 35.2943 18.4963 35.27 18.4844C35.2535 18.5122 35.2351 18.538 35.2157 18.5639L35.2166 18.5649Z" fill="#F5BC81"/>
<path d="M34.3956 17.9542C34.5188 18.0863 34.8216 18.1698 35.0283 18.2464C34.9128 18.1092 34.809 17.9601 34.6916 17.8249C34.5673 17.6828 34.4266 17.5725 34.2898 17.4492C34.1995 17.5764 34.2034 17.7474 34.3965 17.9542H34.3956Z" fill="#F5BC81"/>
<path d="M34.325 17.4068C34.4599 17.4615 34.5803 17.6155 34.6725 17.7159C34.8316 17.8889 34.9568 18.0837 35.0927 18.2745C35.0995 18.2775 35.1063 18.2805 35.1131 18.2825C35.3043 18.366 35.5071 18.4574 35.7051 18.5628C35.6274 18.3471 35.5401 18.1463 35.4285 17.9396C35.2538 17.6175 35.0403 17.4396 34.7841 17.207C34.6065 17.2309 34.4289 17.3005 34.325 17.4088V17.4068Z" fill="#F5BC81"/>
<path d="M35.07 17.2079C35.0059 17.196 34.9351 17.193 34.8623 17.197C35.3155 17.4733 35.6532 18.0587 35.7425 18.5816C35.9269 18.681 36.1045 18.7933 36.2656 18.9205C36.2249 18.6253 36.1948 18.3082 36.122 18.023C36.0511 17.7437 35.8541 17.5926 35.6969 17.3868C35.4727 17.3033 35.2515 17.2417 35.07 17.2069V17.2079Z" fill="#F5BC81"/>
<path d="M35.4556 17.1966C35.5274 17.2215 35.5983 17.2523 35.6701 17.2821C35.673 17.2821 35.6759 17.2801 35.6778 17.2821C35.6798 17.2841 35.6817 17.2861 35.6846 17.2871C35.7079 17.297 35.7322 17.305 35.7555 17.3159C35.7982 17.2105 35.8584 17.1211 35.9302 17.0495C35.7817 17.0445 35.6681 16.9799 35.5497 16.8855C35.4915 16.8388 35.4071 16.7603 35.3663 16.6758C35.3585 16.8597 35.3789 17.0465 35.4556 17.1966Z" fill="#F5BC81"/>
<path d="M35.4071 16.3402C35.3955 16.3988 35.3848 16.4624 35.378 16.528C35.378 16.528 35.3799 16.528 35.3799 16.529C35.4236 16.6652 35.511 16.7646 35.6187 16.854C35.6769 16.9017 35.7448 16.9425 35.8099 16.9783C35.8312 16.9902 35.9341 17.0041 35.9496 17.03C36.0554 16.9316 36.1845 16.8689 36.3252 16.855C36.2854 16.7944 36.2825 16.7179 36.2912 16.6383C36.0865 16.6294 35.8972 16.4266 35.7807 16.2736C35.7128 16.1841 35.6129 15.9585 35.6313 15.8203C35.4993 15.9545 35.443 16.1553 35.4071 16.3402Z" fill="#F5BC81"/>
<path d="M35.7952 15.7093C35.7438 15.7302 35.7011 15.76 35.6623 15.7938C35.6264 15.9519 35.8263 16.2282 35.9117 16.3196C35.9748 16.3882 36.0446 16.4489 36.1165 16.5065C36.1669 16.5473 36.2455 16.5791 36.2931 16.6238C36.3047 16.5413 36.329 16.4588 36.3426 16.3922C36.3639 16.2888 36.428 16.1527 36.4678 16.0244C36.4406 16.0095 36.4115 15.9966 36.3862 15.9747C36.3367 15.933 36.2989 15.8704 36.262 15.8177C36.2242 15.762 36.1902 15.6984 36.1708 15.6328C36.0427 15.6328 35.9126 15.6606 35.7952 15.7093Z" fill="#F5BC81"/>
<g style="mix-blend-mode:multiply">
<path d="M35.9935 15.3791C36.0119 15.3563 36.0294 15.3692 36.011 15.393C35.9925 15.4169 35.9479 15.5421 35.9624 15.5779C36.0294 15.562 36.0993 15.5541 36.1691 15.5521C36.1759 15.5441 36.1847 15.5382 36.1895 15.5441C36.1915 15.5461 36.1924 15.5491 36.1944 15.5511C36.2041 15.5511 36.2148 15.5501 36.2245 15.5501C36.2497 15.4944 36.274 15.4408 36.3167 15.394C36.3351 15.3742 36.3429 15.396 36.3293 15.4119C36.2953 15.4537 36.2798 15.5034 36.2604 15.5511C36.2788 15.5531 36.2982 15.5511 36.3167 15.5541C36.3322 15.5203 36.3468 15.4865 36.371 15.4557C36.3875 15.4358 36.4021 15.4477 36.3865 15.4676C36.3662 15.4954 36.3555 15.5262 36.3438 15.557C36.373 15.563 36.4011 15.571 36.4283 15.5799C36.4535 15.5292 36.4816 15.4815 36.5243 15.4417C36.5428 15.4249 36.5428 15.4477 36.5311 15.4596C36.4943 15.4984 36.4739 15.5431 36.4535 15.5889C36.4797 15.5998 36.5059 15.6127 36.5292 15.6286C36.5321 15.6256 36.536 15.6226 36.5389 15.6207C36.5593 15.6008 36.5709 15.5898 36.5932 15.5739C36.602 15.567 36.6379 15.558 36.6408 15.5521C36.6427 15.5471 36.6583 15.5252 36.6641 15.5372C36.6651 15.5392 36.666 15.5411 36.667 15.5431C36.6719 15.5521 36.6602 15.566 36.6554 15.572C36.6427 15.5849 36.6311 15.5958 36.6165 15.6048C36.5952 15.6177 36.5768 15.6346 36.5593 15.6525C36.57 15.6614 36.5826 15.6684 36.5923 15.6793C36.5952 15.6823 36.5971 15.6863 36.5981 15.6892C36.6389 15.6624 36.6835 15.6405 36.7281 15.6276C36.7417 15.6236 36.7262 15.6505 36.7204 15.6535C36.6835 15.6704 36.6476 15.6922 36.6127 15.7131C36.6398 15.7837 36.5962 15.8741 36.569 15.9338C36.469 16.1524 36.2458 16.5928 36.3516 16.8482C36.3516 16.8482 36.3506 16.8502 36.3506 16.8512C36.4496 16.8452 36.5535 16.8591 36.6573 16.9049C36.7049 16.9257 36.7437 16.9585 36.7757 16.9983C36.6195 17.0361 36.4875 17.1812 36.4661 17.3501C36.4389 17.5648 36.6078 17.7954 36.7514 17.9356C36.7699 17.9545 36.7912 17.9604 36.8116 17.9624L36.8106 17.9644C36.8077 17.9664 36.8048 17.9674 36.8019 17.9694C36.8019 17.9714 36.8019 17.9744 36.8009 17.9783C36.9125 18.1046 36.9989 18.2487 37.061 18.4147C36.8572 18.1145 36.5049 17.9068 36.1682 17.7805C35.9255 17.6891 35.0832 17.3829 34.8755 17.7288C34.7949 17.861 34.958 17.9903 35.057 18.041C35.383 18.2069 35.7402 18.3024 36.0556 18.4932C36.3526 18.6721 36.4807 18.9305 36.7291 19.1472C36.8165 19.2228 36.9028 19.2705 36.998 19.2874C36.9912 19.2963 36.9853 19.3063 36.9776 19.3132C36.8534 19.4394 36.7078 19.3977 36.5787 19.3102C36.5865 19.4166 36.5787 19.5269 36.5612 19.6382C36.535 19.51 36.4855 19.3878 36.3933 19.2804C36.1449 18.9912 35.9983 19.5687 35.9129 19.6979C35.7771 19.9016 35.6072 20.0726 35.4655 20.2704C35.3889 20.3787 35.3073 20.5219 35.3627 20.66C35.4432 20.8598 35.6131 20.9055 35.7877 20.8797C35.7547 20.9006 35.7198 20.9214 35.6849 20.9393C35.6499 20.9572 35.615 20.9642 35.581 20.9672C35.5393 21.0387 35.4849 21.0964 35.416 21.1411C35.3947 21.155 35.4054 21.1232 35.416 21.1153C35.4733 21.0745 35.515 21.0238 35.5548 20.9682C35.5412 20.9682 35.5276 20.9701 35.5131 20.9682C35.4879 20.996 35.4607 21.0228 35.4306 21.0477C35.3889 21.0815 35.3326 21.1361 35.2773 21.1421C35.2646 21.1471 35.2782 21.1182 35.286 21.1143C35.3559 21.0835 35.419 21.0258 35.4743 20.9662C35.3928 20.9493 35.3141 20.9045 35.2414 20.8489C35.2054 20.9026 35.1598 20.9463 35.1035 20.9781C35.0861 20.988 35.0987 20.9572 35.1065 20.9513C35.155 20.9195 35.1909 20.8797 35.2249 20.834C35.1928 20.8071 35.1627 20.7783 35.1336 20.7485C35.0919 20.8002 35.0278 20.8419 34.9716 20.8618C34.956 20.8678 34.9725 20.833 34.9822 20.83C35.0278 20.8101 35.0764 20.7694 35.1142 20.7286C35.0793 20.6918 35.0492 20.6541 35.0201 20.6173C34.989 20.6471 34.9551 20.672 34.9172 20.6948C34.8988 20.7058 34.9114 20.671 34.9211 20.665C34.9521 20.6441 34.9803 20.6233 35.0065 20.5994C34.9968 20.5865 34.9861 20.5726 34.9774 20.5606C34.9337 20.5984 34.8784 20.6262 34.824 20.6342C34.8066 20.6362 34.826 20.6074 34.8308 20.6034C34.8396 20.5974 34.8454 20.5934 34.8541 20.5885C34.858 20.5865 34.8599 20.5875 34.8599 20.5895C34.8949 20.5726 34.925 20.5497 34.9551 20.5268C34.9415 20.502 34.9356 20.4732 34.9356 20.4443C34.8997 20.4612 34.8658 20.4712 34.8221 20.4761C34.8007 20.4791 34.825 20.4364 34.8386 20.4344C34.8745 20.4284 34.9065 20.4185 34.9386 20.4076C34.9424 20.3857 34.9492 20.3638 34.9599 20.3449C34.9764 20.3151 35.0084 20.2923 35.0308 20.2704C35.1598 20.1471 35.2646 20.003 35.3491 19.846C35.1996 19.9086 35.0414 19.9215 34.8784 19.8311C34.6824 19.7217 34.594 19.4176 34.6746 19.2128C34.792 18.9176 35.0385 18.7069 35.2346 18.4654C34.8609 18.2974 34.3893 18.2069 34.1748 17.8382C33.8361 17.2567 34.8095 17.0778 35.12 17.1176C35.1928 17.1265 35.2656 17.1434 35.3374 17.1623C35.2307 16.9516 35.3044 16.5759 35.3355 16.3761C35.3714 16.1504 35.4607 15.9328 35.616 15.7737C35.5568 15.7419 35.5839 15.5739 35.6237 15.5272C35.6383 15.5113 35.649 15.5193 35.6373 15.5372C35.6043 15.5849 35.647 15.6773 35.6577 15.729C35.6577 15.73 35.6577 15.732 35.6577 15.734C35.682 15.7121 35.7062 15.6922 35.7334 15.6743C35.7382 15.6714 35.7431 15.6694 35.748 15.6664C35.748 15.5958 35.7441 15.5302 35.7936 15.4716C35.811 15.4507 35.8256 15.4626 35.8101 15.4845C35.7819 15.5252 35.7994 15.5859 35.8033 15.6346C35.8363 15.6187 35.8712 15.6048 35.9081 15.5938C35.9333 15.5173 35.9372 15.4398 35.9915 15.3771L35.9935 15.3791ZM35.4335 18.9902C35.2443 19.1204 34.9686 19.2506 34.9434 19.511C34.9172 19.7893 35.2482 19.7416 35.4025 19.676C35.647 19.5726 35.9149 19.3898 36.0352 19.1403C36.0507 19.1065 36.0478 19.0747 36.0352 19.0488C36.0498 18.9435 35.9343 18.8808 35.8537 18.8639C35.7072 18.8341 35.5519 18.9097 35.4335 18.9902ZM35.9168 15.9C35.8207 16.0103 35.746 16.1544 35.6994 16.2936C35.6451 16.4606 35.5247 16.7856 35.6276 16.9536C35.7217 17.1066 35.8761 17.0331 35.9915 16.9297C36.2342 16.8482 36.2963 16.5759 36.3361 16.3383C36.3526 16.2399 36.4089 16.0878 36.4186 15.9546C36.4205 15.9387 36.4254 15.9238 36.4254 15.9079C36.4254 15.889 36.4215 15.8741 36.4147 15.8612C36.404 15.7946 36.3739 15.7389 36.3031 15.7091C36.1682 15.6515 35.9935 15.8105 35.9158 15.9H35.9168Z" fill="#F5BC81"/>
</g>
<g style="mix-blend-mode:screen" opacity="0.6">
<path d="M36.4155 19.5956C36.3873 19.7109 36.3844 19.8213 36.3466 19.9356C36.301 20.0737 36.2408 20.2208 36.1554 20.3381C36.0205 20.525 35.8565 20.694 35.6439 20.7854C35.6177 20.7963 35.6381 20.7556 35.6478 20.7486C35.8021 20.6393 35.937 20.4932 36.0564 20.3451C36.233 20.1234 36.2883 19.8541 36.399 19.6016C36.4009 19.5966 36.4194 19.5817 36.4155 19.5956Z" fill="#F5BC81"/>
</g>
<g style="mix-blend-mode:screen" opacity="0.6">
<path d="M35.8781 19.2714C35.8121 19.3449 35.7645 19.4205 35.6869 19.4851C35.6151 19.5437 35.517 19.6322 35.4239 19.6471C35.3802 19.6541 35.421 19.5865 35.4326 19.5745C35.4937 19.5139 35.5733 19.4771 35.6471 19.4334C35.7335 19.3827 35.7975 19.3141 35.8761 19.2535C35.8907 19.2416 35.8849 19.2634 35.879 19.2704L35.8781 19.2714Z" fill="#F5BC81"/>
</g>
<g style="mix-blend-mode:screen" opacity="0.6">
<path d="M36.1139 18.3729C36.407 18.5577 36.603 18.8589 36.8359 19.1094C36.8427 19.1173 36.8243 19.1412 36.8175 19.1342C36.5817 18.9335 36.3992 18.678 36.1546 18.4862C35.8897 18.2794 35.5782 18.1761 35.2802 18.0359C35.2705 18.031 35.2919 18.0011 35.3016 18.0041C35.584 18.0936 35.8625 18.2138 36.1149 18.3729H36.1139Z" fill="#F5BC81"/>
</g>
<g style="mix-blend-mode:screen" opacity="0.6">
<path d="M36.7523 17.2484C36.8183 17.2852 36.8076 17.4015 36.8047 17.4671C36.8028 17.4969 36.7513 17.7623 36.7552 17.7642C36.761 17.7662 36.7503 17.7802 36.7484 17.7811C36.7465 17.7821 36.7445 17.7831 36.7426 17.7851C36.7387 17.7871 36.7319 17.7911 36.7319 17.7831C36.728 17.6142 36.7892 17.4571 36.7125 17.2941C36.7047 17.2782 36.7358 17.2384 36.7533 17.2474L36.7523 17.2484Z" fill="#F5BC81"/>
</g>
<g style="mix-blend-mode:screen" opacity="0.6">
<path d="M36.3266 16.0875C36.2995 16.1839 36.2927 16.2863 36.2636 16.3817C36.2597 16.3956 36.2112 16.4572 36.2073 16.4185C36.2024 16.3747 36.2209 16.328 36.2364 16.2893C36.2626 16.2247 36.2781 16.1581 36.3082 16.0954C36.3111 16.0905 36.3305 16.0726 36.3266 16.0885V16.0875Z" fill="#F5BC81"/>
</g>
<path d="M16.752 19.1328C19.0328 18.3202 21.7044 17.9062 24.2568 18.4883C29.3362 19.6466 32.628 24.9676 32.3828 29.4307C32.2542 31.7709 32.0908 33.0184 31.6641 34.123C31.2339 35.2365 30.5262 36.2345 29.209 38.0605C28.0035 39.7317 25.9563 40.691 24.1396 41.2295C23.2408 41.4959 22.4197 41.6538 21.8232 41.7441C21.5254 41.7893 21.2841 41.817 21.1191 41.834C21.0369 41.8424 20.9737 41.8481 20.9316 41.8516C20.917 41.8528 20.9049 41.8538 20.8955 41.8545C15.9259 41.7022 12.8961 39.8254 11.1074 38.0166C10.2072 37.1062 9.61428 36.2056 9.24805 35.5361C9.06515 35.2017 8.93873 34.9259 8.85938 34.7363C8.81971 34.6416 8.79196 34.5683 8.77441 34.5205C8.76566 34.4966 8.75958 34.4786 8.75586 34.4678C8.75407 34.4626 8.7526 34.459 8.75195 34.457V34.4561L8.74805 34.4443L8.57715 33.915C6.96183 28.4673 9.98827 23.8817 11.7598 22.0459C12.6326 21.1415 14.4644 19.9479 16.752 19.1328Z" fill="#7F09DB" stroke="black" stroke-width="1.02606"/>
<path d="M17.8242 17.5391C20.1051 16.7264 22.7766 16.3125 25.3291 16.8945C30.4085 18.0529 33.7002 23.3739 33.4551 27.8369C33.3265 30.1772 33.163 31.4247 32.7363 32.5293C32.3062 33.6427 31.5985 34.6408 30.2812 36.4668C29.0757 38.1379 27.0286 39.0972 25.2119 39.6357C24.3131 39.9022 23.4919 40.06 22.8955 40.1504C22.5977 40.1955 22.3563 40.2233 22.1914 40.2402C22.1092 40.2487 22.0459 40.2544 22.0039 40.2578C21.9893 40.259 21.9771 40.26 21.9678 40.2607C16.9982 40.1084 13.9683 38.2317 12.1797 36.4229C11.2794 35.5124 10.6865 34.6119 10.3203 33.9424C10.1374 33.608 10.011 33.3321 9.93164 33.1426C9.89198 33.0478 9.86423 32.9746 9.84668 32.9268C9.83792 32.9029 9.83184 32.8848 9.82812 32.874C9.82634 32.8688 9.82486 32.8652 9.82422 32.8633V32.8623L9.82031 32.8506L9.64941 32.3213C8.0341 26.8735 11.0605 22.288 12.832 20.4521C13.7049 19.5477 15.5367 18.3541 17.8242 17.5391Z" fill="#C131F5" stroke="black" stroke-width="1.02606"/>
<path d="M30.1425 26.8239C29.7271 25.1173 28.6333 23.4355 27.1427 22.2119C25.5151 20.8761 23.5576 20.1872 21.6312 20.2727C21.0644 20.2976 20.4977 20.39 19.9455 20.5471C19.0429 20.6584 18.1724 20.9496 17.3552 21.4128C16.5769 21.8541 15.8694 22.4376 15.2512 23.1492C14.6669 23.8212 14.1885 24.5776 13.8265 25.3986C13.4645 26.2206 13.2393 27.0625 13.1578 27.9014C13.0268 29.2531 13.284 30.5105 13.9012 31.5402C14.5301 32.5899 15.52 33.3741 16.7787 33.8254C16.7224 34.1096 16.6739 34.4406 16.7137 34.7975C16.7884 35.4624 17.1611 36.0131 17.7628 36.349L17.8075 36.3739L17.855 36.3947C18.7003 36.7774 19.2642 36.9812 19.8232 36.9563C20.1298 36.9424 20.4171 36.8569 20.6656 36.7068C20.9761 36.849 21.3439 36.9116 21.7642 36.8927C21.8418 36.8897 21.9224 36.8828 22.0048 36.8738C22.1533 36.8987 22.2999 36.9076 22.4445 36.9007C22.689 36.8897 23.0637 36.8261 23.4344 36.5806C23.6576 36.6919 23.9138 36.7446 24.1875 36.7327C24.3738 36.7247 24.5359 36.689 24.7077 36.6512C24.7999 36.6313 24.896 36.6094 25.0076 36.5906L25.026 36.5876L25.0444 36.5836C25.4851 36.4931 25.8509 36.3639 26.1625 36.189C26.5196 35.9882 26.801 35.7268 26.9971 35.4137C27.4717 34.6543 27.3018 33.8542 27.1514 33.3174C27.7162 33.0252 28.2151 32.6783 28.6382 32.2817C29.1574 31.7957 29.566 31.2331 29.8503 30.6119C30.3686 29.4818 30.4686 28.1727 30.1415 26.8259L30.1425 26.8239ZM23.2636 29.3237C22.1194 27.7215 23.8653 25.7564 25.4821 26.2355C29.2069 27.7294 25.4666 32.4438 23.2636 29.3237ZM20.7995 31.9696C21.1139 31.5174 21.7147 29.9787 22.2213 30.93C22.7677 31.8374 23.679 32.4368 21.9107 32.3354C21.1576 32.2599 20.6646 32.5183 20.7995 31.9686V31.9696ZM17.2368 30.1457C15.5083 28.7631 17.3174 25.9552 19.3428 26.6201C22.4115 27.6887 19.5466 32.1018 17.2368 30.1457Z" fill="url(#paint0_linear_2007_3602)"/>
<path fill-rule="evenodd" clip-rule="evenodd" d="M20.1563 20.8529C14.6041 21.4621 11.6984 30.7865 17.5505 32.5716C18.8995 32.6949 17.1807 34.5019 18.3783 35.2106C20.101 36.0386 20.2475 35.8646 20.496 34.1391C21.0763 34.7057 20.4416 35.8636 22.0643 35.5873C23.6559 36.1101 23.1444 32.4186 23.7782 34.8975C23.9305 35.6678 24.0082 35.477 24.7914 35.3348C27.5 34.7534 24.8506 32.4822 26.1898 32.1969C32.8921 29.0958 26.6916 18.7894 20.1543 20.8529H20.1563ZM17.2196 29.7468C15.4872 28.2817 17.2894 25.3187 19.3178 26.0264C22.3894 27.1635 19.5352 31.8202 17.2196 29.7468ZM21.9003 32.0747C21.1471 31.9922 20.6551 32.2655 20.7881 31.685C21.1015 31.2079 21.6984 29.5828 22.2079 30.5907C22.7562 31.5508 23.6695 32.187 21.9003 32.0756V32.0747ZM23.2463 28.894C22.0982 27.1983 23.8393 25.1259 25.4581 25.6368C29.1867 27.2251 25.4581 32.1979 23.2463 28.894Z" fill="#F9E8E9"/>
<path fill-rule="evenodd" clip-rule="evenodd" d="M21.9 32.0732C21.1469 31.9907 20.6548 32.264 20.7878 31.6836C21.1013 31.2065 21.6981 29.5813 22.2076 30.5892C22.756 31.5494 23.6692 32.1855 21.9 32.0742V32.0732Z" fill="url(#paint1_linear_2007_3602)"/>
<path fill-rule="evenodd" clip-rule="evenodd" d="M17.2195 29.7498C15.4871 28.2847 17.2893 25.3217 19.3177 26.0294C22.3893 27.1665 19.5351 31.8232 17.2195 29.7498Z" fill="url(#paint2_linear_2007_3602)"/>
<path fill-rule="evenodd" clip-rule="evenodd" d="M23.246 28.8947C22.0979 27.199 23.8389 25.1266 25.4577 25.6375C29.1864 27.2259 25.4577 32.1986 23.246 28.8947Z" fill="url(#paint3_linear_2007_3602)"/>
<path d="M32.8675 24.9961C32.8675 24.9961 30.677 19.6218 28.1227 18.7044C28.1227 18.7044 27.9441 18.5026 28.146 18.4141C28.3478 18.3257 28.8156 18.5652 28.8156 18.5652C28.8156 18.5652 31.305 20.2748 32.8675 24.9971V24.9961Z" fill="#F3F4EE"/>
<path d="M27.5968 18.6198C27.7576 18.6198 27.888 18.4863 27.888 18.3216C27.888 18.1569 27.7576 18.0234 27.5968 18.0234C27.436 18.0234 27.3057 18.1569 27.3057 18.3216C27.3057 18.4863 27.436 18.6198 27.5968 18.6198Z" fill="#F3F4EE"/>
<defs>
<linearGradient id="paint0_linear_2007_3602" x1="24.8109" y1="21.8646" x2="16.8647" y2="37.5039" gradientUnits="userSpaceOnUse">
<stop stop-color="#5A00A0"/>
<stop offset="1" stop-color="#7F09DB"/>
</linearGradient>
<linearGradient id="paint1_linear_2007_3602" x1="20.7664" y1="31.1747" x2="22.9365" y2="31.1747" gradientUnits="userSpaceOnUse">
<stop stop-color="#5A00A0"/>
<stop offset="1" stop-color="#7F09DB"/>
</linearGradient>
<linearGradient id="paint2_linear_2007_3602" x1="18.5752" y1="29.2935" x2="18.62" y2="25.93" gradientUnits="userSpaceOnUse">
<stop stop-color="#7F09DB"/>
<stop offset="0.25" stop-color="#7607D0"/>
<stop offset="0.69" stop-color="#6103B3"/>
<stop offset="1" stop-color="#4F009B"/>
</linearGradient>
<linearGradient id="paint3_linear_2007_3602" x1="24.9773" y1="25.7299" x2="24.9509" y2="28.4852" gradientUnits="userSpaceOnUse">
<stop stop-color="#5A00A0"/>
<stop offset="1" stop-color="#7F09DB"/>
</linearGradient>
</defs>
</svg>
