<svg width="390" height="347" viewBox="0 0 390 347" fill="none" xmlns="http://www.w3.org/2000/svg">
<path d="M0 72C0 49.9086 17.9086 32 40 32H350C372.091 32 390 49.9086 390 72V347H0V72Z" fill="#030229"/>
<path d="M271.228 152.938C270.54 154.357 269.4 153.175 267.825 151.968C265.86 150.501 264.836 149.986 265.524 148.568C266.212 147.15 268.046 146.978 269.621 148.185C271.197 149.392 271.916 151.52 271.228 152.938Z" fill="#D9D9D9" fill-opacity="0.28" style="mix-blend-mode:overlay"/>
<path d="M263.534 148.666C263.48 149.325 262.749 149.619 261.797 149.498C260.616 149.36 260.032 148.886 260.085 148.226C260.138 147.566 260.954 147.13 261.906 147.251C262.858 147.373 263.587 148.006 263.534 148.666Z" fill="#D9D9D9" fill-opacity="0.28" style="mix-blend-mode:overlay"/>
<path d="M142.74 68.24C142.913 68.24 143.053 68.26 143.16 68.3C143.28 68.34 143.373 68.42 143.44 68.54C143.507 68.6467 143.54 68.8267 143.54 69.08C143.54 69.32 143.5 69.5 143.42 69.62C143.353 69.74 143.26 69.82 143.14 69.86C143.02 69.8867 142.873 69.9 142.7 69.9H138.56V81.32C138.56 81.4933 138.533 81.6467 138.48 81.78C138.44 81.9133 138.353 82.0133 138.22 82.08C138.1 82.16 137.913 82.2 137.66 82.2C137.393 82.2 137.193 82.16 137.06 82.08C136.94 82.0133 136.86 81.9133 136.82 81.78C136.793 81.6333 136.78 81.4733 136.78 81.3V69.9H132.58C132.407 69.9 132.26 69.8867 132.14 69.86C132.02 69.82 131.927 69.74 131.86 69.62C131.793 69.5 131.76 69.32 131.76 69.08C131.76 68.8267 131.787 68.6467 131.84 68.54C131.907 68.42 132 68.34 132.12 68.3C132.253 68.26 132.4 68.24 132.56 68.24H142.74ZM147.382 82.32C146.729 82.32 146.102 82.1933 145.502 81.94C144.916 81.6867 144.389 81.34 143.922 80.9C143.456 80.4467 143.089 79.92 142.822 79.32C142.556 78.72 142.422 78.0667 142.422 77.36C142.422 76.6667 142.549 76.0267 142.802 75.44C143.056 74.84 143.409 74.3133 143.862 73.86C144.316 73.4067 144.836 73.0533 145.422 72.8C146.022 72.5333 146.662 72.4 147.342 72.4C148.262 72.4 149.089 72.62 149.822 73.06C150.569 73.4867 151.162 74.0733 151.602 74.82C152.042 75.5667 152.262 76.4067 152.262 77.34C152.262 78.0733 152.129 78.7467 151.862 79.36C151.596 79.96 151.236 80.48 150.782 80.92C150.329 81.36 149.809 81.7067 149.222 81.96C148.636 82.2 148.022 82.32 147.382 82.32ZM147.342 80.58C147.902 80.58 148.422 80.44 148.902 80.16C149.382 79.88 149.769 79.4933 150.062 79C150.356 78.5067 150.502 77.9467 150.502 77.32C150.502 76.6933 150.362 76.14 150.082 75.66C149.816 75.18 149.442 74.8067 148.962 74.54C148.482 74.2733 147.936 74.14 147.322 74.14C146.736 74.14 146.202 74.28 145.722 74.56C145.256 74.84 144.876 75.22 144.582 75.7C144.302 76.18 144.162 76.7267 144.162 77.34C144.162 77.98 144.309 78.5467 144.602 79.04C144.896 79.52 145.282 79.9 145.762 80.18C146.256 80.4467 146.782 80.58 147.342 80.58ZM158.034 82.22C157.447 82.22 156.9 82.1133 156.394 81.9C155.9 81.6867 155.467 81.3867 155.094 81C154.72 80.6133 154.427 80.1467 154.214 79.6C154.014 79.0533 153.914 78.4333 153.914 77.74V73.4C153.914 73.2133 153.934 73.0533 153.974 72.92C154.014 72.7867 154.094 72.6867 154.214 72.62C154.347 72.54 154.54 72.5 154.794 72.5C155.047 72.5 155.234 72.54 155.354 72.62C155.487 72.7 155.574 72.8067 155.614 72.94C155.654 73.0733 155.674 73.2333 155.674 73.42V77.76C155.674 78.3067 155.767 78.7933 155.954 79.22C156.14 79.6333 156.42 79.9533 156.794 80.18C157.18 80.4067 157.647 80.52 158.194 80.52C158.754 80.52 159.234 80.4067 159.634 80.18C160.047 79.9533 160.36 79.6333 160.574 79.22C160.8 78.7933 160.914 78.3067 160.914 77.76V73.4C160.914 73.2133 160.934 73.0533 160.974 72.92C161.014 72.7867 161.094 72.6867 161.214 72.62C161.347 72.54 161.54 72.5 161.794 72.5C162.047 72.5 162.234 72.54 162.354 72.62C162.487 72.7 162.567 72.8067 162.594 72.94C162.634 73.0733 162.654 73.2333 162.654 73.42V81.36C162.654 81.52 162.634 81.6667 162.594 81.8C162.567 81.92 162.487 82.0133 162.354 82.08C162.234 82.1467 162.047 82.18 161.794 82.18C161.607 82.18 161.454 82.16 161.334 82.12C161.227 82.08 161.147 82.0267 161.094 81.96C161.04 81.8933 161 81.82 160.974 81.74C160.96 81.6467 160.954 81.5533 160.954 81.46L161.034 80.6C160.9 80.76 160.74 80.9333 160.554 81.12C160.367 81.3067 160.147 81.4867 159.894 81.66C159.654 81.82 159.38 81.9533 159.074 82.06C158.767 82.1667 158.42 82.22 158.034 82.22ZM165.933 82.2C165.68 82.2 165.486 82.16 165.353 82.08C165.233 82.0133 165.153 81.9133 165.113 81.78C165.086 81.6333 165.073 81.4667 165.073 81.28V73.4C165.073 73.2 165.093 73.0333 165.133 72.9C165.173 72.7667 165.253 72.6733 165.373 72.62C165.493 72.5533 165.686 72.52 165.953 72.52C166.193 72.52 166.373 72.5533 166.493 72.62C166.626 72.6733 166.713 72.76 166.753 72.88C166.806 72.9867 166.833 73.1133 166.833 73.26L166.753 73.86C166.846 73.6867 166.953 73.5133 167.073 73.34C167.206 73.1667 167.366 73.0133 167.553 72.88C167.753 72.7333 167.986 72.6133 168.253 72.52C168.533 72.4267 168.873 72.38 169.273 72.38C169.473 72.38 169.66 72.4 169.833 72.44C170.02 72.4667 170.193 72.5133 170.353 72.58C170.526 72.6467 170.673 72.7267 170.793 72.82C170.913 72.9 171.006 72.9933 171.073 73.1C171.153 73.1933 171.193 73.3067 171.193 73.44C171.193 73.7333 171.1 73.9867 170.913 74.2C170.726 74.4 170.533 74.5 170.333 74.5C170.16 74.5 170.033 74.48 169.953 74.44C169.873 74.3867 169.793 74.3333 169.713 74.28C169.646 74.2267 169.546 74.18 169.413 74.14C169.28 74.0867 169.066 74.06 168.773 74.06C168.573 74.06 168.36 74.1 168.133 74.18C167.92 74.26 167.713 74.38 167.513 74.54C167.313 74.6867 167.146 74.88 167.013 75.12C166.893 75.36 166.833 75.64 166.833 75.96V81.32C166.833 81.5067 166.813 81.6667 166.773 81.8C166.733 81.9333 166.646 82.0333 166.513 82.1C166.393 82.1667 166.2 82.2 165.933 82.2ZM174.058 82.18C173.805 82.18 173.611 82.14 173.478 82.06C173.358 81.9933 173.278 81.8933 173.238 81.76C173.211 81.6267 173.198 81.4667 173.198 81.28V73.34C173.198 73.1667 173.218 73.02 173.258 72.9C173.298 72.78 173.378 72.6867 173.498 72.62C173.631 72.5533 173.825 72.52 174.078 72.52C174.278 72.52 174.431 72.5467 174.538 72.6C174.658 72.64 174.738 72.7 174.778 72.78C174.831 72.86 174.865 72.9467 174.878 73.04C174.891 73.1333 174.898 73.22 174.898 73.3L174.858 74.22C174.991 73.9933 175.158 73.78 175.358 73.58C175.558 73.3667 175.791 73.18 176.058 73.02C176.325 72.8467 176.611 72.7133 176.918 72.62C177.238 72.5267 177.578 72.48 177.938 72.48C178.525 72.48 179.065 72.5867 179.558 72.8C180.051 73 180.471 73.3 180.818 73.7C181.178 74.0867 181.451 74.5533 181.638 75.1C181.838 75.6467 181.938 76.2667 181.938 76.96V81.3C181.938 81.4867 181.918 81.6467 181.878 81.78C181.851 81.9133 181.771 82.0133 181.638 82.08C181.518 82.1467 181.331 82.18 181.078 82.18C180.811 82.18 180.611 82.14 180.478 82.06C180.358 81.9933 180.278 81.8933 180.238 81.76C180.198 81.6267 180.178 81.4667 180.178 81.28V76.94C180.178 76.38 180.085 75.8933 179.898 75.48C179.711 75.0667 179.431 74.7467 179.058 74.52C178.685 74.28 178.211 74.16 177.638 74.16C177.091 74.16 176.611 74.28 176.198 74.52C175.798 74.7467 175.485 75.0667 175.258 75.48C175.045 75.8933 174.938 76.38 174.938 76.94V81.3C174.938 81.4867 174.918 81.6467 174.878 81.78C174.838 81.9133 174.751 82.0133 174.618 82.08C174.498 82.1467 174.311 82.18 174.058 82.18ZM192.551 82.18C192.257 82.18 192.044 82.12 191.911 82C191.791 81.88 191.717 81.6933 191.691 81.44L191.771 80.44C191.637 80.6533 191.431 80.9 191.151 81.18C190.871 81.4467 190.504 81.6867 190.051 81.9C189.597 82.1 189.044 82.2 188.391 82.2C187.751 82.2 187.151 82.0733 186.591 81.82C186.044 81.5667 185.557 81.2133 185.131 80.76C184.717 80.3067 184.391 79.7867 184.151 79.2C183.924 78.6133 183.811 77.9867 183.811 77.32C183.811 76.6667 183.924 76.0533 184.151 75.48C184.391 74.8933 184.724 74.38 185.151 73.94C185.577 73.5 186.064 73.1533 186.611 72.9C187.171 72.6467 187.764 72.52 188.391 72.52C188.977 72.52 189.477 72.6 189.891 72.76C190.304 72.9067 190.657 73.1067 190.951 73.36C191.257 73.6 191.524 73.8733 191.751 74.18L191.711 73.34C191.697 73.0467 191.757 72.84 191.891 72.72C192.037 72.5867 192.264 72.52 192.571 72.52C192.824 72.52 193.004 72.56 193.111 72.64C193.231 72.72 193.311 72.8333 193.351 72.98C193.391 73.1267 193.411 73.3067 193.411 73.52V81.24C193.411 81.4267 193.391 81.5933 193.351 81.74C193.311 81.8867 193.231 81.9933 193.111 82.06C192.991 82.14 192.804 82.18 192.551 82.18ZM188.691 80.52C189.224 80.52 189.711 80.38 190.151 80.1C190.604 79.82 190.957 79.4467 191.211 78.98C191.477 78.5 191.611 77.9533 191.611 77.34C191.611 76.7133 191.471 76.1667 191.191 75.7C190.924 75.22 190.564 74.8467 190.111 74.58C189.671 74.3 189.184 74.16 188.651 74.16C188.024 74.16 187.477 74.3067 187.011 74.6C186.557 74.88 186.197 75.26 185.931 75.74C185.664 76.22 185.531 76.7667 185.531 77.38C185.531 77.98 185.664 78.52 185.931 79C186.197 79.4667 186.564 79.84 187.031 80.12C187.511 80.3867 188.064 80.52 188.691 80.52ZM196.655 82.2C196.402 82.2 196.215 82.16 196.095 82.08C195.975 82 195.895 81.8933 195.855 81.76C195.815 81.6267 195.795 81.4667 195.795 81.28V73.36C195.795 73.1733 195.815 73.02 195.855 72.9C195.895 72.78 195.975 72.6867 196.095 72.62C196.228 72.5533 196.422 72.52 196.675 72.52C196.968 72.52 197.175 72.58 197.295 72.7C197.428 72.8067 197.495 73 197.495 73.28L197.415 74.14C197.508 73.94 197.648 73.74 197.835 73.54C198.022 73.34 198.242 73.16 198.495 73C198.762 72.84 199.042 72.7133 199.335 72.62C199.628 72.5267 199.928 72.48 200.235 72.48C200.702 72.48 201.115 72.5667 201.475 72.74C201.848 72.9 202.182 73.1333 202.475 73.44C202.768 73.7467 203.015 74.1267 203.215 74.58C203.482 74.14 203.762 73.7667 204.055 73.46C204.362 73.14 204.708 72.9 205.095 72.74C205.482 72.5667 205.915 72.48 206.395 72.48C207.155 72.48 207.788 72.6733 208.295 73.06C208.815 73.4333 209.202 73.9667 209.455 74.66C209.722 75.34 209.855 76.16 209.855 77.12V81.3C209.855 81.4867 209.835 81.6467 209.795 81.78C209.768 81.9133 209.688 82.0133 209.555 82.08C209.435 82.16 209.242 82.2 208.975 82.2C208.722 82.2 208.528 82.16 208.395 82.08C208.275 82 208.195 81.8933 208.155 81.76C208.115 81.6267 208.095 81.4667 208.095 81.28V77.1C208.095 76.5 208.022 75.9867 207.875 75.56C207.742 75.12 207.528 74.78 207.235 74.54C206.955 74.3 206.588 74.18 206.135 74.18C205.655 74.18 205.228 74.3 204.855 74.54C204.495 74.7667 204.215 75.1 204.015 75.54C203.815 75.98 203.715 76.5 203.715 77.1V81.32C203.715 81.52 203.675 81.6933 203.595 81.84C203.515 81.9867 203.395 82.0867 203.235 82.14C203.075 82.2067 202.882 82.22 202.655 82.18C202.442 82.1533 202.282 82.1 202.175 82.02C202.068 81.94 202.002 81.84 201.975 81.72C201.948 81.5867 201.935 81.44 201.935 81.28V77.1C201.935 76.5 201.862 75.9867 201.715 75.56C201.582 75.12 201.368 74.78 201.075 74.54C200.795 74.3 200.428 74.18 199.975 74.18C199.495 74.18 199.068 74.3067 198.695 74.56C198.335 74.8 198.055 75.14 197.855 75.58C197.655 76.02 197.555 76.5267 197.555 77.1V81.3C197.555 81.4867 197.535 81.6467 197.495 81.78C197.455 81.9133 197.368 82.0133 197.235 82.08C197.115 82.16 196.922 82.2 196.655 82.2ZM216.879 82.3C216.079 82.3 215.365 82.1667 214.739 81.9C214.112 81.6333 213.579 81.2733 213.139 80.82C212.712 80.3533 212.385 79.82 212.159 79.22C211.932 78.62 211.819 77.9733 211.819 77.28C211.819 76.36 212.032 75.54 212.459 74.82C212.885 74.1 213.472 73.5333 214.219 73.12C214.979 72.6933 215.845 72.48 216.819 72.48C217.485 72.48 218.079 72.5867 218.599 72.8C219.132 73 219.585 73.2733 219.959 73.62C220.332 73.9667 220.619 74.3533 220.819 74.78C221.019 75.2067 221.119 75.6333 221.119 76.06C221.119 76.74 220.959 77.22 220.639 77.5C220.319 77.7667 219.925 77.9 219.459 77.9H213.679C213.665 78.4867 213.819 78.9933 214.139 79.42C214.472 79.8333 214.885 80.1533 215.379 80.38C215.885 80.6067 216.392 80.72 216.899 80.72C217.272 80.72 217.592 80.7 217.859 80.66C218.125 80.62 218.359 80.5667 218.559 80.5C218.759 80.4333 218.932 80.3667 219.079 80.3C219.225 80.2333 219.352 80.1667 219.459 80.1C219.579 80.0333 219.692 79.9867 219.799 79.96C219.919 79.9333 220.032 79.9467 220.139 80C220.259 80.04 220.352 80.1267 220.419 80.26C220.499 80.3667 220.552 80.4667 220.579 80.56C220.605 80.6533 220.619 80.7533 220.619 80.86C220.619 81.0467 220.459 81.2533 220.139 81.48C219.819 81.7067 219.372 81.9 218.799 82.06C218.239 82.22 217.599 82.3 216.879 82.3ZM213.679 76.72H218.699C218.952 76.72 219.139 76.6867 219.259 76.62C219.392 76.5533 219.459 76.3733 219.459 76.08C219.459 75.7067 219.345 75.3733 219.119 75.08C218.892 74.7733 218.579 74.5267 218.179 74.34C217.792 74.1533 217.345 74.06 216.839 74.06C216.252 74.06 215.712 74.18 215.219 74.42C214.739 74.6467 214.359 74.96 214.079 75.36C213.799 75.76 213.665 76.2133 213.679 76.72ZM223.999 82.18C223.746 82.18 223.553 82.14 223.419 82.06C223.299 81.9933 223.219 81.8933 223.179 81.76C223.153 81.6267 223.139 81.4667 223.139 81.28V73.34C223.139 73.1667 223.159 73.02 223.199 72.9C223.239 72.78 223.319 72.6867 223.439 72.62C223.573 72.5533 223.766 72.52 224.019 72.52C224.219 72.52 224.373 72.5467 224.479 72.6C224.599 72.64 224.679 72.7 224.719 72.78C224.773 72.86 224.806 72.9467 224.819 73.04C224.833 73.1333 224.839 73.22 224.839 73.3L224.799 74.22C224.933 73.9933 225.099 73.78 225.299 73.58C225.499 73.3667 225.733 73.18 225.999 73.02C226.266 72.8467 226.553 72.7133 226.859 72.62C227.179 72.5267 227.519 72.48 227.879 72.48C228.466 72.48 229.006 72.5867 229.499 72.8C229.993 73 230.413 73.3 230.759 73.7C231.119 74.0867 231.393 74.5533 231.579 75.1C231.779 75.6467 231.879 76.2667 231.879 76.96V81.3C231.879 81.4867 231.859 81.6467 231.819 81.78C231.793 81.9133 231.713 82.0133 231.579 82.08C231.459 82.1467 231.273 82.18 231.019 82.18C230.753 82.18 230.553 82.14 230.419 82.06C230.299 81.9933 230.219 81.8933 230.179 81.76C230.139 81.6267 230.119 81.4667 230.119 81.28V76.94C230.119 76.38 230.026 75.8933 229.839 75.48C229.653 75.0667 229.373 74.7467 228.999 74.52C228.626 74.28 228.153 74.16 227.579 74.16C227.033 74.16 226.553 74.28 226.139 74.52C225.739 74.7467 225.426 75.0667 225.199 75.48C224.986 75.8933 224.879 76.38 224.879 76.94V81.3C224.879 81.4867 224.859 81.6467 224.819 81.78C224.779 81.9133 224.693 82.0133 224.559 82.08C224.439 82.1467 224.253 82.18 223.999 82.18ZM238.617 82.2C237.99 82.2 237.457 82.14 237.017 82.02C236.59 81.9 236.237 81.7133 235.957 81.46C235.677 81.2067 235.477 80.88 235.357 80.48C235.237 80.0667 235.177 79.56 235.177 78.96V70.12C235.177 69.9333 235.197 69.7733 235.237 69.64C235.277 69.5067 235.357 69.4067 235.477 69.34C235.597 69.26 235.784 69.22 236.037 69.22C236.29 69.22 236.484 69.26 236.617 69.34C236.75 69.4067 236.837 69.5067 236.877 69.64C236.917 69.76 236.937 69.9133 236.937 70.1V78.96C236.937 79.3067 236.964 79.5867 237.017 79.8C237.084 80 237.177 80.1533 237.297 80.26C237.43 80.3667 237.604 80.4333 237.817 80.46C238.03 80.4867 238.29 80.5 238.597 80.5C238.81 80.5 238.984 80.52 239.117 80.56C239.25 80.6 239.35 80.68 239.417 80.8C239.484 80.92 239.517 81.1 239.517 81.34C239.517 81.5933 239.477 81.7867 239.397 81.92C239.33 82.04 239.224 82.1133 239.077 82.14C238.944 82.18 238.79 82.2 238.617 82.2ZM234.137 72.74L236.057 72.76L238.837 72.72C239.024 72.72 239.184 72.74 239.317 72.78C239.45 72.8067 239.55 72.8867 239.617 73.02C239.697 73.14 239.737 73.3267 239.737 73.58C239.737 73.8333 239.704 74.0267 239.637 74.16C239.57 74.28 239.47 74.36 239.337 74.4C239.204 74.44 239.044 74.46 238.857 74.46L236.117 74.42L234.097 74.44C233.817 74.44 233.624 74.3733 233.517 74.24C233.424 74.1067 233.377 73.8867 233.377 73.58C233.377 73.2867 233.437 73.0733 233.557 72.94C233.677 72.8067 233.87 72.74 234.137 72.74ZM253.375 82.24C252.655 82.24 251.955 82.1333 251.275 81.92C250.595 81.7067 249.961 81.4 249.375 81C248.788 80.6 248.268 80.1067 247.815 79.52C247.375 78.92 247.028 78.2533 246.775 77.52C246.521 76.7733 246.395 75.9533 246.395 75.06C246.395 74.2067 246.521 73.42 246.775 72.7C247.028 71.9667 247.375 71.32 247.815 70.76C248.255 70.2 248.768 69.7267 249.355 69.34C249.955 68.94 250.595 68.64 251.275 68.44C251.968 68.2267 252.675 68.12 253.395 68.12C254.061 68.12 254.635 68.1867 255.115 68.32C255.595 68.4533 255.988 68.6 256.295 68.76C256.601 68.9067 256.808 69.02 256.915 69.1C257.101 69.2067 257.281 69.3333 257.455 69.48C257.628 69.6267 257.721 69.8 257.735 70C257.761 70.1467 257.748 70.2667 257.695 70.36C257.655 70.4533 257.601 70.5533 257.535 70.66C257.428 70.82 257.315 70.94 257.195 71.02C257.088 71.0867 256.968 71.12 256.835 71.12C256.701 71.12 256.581 71.08 256.475 71C256.368 70.92 256.228 70.8267 256.055 70.72C255.975 70.6667 255.815 70.58 255.575 70.46C255.335 70.34 255.028 70.2267 254.655 70.12C254.281 70 253.828 69.94 253.295 69.94C252.615 69.94 251.961 70.0667 251.335 70.32C250.721 70.56 250.181 70.9067 249.715 71.36C249.248 71.8133 248.881 72.36 248.615 73C248.348 73.64 248.215 74.36 248.215 75.16C248.215 75.9733 248.348 76.7067 248.615 77.36C248.881 78 249.248 78.5467 249.715 79C250.195 79.4533 250.741 79.8 251.355 80.04C251.968 80.28 252.615 80.4 253.295 80.4C253.801 80.4 254.241 80.3467 254.615 80.24C255.001 80.1333 255.315 80.02 255.555 79.9C255.808 79.7667 255.981 79.6667 256.075 79.6C256.221 79.52 256.348 79.44 256.455 79.36C256.575 79.28 256.701 79.24 256.835 79.24C256.968 79.24 257.088 79.28 257.195 79.36C257.315 79.4267 257.428 79.54 257.535 79.7C257.601 79.7933 257.655 79.9 257.695 80.02C257.748 80.1267 257.761 80.2467 257.735 80.38C257.721 80.58 257.628 80.7533 257.455 80.9C257.281 81.0333 257.101 81.16 256.915 81.28C256.795 81.3333 256.581 81.4467 256.275 81.62C255.981 81.78 255.595 81.92 255.115 82.04C254.635 82.1733 254.055 82.24 253.375 82.24ZM264.374 82.32C263.721 82.32 263.094 82.1933 262.494 81.94C261.908 81.6867 261.381 81.34 260.914 80.9C260.448 80.4467 260.081 79.92 259.814 79.32C259.548 78.72 259.414 78.0667 259.414 77.36C259.414 76.6667 259.541 76.0267 259.794 75.44C260.048 74.84 260.401 74.3133 260.854 73.86C261.308 73.4067 261.828 73.0533 262.414 72.8C263.014 72.5333 263.654 72.4 264.334 72.4C265.254 72.4 266.081 72.62 266.814 73.06C267.561 73.4867 268.154 74.0733 268.594 74.82C269.034 75.5667 269.254 76.4067 269.254 77.34C269.254 78.0733 269.121 78.7467 268.854 79.36C268.588 79.96 268.228 80.48 267.774 80.92C267.321 81.36 266.801 81.7067 266.214 81.96C265.628 82.2 265.014 82.32 264.374 82.32ZM264.334 80.58C264.894 80.58 265.414 80.44 265.894 80.16C266.374 79.88 266.761 79.4933 267.054 79C267.348 78.5067 267.494 77.9467 267.494 77.32C267.494 76.6933 267.354 76.14 267.074 75.66C266.808 75.18 266.434 74.8067 265.954 74.54C265.474 74.2733 264.928 74.14 264.314 74.14C263.728 74.14 263.194 74.28 262.714 74.56C262.248 74.84 261.868 75.22 261.574 75.7C261.294 76.18 261.154 76.7267 261.154 77.34C261.154 77.98 261.301 78.5467 261.594 79.04C261.888 79.52 262.274 79.9 262.754 80.18C263.248 80.4467 263.774 80.58 264.334 80.58ZM275.366 82.2C274.766 82.2 274.192 82.08 273.646 81.84C273.099 81.6 272.619 81.26 272.206 80.82C271.806 80.38 271.486 79.8667 271.246 79.28C271.019 78.68 270.906 78.0267 270.906 77.32C270.906 76.6267 271.019 75.9867 271.246 75.4C271.486 74.8133 271.806 74.3067 272.206 73.88C272.619 73.44 273.099 73.1 273.646 72.86C274.192 72.62 274.766 72.5 275.366 72.5C276.019 72.5 276.606 72.62 277.126 72.86C277.659 73.1 278.112 73.44 278.486 73.88C278.872 74.3067 279.166 74.82 279.366 75.42C279.566 76.0067 279.666 76.6467 279.666 77.34C279.679 78.0467 279.579 78.6933 279.366 79.28C279.166 79.8667 278.879 80.38 278.506 80.82C278.132 81.26 277.679 81.6 277.146 81.84C276.626 82.08 276.032 82.2 275.366 82.2ZM275.626 80.5C276.186 80.5 276.686 80.3667 277.126 80.1C277.579 79.8333 277.932 79.4667 278.186 79C278.452 78.52 278.586 77.9733 278.586 77.36C278.586 76.7333 278.452 76.1867 278.186 75.72C277.932 75.24 277.579 74.8667 277.126 74.6C276.686 74.3333 276.186 74.2 275.626 74.2C275.066 74.2 274.559 74.3333 274.106 74.6C273.652 74.8667 273.292 75.24 273.026 75.72C272.772 76.1867 272.646 76.7333 272.646 77.36C272.646 77.9733 272.772 78.52 273.026 79C273.292 79.4667 273.652 79.8333 274.106 80.1C274.572 80.3667 275.079 80.5 275.626 80.5ZM279.546 82.2C279.252 82.2 279.039 82.1467 278.906 82.04C278.772 81.9333 278.692 81.7533 278.666 81.5V68.98C278.666 68.78 278.679 68.6133 278.706 68.48C278.746 68.3467 278.826 68.2467 278.946 68.18C279.079 68.1 279.272 68.06 279.526 68.06C279.779 68.06 279.966 68.1 280.086 68.18C280.219 68.2467 280.306 68.3467 280.346 68.48C280.386 68.6133 280.406 68.7733 280.406 68.96V81.28C280.406 81.4667 280.386 81.6333 280.346 81.78C280.306 81.9133 280.226 82.0133 280.106 82.08C279.986 82.16 279.799 82.2 279.546 82.2ZM287.465 82.3C286.665 82.3 285.951 82.1667 285.325 81.9C284.698 81.6333 284.165 81.2733 283.725 80.82C283.298 80.3533 282.971 79.82 282.745 79.22C282.518 78.62 282.405 77.9733 282.405 77.28C282.405 76.36 282.618 75.54 283.045 74.82C283.471 74.1 284.058 73.5333 284.805 73.12C285.565 72.6933 286.431 72.48 287.405 72.48C288.071 72.48 288.665 72.5867 289.185 72.8C289.718 73 290.171 73.2733 290.545 73.62C290.918 73.9667 291.205 74.3533 291.405 74.78C291.605 75.2067 291.705 75.6333 291.705 76.06C291.705 76.74 291.545 77.22 291.225 77.5C290.905 77.7667 290.511 77.9 290.045 77.9H284.265C284.251 78.4867 284.405 78.9933 284.725 79.42C285.058 79.8333 285.471 80.1533 285.965 80.38C286.471 80.6067 286.978 80.72 287.485 80.72C287.858 80.72 288.178 80.7 288.445 80.66C288.711 80.62 288.945 80.5667 289.145 80.5C289.345 80.4333 289.518 80.3667 289.665 80.3C289.811 80.2333 289.938 80.1667 290.045 80.1C290.165 80.0333 290.278 79.9867 290.385 79.96C290.505 79.9333 290.618 79.9467 290.725 80C290.845 80.04 290.938 80.1267 291.005 80.26C291.085 80.3667 291.138 80.4667 291.165 80.56C291.191 80.6533 291.205 80.7533 291.205 80.86C291.205 81.0467 291.045 81.2533 290.725 81.48C290.405 81.7067 289.958 81.9 289.385 82.06C288.825 82.22 288.185 82.3 287.465 82.3ZM284.265 76.72H289.285C289.538 76.72 289.725 76.6867 289.845 76.62C289.978 76.5533 290.045 76.3733 290.045 76.08C290.045 75.7067 289.931 75.3733 289.705 75.08C289.478 74.7733 289.165 74.5267 288.765 74.34C288.378 74.1533 287.931 74.06 287.425 74.06C286.838 74.06 286.298 74.18 285.805 74.42C285.325 74.6467 284.945 74.96 284.665 75.36C284.385 75.76 284.251 76.2133 284.265 76.72Z" fill="white"/>
<g filter="url(#filter0_ii_2042_4623)">
<path d="M102.146 69.8555C102.206 69.7742 102.226 69.6725 102.211 69.5708C102.007 68.3963 102.778 67.2778 103.923 67.0693C105.073 66.8609 106.172 67.6439 106.377 68.8183C106.411 69.0268 106.605 69.1641 106.81 69.1285L108.402 68.8438L109.93 77.7107C109.796 77.7158 109.661 77.7311 109.527 77.7412C109.373 77.7514 109.218 77.7616 109.064 77.7768C108.84 77.7972 108.616 77.8226 108.397 77.848C108.253 77.8683 108.113 77.8836 107.974 77.9039C107.715 77.9395 107.462 77.9853 107.208 78.031C107.103 78.0514 106.999 78.0666 106.889 78.087C106.531 78.1582 106.173 78.2395 105.819 78.331C105.754 78.3463 105.69 78.3666 105.625 78.3869C105.331 78.4632 105.043 78.5395 104.759 78.631C104.635 78.6666 104.515 78.7123 104.396 78.7479C104.167 78.8242 103.943 78.9005 103.719 78.9818L103.316 79.1343C103.107 79.2157 102.898 79.3021 102.694 79.3886C102.559 79.4445 102.425 79.5055 102.291 79.5665C102.176 79.6173 102.057 79.6682 101.942 79.7241L100.315 70.2978L101.907 70.0131C102.007 69.9927 102.091 69.9369 102.146 69.8555ZM100.399 80.5376C100.484 80.4867 100.568 80.4359 100.653 80.3901C100.852 80.2783 101.046 80.1766 101.245 80.0749L99.5134 70.0537C99.4985 69.952 99.5184 69.8504 99.5781 69.769C99.6328 69.6877 99.7174 69.6317 99.817 69.6114L101.434 69.3216C101.37 67.8827 102.365 66.5761 103.794 66.3168C105.227 66.0575 106.6 66.937 107.024 68.3149L108.641 68.0251C108.845 67.9895 109.039 68.1268 109.074 68.3352L110.687 77.6851H111.294C111.383 77.6851 111.473 77.6902 111.563 77.6953C111.692 77.6953 111.821 77.7003 111.956 77.7054L110.124 67.11C110.065 66.7642 109.741 66.5354 109.403 66.5965L107.964 66.8558C107.825 66.8812 107.686 66.8202 107.601 66.7083C106.81 65.6152 105.595 65 104.306 65C104.067 65 103.823 65.0203 103.58 65.0661C102.037 65.3406 100.802 66.4694 100.355 68.0099C100.315 68.1523 100.2 68.2539 100.061 68.2794L98.6176 68.5387C98.2792 68.5997 98.0552 68.9301 98.1149 69.2759L100.091 80.7154C100.195 80.6493 100.295 80.5935 100.399 80.5376ZM112.379 78.4937C117.082 78.8089 121.531 80.7562 125 84H97C97.9357 83.1255 98.946 82.3374 100.011 81.651C100.613 81.2748 101.22 80.9291 101.823 80.624C102.813 80.1258 103.848 79.7089 104.913 79.3784C106.685 78.8242 108.531 78.509 110.383 78.453C110.572 78.448 110.761 78.4429 110.955 78.4429C111.418 78.4429 111.896 78.4632 112.379 78.4937ZM108.82 80.6087C108.706 80.4359 108.477 80.3901 108.302 80.5071L107.69 80.924C107.327 81.1731 106.844 81.1222 106.536 80.807C105.978 80.2376 105.097 80.1461 104.44 80.5935L103.823 81.0155C103.654 81.1324 103.609 81.3663 103.724 81.5442C103.833 81.7171 104.067 81.7629 104.241 81.6459L104.853 81.229C105.217 80.985 105.7 81.0307 106.008 81.346C106.327 81.6714 106.755 81.8442 107.183 81.8442C107.501 81.8442 107.825 81.7476 108.103 81.5595L108.72 81.1375C108.89 81.0206 108.935 80.7867 108.82 80.6087ZM112.379 81.5748L111.358 81.9917C111.169 82.073 111.075 82.2916 111.149 82.4899C111.229 82.6831 111.448 82.7797 111.637 82.7035L112.657 82.2866C113.468 81.951 114.399 82.0273 115.151 82.4899C115.713 82.8306 116.34 83.0085 116.977 83.0085C117.266 83.0085 117.56 82.973 117.848 82.8967L118.555 82.7187C118.754 82.6679 118.878 82.4594 118.829 82.2561C118.779 82.0527 118.575 81.9256 118.376 81.9764L117.664 82.1595C116.937 82.3425 116.181 82.2306 115.534 81.8341C114.588 81.2545 113.409 81.1579 112.379 81.5748Z" fill="url(#paint0_linear_2042_4623)"/>
</g>
<defs>
<filter id="filter0_ii_2042_4623" x="96.4011" y="64.0033" width="29.1978" height="20.9935" filterUnits="userSpaceOnUse" color-interpolation-filters="sRGB">
<feFlood flood-opacity="0" result="BackgroundImageFix"/>
<feBlend mode="normal" in="SourceGraphic" in2="BackgroundImageFix" result="shape"/>
<feColorMatrix in="SourceAlpha" type="matrix" values="0 0 0 0 0 0 0 0 0 0 0 0 0 0 0 0 0 0 127 0" result="hardAlpha"/>
<feOffset dx="0.598894" dy="0.996727"/>
<feGaussianBlur stdDeviation="0.581407"/>
<feComposite in2="hardAlpha" operator="arithmetic" k2="-1" k3="1"/>
<feColorMatrix type="matrix" values="0 0 0 0 1 0 0 0 0 0.623663 0 0 0 0 1 0 0 0 1 0"/>
<feBlend mode="normal" in2="shape" result="effect1_innerShadow_2042_4623"/>
<feColorMatrix in="SourceAlpha" type="matrix" values="0 0 0 0 0 0 0 0 0 0 0 0 0 0 0 0 0 0 127 0" result="hardAlpha"/>
<feOffset dx="-0.598894" dy="-0.996727"/>
<feGaussianBlur stdDeviation="0.581407"/>
<feComposite in2="hardAlpha" operator="arithmetic" k2="-1" k3="1"/>
<feColorMatrix type="matrix" values="0 0 0 0 0.623343 0 0 0 0 0.376304 0 0 0 0 0.715265 0 0 0 1 0"/>
<feBlend mode="normal" in2="effect1_innerShadow_2042_4623" result="effect2_innerShadow_2042_4623"/>
</filter>
<linearGradient id="paint0_linear_2042_4623" x1="105.572" y1="61.5049" x2="113.322" y2="80.5112" gradientUnits="userSpaceOnUse">
<stop stop-color="#FC98FF"/>
<stop offset="1" stop-color="#AB67C4"/>
</linearGradient>
</defs>
</svg>
